solid Exported from Blender-3.1.0
facet normal 0.000000 0.000000 1.000000
outer loop
vertex 5.000000 5.000000 0.000000
vertex 10.000000 5.000000 0.000000
vertex 10.000000 10.000000 0.000000
endloop
endfacet
facet normal 0.000000 0.000000 1.000000
outer loop
vertex 5.000000 5.000000 0.000000
vertex 10.000000 10.000000 0.000000
vertex 5.000000 10.000000 0.000000
endloop
endfacet
facet normal 0.000000 0.000000 1.000000
outer loop
vertex -5.000000 5.000000 0.000000
vertex 0.000000 5.000000 0.000000
vertex 0.000000 10.000000 0.000000
endloop
endfacet
facet normal 0.000000 0.000000 1.000000
outer loop
vertex -5.000000 5.000000 0.000000
vertex 0.000000 10.000000 0.000000
vertex -5.000000 10.000000 0.000000
endloop
endfacet
facet normal 0.000000 0.000000 1.000000
outer loop
vertex 0.000000 5.000000 0.000000
vertex 5.000000 5.000000 0.000000
vertex 5.000000 10.000000 0.000000
endloop
endfacet
facet normal 0.000000 0.000000 1.000000
outer loop
vertex 0.000000 5.000000 0.000000
vertex 5.000000 10.000000 0.000000
vertex 0.000000 10.000000 0.000000
endloop
endfacet
facet normal 0.000000 0.000000 1.000000
outer loop
vertex -10.000000 5.000000 0.000000
vertex -5.000000 5.000000 0.000000
vertex -5.000000 10.000000 0.000000
endloop
endfacet
facet normal 0.000000 0.000000 1.000000
outer loop
vertex -10.000000 5.000000 0.000000
vertex -5.000000 10.000000 0.000000
vertex -10.000000 10.000000 0.000000
endloop
endfacet
facet normal 0.000000 0.000000 1.000000
outer loop
vertex -10.000000 -5.000000 0.000000
vertex -5.000000 -5.000000 0.000000
vertex -5.000000 0.000000 0.000000
endloop
endfacet
facet normal 0.000000 0.000000 1.000000
outer loop
vertex -10.000000 -5.000000 0.000000
vertex -5.000000 0.000000 0.000000
vertex -10.000000 0.000000 0.000000
endloop
endfacet
facet normal 0.000000 0.000000 1.000000
outer loop
vertex 0.000000 -5.000000 0.000000
vertex 5.000000 -5.000000 0.000000
vertex 5.000000 0.000000 0.000000
endloop
endfacet
facet normal 0.000000 0.000000 1.000000
outer loop
vertex 0.000000 -5.000000 0.000000
vertex 5.000000 0.000000 0.000000
vertex 0.000000 0.000000 0.000000
endloop
endfacet
facet normal 0.000000 0.000000 1.000000
outer loop
vertex -5.000000 -5.000000 0.000000
vertex 0.000000 -5.000000 0.000000
vertex 0.000000 0.000000 0.000000
endloop
endfacet
facet normal 0.000000 0.000000 1.000000
outer loop
vertex -5.000000 -5.000000 0.000000
vertex 0.000000 0.000000 0.000000
vertex -5.000000 0.000000 0.000000
endloop
endfacet
facet normal 0.000000 0.000000 1.000000
outer loop
vertex 5.000000 -5.000000 0.000000
vertex 10.000000 -5.000000 0.000000
vertex 10.000000 0.000000 0.000000
endloop
endfacet
facet normal 0.000000 0.000000 1.000000
outer loop
vertex 5.000000 -5.000000 0.000000
vertex 10.000000 0.000000 0.000000
vertex 5.000000 0.000000 0.000000
endloop
endfacet
facet normal 0.000000 0.000000 1.000000
outer loop
vertex -10.000000 0.000000 0.000000
vertex -5.000000 0.000000 0.000000
vertex -5.000000 5.000000 0.000000
endloop
endfacet
facet normal 0.000000 0.000000 1.000000
outer loop
vertex -10.000000 0.000000 0.000000
vertex -5.000000 5.000000 0.000000
vertex -10.000000 5.000000 0.000000
endloop
endfacet
facet normal 0.000000 0.000000 1.000000
outer loop
vertex 0.000000 0.000000 0.000000
vertex 5.000000 0.000000 0.000000
vertex 5.000000 5.000000 0.000000
endloop
endfacet
facet normal 0.000000 0.000000 1.000000
outer loop
vertex 0.000000 0.000000 0.000000
vertex 5.000000 5.000000 0.000000
vertex 0.000000 5.000000 0.000000
endloop
endfacet
facet normal 0.000000 0.000000 1.000000
outer loop
vertex -5.000000 0.000000 0.000000
vertex 0.000000 0.000000 0.000000
vertex 0.000000 5.000000 0.000000
endloop
endfacet
facet normal 0.000000 0.000000 1.000000
outer loop
vertex -5.000000 0.000000 0.000000
vertex 0.000000 5.000000 0.000000
vertex -5.000000 5.000000 0.000000
endloop
endfacet
facet normal 0.000000 0.000000 1.000000
outer loop
vertex 5.000000 0.000000 0.000000
vertex 10.000000 0.000000 0.000000
vertex 10.000000 5.000000 0.000000
endloop
endfacet
facet normal 0.000000 0.000000 1.000000
outer loop
vertex 5.000000 0.000000 0.000000
vertex 10.000000 5.000000 0.000000
vertex 5.000000 5.000000 0.000000
endloop
endfacet
facet normal 0.000000 0.000000 1.000000
outer loop
vertex 5.000000 -10.000000 0.000000
vertex 10.000000 -10.000000 0.000000
vertex 10.000000 -5.000000 0.000000
endloop
endfacet
facet normal 0.000000 0.000000 1.000000
outer loop
vertex 5.000000 -10.000000 0.000000
vertex 10.000000 -5.000000 0.000000
vertex 5.000000 -5.000000 0.000000
endloop
endfacet
facet normal 0.000000 0.000000 1.000000
outer loop
vertex -5.000000 -10.000000 0.000000
vertex 0.000000 -10.000000 0.000000
vertex 0.000000 -5.000000 0.000000
endloop
endfacet
facet normal 0.000000 0.000000 1.000000
outer loop
vertex -5.000000 -10.000000 0.000000
vertex 0.000000 -5.000000 0.000000
vertex -5.000000 -5.000000 0.000000
endloop
endfacet
facet normal 0.000000 0.000000 1.000000
outer loop
vertex 0.000000 -10.000000 0.000000
vertex 5.000000 -10.000000 0.000000
vertex 5.000000 -5.000000 0.000000
endloop
endfacet
facet normal 0.000000 0.000000 1.000000
outer loop
vertex 0.000000 -10.000000 0.000000
vertex 5.000000 -5.000000 0.000000
vertex 0.000000 -5.000000 0.000000
endloop
endfacet
facet normal 0.000000 0.000000 1.000000
outer loop
vertex -10.000000 -10.000000 0.000000
vertex -5.000000 -10.000000 0.000000
vertex -5.000000 -5.000000 0.000000
endloop
endfacet
facet normal 0.000000 0.000000 1.000000
outer loop
vertex -10.000000 -10.000000 0.000000
vertex -5.000000 -5.000000 0.000000
vertex -10.000000 -5.000000 0.000000
endloop
endfacet
facet normal -1.000000 0.000000 -0.000000
outer loop
vertex 10.000000 5.000000 5.000000
vertex 10.000000 10.000000 5.000000
vertex 10.000001 10.000000 0.000000
endloop
endfacet
facet normal -1.000000 0.000000 -0.000000
outer loop
vertex 10.000000 5.000000 5.000000
vertex 10.000001 10.000000 0.000000
vertex 10.000001 5.000000 0.000000
endloop
endfacet
facet normal -1.000000 0.000000 0.000000
outer loop
vertex 10.000000 5.000000 15.000000
vertex 10.000000 10.000000 15.000000
vertex 10.000000 10.000000 10.000000
endloop
endfacet
facet normal -1.000000 0.000000 0.000000
outer loop
vertex 10.000000 5.000000 15.000000
vertex 10.000000 10.000000 10.000000
vertex 10.000000 5.000000 10.000000
endloop
endfacet
facet normal -1.000000 0.000000 0.000000
outer loop
vertex 10.000000 5.000000 10.000000
vertex 10.000000 10.000000 10.000000
vertex 10.000000 10.000000 5.000000
endloop
endfacet
facet normal -1.000000 0.000000 0.000000
outer loop
vertex 10.000000 5.000000 10.000000
vertex 10.000000 10.000000 5.000000
vertex 10.000000 5.000000 5.000000
endloop
endfacet
facet normal -1.000000 0.000000 -0.000000
outer loop
vertex 9.999999 5.000000 20.000000
vertex 9.999999 10.000000 20.000000
vertex 10.000000 10.000000 15.000000
endloop
endfacet
facet normal -1.000000 0.000000 -0.000000
outer loop
vertex 9.999999 5.000000 20.000000
vertex 10.000000 10.000000 15.000000
vertex 10.000000 5.000000 15.000000
endloop
endfacet
facet normal -1.000000 0.000000 -0.000000
outer loop
vertex 9.999999 -5.000000 20.000000
vertex 9.999999 0.000000 20.000000
vertex 10.000000 0.000000 15.000000
endloop
endfacet
facet normal -1.000000 0.000000 -0.000000
outer loop
vertex 9.999999 -5.000000 20.000000
vertex 10.000000 0.000000 15.000000
vertex 10.000000 -5.000000 15.000000
endloop
endfacet
facet normal -1.000000 0.000000 0.000000
outer loop
vertex 10.000000 -5.000000 10.000000
vertex 10.000000 0.000000 10.000000
vertex 10.000000 0.000000 5.000000
endloop
endfacet
facet normal -1.000000 0.000000 0.000000
outer loop
vertex 10.000000 -5.000000 10.000000
vertex 10.000000 0.000000 5.000000
vertex 10.000000 -5.000000 5.000000
endloop
endfacet
facet normal -1.000000 0.000000 0.000000
outer loop
vertex 10.000000 -5.000000 15.000000
vertex 10.000000 0.000000 15.000000
vertex 10.000000 0.000000 10.000000
endloop
endfacet
facet normal -1.000000 0.000000 0.000000
outer loop
vertex 10.000000 -5.000000 15.000000
vertex 10.000000 0.000000 10.000000
vertex 10.000000 -5.000000 10.000000
endloop
endfacet
facet normal -1.000000 0.000000 -0.000000
outer loop
vertex 10.000000 -5.000000 5.000000
vertex 10.000000 0.000000 5.000000
vertex 10.000001 0.000000 0.000000
endloop
endfacet
facet normal -1.000000 0.000000 -0.000000
outer loop
vertex 10.000000 -5.000000 5.000000
vertex 10.000001 0.000000 0.000000
vertex 10.000001 -5.000000 0.000000
endloop
endfacet
facet normal -1.000000 0.000000 -0.000000
outer loop
vertex 9.999999 0.000000 20.000000
vertex 9.999999 5.000000 20.000000
vertex 10.000000 5.000000 15.000000
endloop
endfacet
facet normal -1.000000 0.000000 -0.000000
outer loop
vertex 9.999999 0.000000 20.000000
vertex 10.000000 5.000000 15.000000
vertex 10.000000 0.000000 15.000000
endloop
endfacet
facet normal -1.000000 0.000000 0.000000
outer loop
vertex 10.000000 0.000000 10.000000
vertex 10.000000 5.000000 10.000000
vertex 10.000000 5.000000 5.000000
endloop
endfacet
facet normal -1.000000 0.000000 0.000000
outer loop
vertex 10.000000 0.000000 10.000000
vertex 10.000000 5.000000 5.000000
vertex 10.000000 0.000000 5.000000
endloop
endfacet
facet normal -1.000000 0.000000 0.000000
outer loop
vertex 10.000000 0.000000 15.000000
vertex 10.000000 5.000000 15.000000
vertex 10.000000 5.000000 10.000000
endloop
endfacet
facet normal -1.000000 0.000000 0.000000
outer loop
vertex 10.000000 0.000000 15.000000
vertex 10.000000 5.000000 10.000000
vertex 10.000000 0.000000 10.000000
endloop
endfacet
facet normal -1.000000 0.000000 -0.000000
outer loop
vertex 10.000000 0.000000 5.000000
vertex 10.000000 5.000000 5.000000
vertex 10.000001 5.000000 0.000000
endloop
endfacet
facet normal -1.000000 0.000000 -0.000000
outer loop
vertex 10.000000 0.000000 5.000000
vertex 10.000001 5.000000 0.000000
vertex 10.000001 0.000000 0.000000
endloop
endfacet
facet normal -1.000000 0.000000 -0.000000
outer loop
vertex 10.000000 -10.000000 5.000000
vertex 10.000000 -5.000000 5.000000
vertex 10.000001 -5.000000 0.000000
endloop
endfacet
facet normal -1.000000 0.000000 -0.000000
outer loop
vertex 10.000000 -10.000000 5.000000
vertex 10.000001 -5.000000 0.000000
vertex 10.000001 -10.000000 0.000000
endloop
endfacet
facet normal -1.000000 0.000000 0.000000
outer loop
vertex 10.000000 -10.000000 15.000000
vertex 10.000000 -5.000000 15.000000
vertex 10.000000 -5.000000 10.000000
endloop
endfacet
facet normal -1.000000 0.000000 0.000000
outer loop
vertex 10.000000 -10.000000 15.000000
vertex 10.000000 -5.000000 10.000000
vertex 10.000000 -10.000000 10.000000
endloop
endfacet
facet normal -1.000000 0.000000 0.000000
outer loop
vertex 10.000000 -10.000000 10.000000
vertex 10.000000 -5.000000 10.000000
vertex 10.000000 -5.000000 5.000000
endloop
endfacet
facet normal -1.000000 0.000000 0.000000
outer loop
vertex 10.000000 -10.000000 10.000000
vertex 10.000000 -5.000000 5.000000
vertex 10.000000 -10.000000 5.000000
endloop
endfacet
facet normal -1.000000 0.000000 -0.000000
outer loop
vertex 9.999999 -10.000000 20.000000
vertex 9.999999 -5.000000 20.000000
vertex 10.000000 -5.000000 15.000000
endloop
endfacet
facet normal -1.000000 0.000000 -0.000000
outer loop
vertex 9.999999 -10.000000 20.000000
vertex 10.000000 -5.000000 15.000000
vertex 10.000000 -10.000000 15.000000
endloop
endfacet
facet normal 1.000000 0.000000 0.000000
outer loop
vertex -9.999999 -5.000000 5.000000
vertex -9.999998 -10.000000 5.000000
vertex -9.999998 -10.000000 0.000000
endloop
endfacet
facet normal 1.000000 0.000000 0.000000
outer loop
vertex -9.999999 -5.000000 5.000000
vertex -9.999998 -10.000000 0.000000
vertex -9.999998 -5.000000 0.000000
endloop
endfacet
facet normal 1.000000 0.000000 0.000000
outer loop
vertex -10.000000 -5.000000 15.000000
vertex -9.999999 -10.000000 15.000000
vertex -9.999998 -10.000000 10.000000
endloop
endfacet
facet normal 1.000000 0.000000 0.000000
outer loop
vertex -10.000000 -5.000000 15.000000
vertex -9.999998 -10.000000 10.000000
vertex -9.999999 -5.000000 10.000000
endloop
endfacet
facet normal 1.000000 0.000000 0.000000
outer loop
vertex -9.999999 -5.000000 10.000000
vertex -9.999998 -10.000000 10.000000
vertex -9.999998 -10.000000 5.000000
endloop
endfacet
facet normal 1.000000 0.000000 0.000000
outer loop
vertex -9.999999 -5.000000 10.000000
vertex -9.999998 -10.000000 5.000000
vertex -9.999999 -5.000000 5.000000
endloop
endfacet
facet normal 1.000000 0.000000 0.000000
outer loop
vertex -10.000000 -5.000000 20.000000
vertex -9.999999 -10.000000 20.000000
vertex -9.999999 -10.000000 15.000000
endloop
endfacet
facet normal 1.000000 0.000000 0.000000
outer loop
vertex -10.000000 -5.000000 20.000000
vertex -9.999999 -10.000000 15.000000
vertex -10.000000 -5.000000 15.000000
endloop
endfacet
facet normal 1.000000 0.000000 0.000000
outer loop
vertex -10.000002 5.000000 20.000000
vertex -10.000001 0.000000 20.000000
vertex -10.000000 0.000000 15.000000
endloop
endfacet
facet normal 1.000000 0.000000 0.000000
outer loop
vertex -10.000002 5.000000 20.000000
vertex -10.000000 0.000000 15.000000
vertex -10.000001 5.000000 15.000000
endloop
endfacet
facet normal 1.000000 0.000000 0.000000
outer loop
vertex -10.000001 5.000000 10.000000
vertex -10.000000 0.000000 10.000000
vertex -10.000000 0.000000 5.000000
endloop
endfacet
facet normal 1.000000 0.000000 0.000000
outer loop
vertex -10.000001 5.000000 10.000000
vertex -10.000000 0.000000 5.000000
vertex -10.000000 5.000000 5.000000
endloop
endfacet
facet normal 1.000000 0.000000 0.000000
outer loop
vertex -10.000001 5.000000 15.000000
vertex -10.000000 0.000000 15.000000
vertex -10.000000 0.000000 10.000000
endloop
endfacet
facet normal 1.000000 0.000000 0.000000
outer loop
vertex -10.000001 5.000000 15.000000
vertex -10.000000 0.000000 10.000000
vertex -10.000001 5.000000 10.000000
endloop
endfacet
facet normal 1.000000 0.000000 0.000000
outer loop
vertex -10.000000 5.000000 5.000000
vertex -10.000000 0.000000 5.000000
vertex -9.999999 0.000000 0.000000
endloop
endfacet
facet normal 1.000000 0.000000 0.000000
outer loop
vertex -10.000000 5.000000 5.000000
vertex -9.999999 0.000000 0.000000
vertex -10.000000 5.000000 0.000000
endloop
endfacet
facet normal 1.000000 0.000000 0.000000
outer loop
vertex -10.000001 0.000000 20.000000
vertex -10.000000 -5.000000 20.000000
vertex -10.000000 -5.000000 15.000000
endloop
endfacet
facet normal 1.000000 0.000000 0.000000
outer loop
vertex -10.000001 0.000000 20.000000
vertex -10.000000 -5.000000 15.000000
vertex -10.000000 0.000000 15.000000
endloop
endfacet
facet normal 1.000000 0.000000 0.000000
outer loop
vertex -10.000000 0.000000 10.000000
vertex -9.999999 -5.000000 10.000000
vertex -9.999999 -5.000000 5.000000
endloop
endfacet
facet normal 1.000000 0.000000 0.000000
outer loop
vertex -10.000000 0.000000 10.000000
vertex -9.999999 -5.000000 5.000000
vertex -10.000000 0.000000 5.000000
endloop
endfacet
facet normal 1.000000 0.000000 0.000000
outer loop
vertex -10.000000 0.000000 15.000000
vertex -10.000000 -5.000000 15.000000
vertex -9.999999 -5.000000 10.000000
endloop
endfacet
facet normal 1.000000 0.000000 0.000000
outer loop
vertex -10.000000 0.000000 15.000000
vertex -9.999999 -5.000000 10.000000
vertex -10.000000 0.000000 10.000000
endloop
endfacet
facet normal 1.000000 0.000000 0.000000
outer loop
vertex -10.000000 0.000000 5.000000
vertex -9.999999 -5.000000 5.000000
vertex -9.999998 -5.000000 0.000000
endloop
endfacet
facet normal 1.000000 0.000000 0.000000
outer loop
vertex -10.000000 0.000000 5.000000
vertex -9.999998 -5.000000 0.000000
vertex -9.999999 0.000000 0.000000
endloop
endfacet
facet normal 1.000000 0.000000 0.000000
outer loop
vertex -10.000001 10.000000 5.000000
vertex -10.000000 5.000000 5.000000
vertex -10.000000 5.000000 0.000000
endloop
endfacet
facet normal 1.000000 0.000000 0.000000
outer loop
vertex -10.000001 10.000000 5.000000
vertex -10.000000 5.000000 0.000000
vertex -10.000001 10.000000 0.000000
endloop
endfacet
facet normal 1.000000 0.000000 0.000000
outer loop
vertex -10.000002 10.000000 15.000000
vertex -10.000001 5.000000 15.000000
vertex -10.000001 5.000000 10.000000
endloop
endfacet
facet normal 1.000000 0.000000 0.000000
outer loop
vertex -10.000002 10.000000 15.000000
vertex -10.000001 5.000000 10.000000
vertex -10.000002 10.000000 10.000000
endloop
endfacet
facet normal 1.000000 0.000000 0.000000
outer loop
vertex -10.000002 10.000000 10.000000
vertex -10.000001 5.000000 10.000000
vertex -10.000000 5.000000 5.000000
endloop
endfacet
facet normal 1.000000 0.000000 0.000000
outer loop
vertex -10.000002 10.000000 10.000000
vertex -10.000000 5.000000 5.000000
vertex -10.000001 10.000000 5.000000
endloop
endfacet
facet normal 1.000000 0.000000 0.000000
outer loop
vertex -10.000002 10.000000 20.000000
vertex -10.000002 5.000000 20.000000
vertex -10.000001 5.000000 15.000000
endloop
endfacet
facet normal 1.000000 0.000000 0.000000
outer loop
vertex -10.000002 10.000000 20.000000
vertex -10.000001 5.000000 15.000000
vertex -10.000002 10.000000 15.000000
endloop
endfacet
facet normal 0.000000 -1.000000 0.000000
outer loop
vertex -5.000000 10.000000 5.000000
vertex -10.000000 10.000000 5.000000
vertex -10.000000 10.000001 0.000000
endloop
endfacet
facet normal 0.000000 -1.000000 -0.000000
outer loop
vertex -5.000000 10.000000 5.000000
vertex -10.000000 10.000001 0.000000
vertex -5.000000 10.000001 0.000000
endloop
endfacet
facet normal 0.000000 -1.000000 0.000000
outer loop
vertex -5.000000 10.000000 15.000000
vertex -10.000000 10.000000 15.000000
vertex -10.000000 10.000000 10.000000
endloop
endfacet
facet normal 0.000000 -1.000000 0.000000
outer loop
vertex -5.000000 10.000000 15.000000
vertex -10.000000 10.000000 10.000000
vertex -5.000000 10.000000 10.000000
endloop
endfacet
facet normal 0.000000 -1.000000 0.000000
outer loop
vertex -5.000000 10.000000 10.000000
vertex -10.000000 10.000000 10.000000
vertex -10.000000 10.000000 5.000000
endloop
endfacet
facet normal 0.000000 -1.000000 0.000000
outer loop
vertex -5.000000 10.000000 10.000000
vertex -10.000000 10.000000 5.000000
vertex -5.000000 10.000000 5.000000
endloop
endfacet
facet normal 0.000000 -1.000000 -0.000000
outer loop
vertex -5.000000 9.999999 20.000000
vertex -10.000000 9.999999 20.000000
vertex -10.000000 10.000000 15.000000
endloop
endfacet
facet normal 0.000000 -1.000000 0.000000
outer loop
vertex -5.000000 9.999999 20.000000
vertex -10.000000 10.000000 15.000000
vertex -5.000000 10.000000 15.000000
endloop
endfacet
facet normal 0.000000 -1.000000 -0.000000
outer loop
vertex 5.000000 9.999999 20.000000
vertex -0.000000 9.999999 20.000000
vertex -0.000000 10.000000 15.000000
endloop
endfacet
facet normal 0.000000 -1.000000 0.000000
outer loop
vertex 5.000000 9.999999 20.000000
vertex -0.000000 10.000000 15.000000
vertex 5.000000 10.000000 15.000000
endloop
endfacet
facet normal 0.000000 -1.000000 0.000000
outer loop
vertex 5.000000 10.000000 10.000000
vertex -0.000000 10.000000 10.000000
vertex -0.000000 10.000000 5.000000
endloop
endfacet
facet normal 0.000000 -1.000000 0.000000
outer loop
vertex 5.000000 10.000000 10.000000
vertex -0.000000 10.000000 5.000000
vertex 5.000000 10.000000 5.000000
endloop
endfacet
facet normal 0.000000 -1.000000 0.000000
outer loop
vertex 5.000000 10.000000 15.000000
vertex -0.000000 10.000000 15.000000
vertex -0.000000 10.000000 10.000000
endloop
endfacet
facet normal 0.000000 -1.000000 0.000000
outer loop
vertex 5.000000 10.000000 15.000000
vertex -0.000000 10.000000 10.000000
vertex 5.000000 10.000000 10.000000
endloop
endfacet
facet normal 0.000000 -1.000000 0.000000
outer loop
vertex 5.000000 10.000000 5.000000
vertex -0.000000 10.000000 5.000000
vertex -0.000000 10.000001 0.000000
endloop
endfacet
facet normal 0.000000 -1.000000 -0.000000
outer loop
vertex 5.000000 10.000000 5.000000
vertex -0.000000 10.000001 0.000000
vertex 5.000000 10.000001 0.000000
endloop
endfacet
facet normal 0.000000 -1.000000 -0.000000
outer loop
vertex -0.000000 9.999999 20.000000
vertex -5.000000 9.999999 20.000000
vertex -5.000000 10.000000 15.000000
endloop
endfacet
facet normal 0.000000 -1.000000 0.000000
outer loop
vertex -0.000000 9.999999 20.000000
vertex -5.000000 10.000000 15.000000
vertex -0.000000 10.000000 15.000000
endloop
endfacet
facet normal 0.000000 -1.000000 0.000000
outer loop
vertex -0.000000 10.000000 10.000000
vertex -5.000000 10.000000 10.000000
vertex -5.000000 10.000000 5.000000
endloop
endfacet
facet normal 0.000000 -1.000000 0.000000
outer loop
vertex -0.000000 10.000000 10.000000
vertex -5.000000 10.000000 5.000000
vertex -0.000000 10.000000 5.000000
endloop
endfacet
facet normal 0.000000 -1.000000 0.000000
outer loop
vertex -0.000000 10.000000 15.000000
vertex -5.000000 10.000000 15.000000
vertex -5.000000 10.000000 10.000000
endloop
endfacet
facet normal 0.000000 -1.000000 0.000000
outer loop
vertex -0.000000 10.000000 15.000000
vertex -5.000000 10.000000 10.000000
vertex -0.000000 10.000000 10.000000
endloop
endfacet
facet normal 0.000000 -1.000000 0.000000
outer loop
vertex -0.000000 10.000000 5.000000
vertex -5.000000 10.000000 5.000000
vertex -5.000000 10.000001 0.000000
endloop
endfacet
facet normal 0.000000 -1.000000 -0.000000
outer loop
vertex -0.000000 10.000000 5.000000
vertex -5.000000 10.000001 0.000000
vertex -0.000000 10.000001 0.000000
endloop
endfacet
facet normal 0.000000 -1.000000 0.000000
outer loop
vertex 10.000000 10.000000 5.000000
vertex 5.000000 10.000000 5.000000
vertex 5.000000 10.000001 0.000000
endloop
endfacet
facet normal 0.000000 -1.000000 -0.000001
outer loop
vertex 10.000000 10.000000 5.000000
vertex 5.000000 10.000001 0.000000
vertex 10.000000 10.000001 0.000000
endloop
endfacet
facet normal 0.000000 -1.000000 0.000000
outer loop
vertex 10.000000 10.000000 15.000000
vertex 5.000000 10.000000 15.000000
vertex 5.000000 10.000000 10.000000
endloop
endfacet
facet normal 0.000000 -1.000000 0.000000
outer loop
vertex 10.000000 10.000000 15.000000
vertex 5.000000 10.000000 10.000000
vertex 10.000000 10.000000 10.000000
endloop
endfacet
facet normal 0.000000 -1.000000 0.000000
outer loop
vertex 10.000000 10.000000 10.000000
vertex 5.000000 10.000000 10.000000
vertex 5.000000 10.000000 5.000000
endloop
endfacet
facet normal 0.000000 -1.000000 0.000000
outer loop
vertex 10.000000 10.000000 10.000000
vertex 5.000000 10.000000 5.000000
vertex 10.000000 10.000000 5.000000
endloop
endfacet
facet normal 0.000000 -1.000000 -0.000000
outer loop
vertex 10.000000 9.999999 20.000000
vertex 5.000000 9.999999 20.000000
vertex 5.000000 10.000000 15.000000
endloop
endfacet
facet normal 0.000000 -1.000000 0.000000
outer loop
vertex 10.000000 9.999999 20.000000
vertex 5.000000 10.000000 15.000000
vertex 10.000000 10.000000 15.000000
endloop
endfacet
facet normal -0.000000 1.000000 0.000000
outer loop
vertex 5.000001 -10.000000 5.000000
vertex 10.000001 -9.999999 5.000000
vertex 10.000001 -10.000000 0.000000
endloop
endfacet
facet normal -0.000000 1.000000 0.000000
outer loop
vertex 5.000001 -10.000000 5.000000
vertex 10.000001 -10.000000 0.000000
vertex 5.000001 -10.000001 0.000000
endloop
endfacet
facet normal -0.000000 1.000000 0.000000
outer loop
vertex 5.000001 -10.000000 15.000000
vertex 10.000001 -9.999999 15.000000
vertex 10.000001 -9.999999 10.000000
endloop
endfacet
facet normal -0.000000 1.000000 0.000000
outer loop
vertex 5.000001 -10.000000 15.000000
vertex 10.000001 -9.999999 10.000000
vertex 5.000001 -10.000000 10.000000
endloop
endfacet
facet normal -0.000000 1.000000 0.000000
outer loop
vertex 5.000001 -10.000000 10.000000
vertex 10.000001 -9.999999 10.000000
vertex 10.000001 -9.999999 5.000000
endloop
endfacet
facet normal -0.000000 1.000000 0.000000
outer loop
vertex 5.000001 -10.000000 10.000000
vertex 10.000001 -9.999999 5.000000
vertex 5.000001 -10.000000 5.000000
endloop
endfacet
facet normal -0.000000 1.000000 -0.000000
outer loop
vertex 5.000001 -9.999999 20.000000
vertex 10.000001 -9.999998 20.000000
vertex 10.000001 -9.999999 15.000000
endloop
endfacet
facet normal -0.000000 1.000000 -0.000000
outer loop
vertex 5.000001 -9.999999 20.000000
vertex 10.000001 -9.999999 15.000000
vertex 5.000001 -10.000000 15.000000
endloop
endfacet
facet normal 0.000000 1.000000 -0.000000
outer loop
vertex -4.999999 -9.999999 20.000000
vertex 0.000001 -9.999999 20.000000
vertex 0.000001 -10.000000 15.000000
endloop
endfacet
facet normal 0.000000 1.000000 0.000000
outer loop
vertex -4.999999 -9.999999 20.000000
vertex 0.000001 -10.000000 15.000000
vertex -4.999999 -10.000000 15.000000
endloop
endfacet
facet normal 0.000000 1.000000 0.000000
outer loop
vertex -4.999999 -10.000000 10.000000
vertex 0.000001 -10.000000 10.000000
vertex 0.000001 -10.000000 5.000000
endloop
endfacet
facet normal 0.000000 1.000000 0.000000
outer loop
vertex -4.999999 -10.000000 10.000000
vertex 0.000001 -10.000000 5.000000
vertex -4.999999 -10.000000 5.000000
endloop
endfacet
facet normal 0.000000 1.000000 0.000000
outer loop
vertex -4.999999 -10.000000 15.000000
vertex 0.000001 -10.000000 15.000000
vertex 0.000001 -10.000000 10.000000
endloop
endfacet
facet normal 0.000000 1.000000 0.000000
outer loop
vertex -4.999999 -10.000000 15.000000
vertex 0.000001 -10.000000 10.000000
vertex -4.999999 -10.000000 10.000000
endloop
endfacet
facet normal 0.000000 1.000000 0.000000
outer loop
vertex -4.999999 -10.000000 5.000000
vertex 0.000001 -10.000000 5.000000
vertex 0.000001 -10.000001 0.000000
endloop
endfacet
facet normal 0.000000 1.000000 -0.000000
outer loop
vertex -4.999999 -10.000000 5.000000
vertex 0.000001 -10.000001 0.000000
vertex -4.999999 -10.000001 0.000000
endloop
endfacet
facet normal 0.000000 1.000000 -0.000000
outer loop
vertex 0.000001 -9.999999 20.000000
vertex 5.000001 -9.999999 20.000000
vertex 5.000001 -10.000000 15.000000
endloop
endfacet
facet normal 0.000000 1.000000 0.000000
outer loop
vertex 0.000001 -9.999999 20.000000
vertex 5.000001 -10.000000 15.000000
vertex 0.000001 -10.000000 15.000000
endloop
endfacet
facet normal 0.000000 1.000000 0.000000
outer loop
vertex 0.000001 -10.000000 10.000000
vertex 5.000001 -10.000000 10.000000
vertex 5.000001 -10.000000 5.000000
endloop
endfacet
facet normal 0.000000 1.000000 0.000000
outer loop
vertex 0.000001 -10.000000 10.000000
vertex 5.000001 -10.000000 5.000000
vertex 0.000001 -10.000000 5.000000
endloop
endfacet
facet normal 0.000000 1.000000 0.000000
outer loop
vertex 0.000001 -10.000000 15.000000
vertex 5.000001 -10.000000 15.000000
vertex 5.000001 -10.000000 10.000000
endloop
endfacet
facet normal 0.000000 1.000000 0.000000
outer loop
vertex 0.000001 -10.000000 15.000000
vertex 5.000001 -10.000000 10.000000
vertex 0.000001 -10.000000 10.000000
endloop
endfacet
facet normal 0.000000 1.000000 0.000000
outer loop
vertex 0.000001 -10.000000 5.000000
vertex 5.000001 -10.000000 5.000000
vertex 5.000001 -10.000001 0.000000
endloop
endfacet
facet normal 0.000000 1.000000 -0.000000
outer loop
vertex 0.000001 -10.000000 5.000000
vertex 5.000001 -10.000001 0.000000
vertex 0.000001 -10.000001 0.000000
endloop
endfacet
facet normal -0.000000 1.000000 -0.000000
outer loop
vertex -9.999999 -10.000001 5.000000
vertex -4.999999 -10.000000 5.000000
vertex -4.999999 -10.000001 0.000000
endloop
endfacet
facet normal -0.000000 1.000000 -0.000000
outer loop
vertex -9.999999 -10.000001 5.000000
vertex -4.999999 -10.000001 0.000000
vertex -9.999999 -10.000002 0.000000
endloop
endfacet
facet normal -0.000000 1.000000 0.000000
outer loop
vertex -9.999999 -10.000001 15.000000
vertex -4.999999 -10.000000 15.000000
vertex -4.999999 -10.000000 10.000000
endloop
endfacet
facet normal -0.000000 1.000000 0.000000
outer loop
vertex -9.999999 -10.000001 15.000000
vertex -4.999999 -10.000000 10.000000
vertex -9.999999 -10.000001 10.000000
endloop
endfacet
facet normal -0.000000 1.000000 0.000000
outer loop
vertex -9.999999 -10.000001 10.000000
vertex -4.999999 -10.000000 10.000000
vertex -4.999999 -10.000000 5.000000
endloop
endfacet
facet normal -0.000000 1.000000 0.000000
outer loop
vertex -9.999999 -10.000001 10.000000
vertex -4.999999 -10.000000 5.000000
vertex -9.999999 -10.000001 5.000000
endloop
endfacet
facet normal -0.000000 1.000000 0.000000
outer loop
vertex -9.999999 -10.000000 20.000000
vertex -4.999999 -9.999999 20.000000
vertex -4.999999 -10.000000 15.000000
endloop
endfacet
facet normal -0.000000 1.000000 0.000000
outer loop
vertex -9.999999 -10.000000 20.000000
vertex -4.999999 -10.000000 15.000000
vertex -9.999999 -10.000001 15.000000
endloop
endfacet
facet normal 0.000000 0.000000 -1.000000
outer loop
vertex 5.000000 -5.000000 20.000000
vertex 10.000000 -5.000000 20.000000
vertex 10.000000 -10.000000 19.999998
endloop
endfacet
facet normal 0.000000 0.000000 -1.000000
outer loop
vertex 5.000000 -5.000000 20.000000
vertex 10.000000 -10.000000 19.999998
vertex 5.000000 -10.000000 19.999998
endloop
endfacet
facet normal 0.000000 0.000000 -1.000000
outer loop
vertex -5.000000 -5.000000 20.000000
vertex 0.000000 -5.000000 20.000000
vertex 0.000000 -10.000000 19.999998
endloop
endfacet
facet normal 0.000000 0.000000 -1.000000
outer loop
vertex -5.000000 -5.000000 20.000000
vertex 0.000000 -10.000000 19.999998
vertex -5.000000 -10.000000 19.999998
endloop
endfacet
facet normal 0.000000 0.000000 -1.000000
outer loop
vertex 0.000000 -5.000000 20.000000
vertex 5.000000 -5.000000 20.000000
vertex 5.000000 -10.000000 19.999998
endloop
endfacet
facet normal 0.000000 0.000000 -1.000000
outer loop
vertex 0.000000 -5.000000 20.000000
vertex 5.000000 -10.000000 19.999998
vertex 0.000000 -10.000000 19.999998
endloop
endfacet
facet normal 0.000000 0.000000 -1.000000
outer loop
vertex -10.000000 -5.000000 20.000000
vertex -5.000000 -5.000000 20.000000
vertex -5.000000 -10.000000 19.999998
endloop
endfacet
facet normal 0.000000 0.000000 -1.000000
outer loop
vertex -10.000000 -5.000000 20.000000
vertex -5.000000 -10.000000 19.999998
vertex -10.000000 -10.000000 19.999998
endloop
endfacet
facet normal 0.000000 0.000000 -1.000000
outer loop
vertex -10.000000 5.000000 20.000000
vertex -5.000000 5.000000 20.000000
vertex -5.000000 0.000000 20.000000
endloop
endfacet
facet normal 0.000000 0.000000 -1.000000
outer loop
vertex -10.000000 5.000000 20.000000
vertex -5.000000 0.000000 20.000000
vertex -10.000000 0.000000 20.000000
endloop
endfacet
facet normal 0.000000 0.000000 -1.000000
outer loop
vertex 0.000000 5.000000 20.000000
vertex 5.000000 5.000000 20.000000
vertex 5.000000 0.000000 20.000000
endloop
endfacet
facet normal 0.000000 0.000000 -1.000000
outer loop
vertex 0.000000 5.000000 20.000000
vertex 5.000000 0.000000 20.000000
vertex 0.000000 0.000000 20.000000
endloop
endfacet
facet normal 0.000000 0.000000 -1.000000
outer loop
vertex -5.000000 5.000000 20.000000
vertex 0.000000 5.000000 20.000000
vertex 0.000000 0.000000 20.000000
endloop
endfacet
facet normal 0.000000 0.000000 -1.000000
outer loop
vertex -5.000000 5.000000 20.000000
vertex 0.000000 0.000000 20.000000
vertex -5.000000 0.000000 20.000000
endloop
endfacet
facet normal 0.000000 0.000000 -1.000000
outer loop
vertex 5.000000 5.000000 20.000000
vertex 10.000000 5.000000 20.000000
vertex 10.000000 0.000000 20.000000
endloop
endfacet
facet normal 0.000000 0.000000 -1.000000
outer loop
vertex 5.000000 5.000000 20.000000
vertex 10.000000 0.000000 20.000000
vertex 5.000000 0.000000 20.000000
endloop
endfacet
facet normal 0.000000 0.000000 -1.000000
outer loop
vertex -10.000000 0.000000 20.000000
vertex -5.000000 0.000000 20.000000
vertex -5.000000 -5.000000 20.000000
endloop
endfacet
facet normal 0.000000 0.000000 -1.000000
outer loop
vertex -10.000000 0.000000 20.000000
vertex -5.000000 -5.000000 20.000000
vertex -10.000000 -5.000000 20.000000
endloop
endfacet
facet normal 0.000000 0.000000 -1.000000
outer loop
vertex 0.000000 0.000000 20.000000
vertex 5.000000 0.000000 20.000000
vertex 5.000000 -5.000000 20.000000
endloop
endfacet
facet normal 0.000000 0.000000 -1.000000
outer loop
vertex 0.000000 0.000000 20.000000
vertex 5.000000 -5.000000 20.000000
vertex 0.000000 -5.000000 20.000000
endloop
endfacet
facet normal 0.000000 0.000000 -1.000000
outer loop
vertex -5.000000 0.000000 20.000000
vertex 0.000000 0.000000 20.000000
vertex 0.000000 -5.000000 20.000000
endloop
endfacet
facet normal 0.000000 0.000000 -1.000000
outer loop
vertex -5.000000 0.000000 20.000000
vertex 0.000000 -5.000000 20.000000
vertex -5.000000 -5.000000 20.000000
endloop
endfacet
facet normal 0.000000 0.000000 -1.000000
outer loop
vertex 5.000000 0.000000 20.000000
vertex 10.000000 0.000000 20.000000
vertex 10.000000 -5.000000 20.000000
endloop
endfacet
facet normal 0.000000 0.000000 -1.000000
outer loop
vertex 5.000000 0.000000 20.000000
vertex 10.000000 -5.000000 20.000000
vertex 5.000000 -5.000000 20.000000
endloop
endfacet
facet normal 0.000000 0.000000 -1.000000
outer loop
vertex 5.000000 10.000000 20.000002
vertex 10.000000 10.000000 20.000002
vertex 10.000000 5.000000 20.000000
endloop
endfacet
facet normal 0.000000 0.000000 -1.000000
outer loop
vertex 5.000000 10.000000 20.000002
vertex 10.000000 5.000000 20.000000
vertex 5.000000 5.000000 20.000000
endloop
endfacet
facet normal 0.000000 0.000000 -1.000000
outer loop
vertex -5.000000 10.000000 20.000002
vertex 0.000000 10.000000 20.000002
vertex 0.000000 5.000000 20.000000
endloop
endfacet
facet normal 0.000000 0.000000 -1.000000
outer loop
vertex -5.000000 10.000000 20.000002
vertex 0.000000 5.000000 20.000000
vertex -5.000000 5.000000 20.000000
endloop
endfacet
facet normal 0.000000 0.000000 -1.000000
outer loop
vertex 0.000000 10.000000 20.000002
vertex 5.000000 10.000000 20.000002
vertex 5.000000 5.000000 20.000000
endloop
endfacet
facet normal 0.000000 0.000000 -1.000000
outer loop
vertex 0.000000 10.000000 20.000002
vertex 5.000000 5.000000 20.000000
vertex 0.000000 5.000000 20.000000
endloop
endfacet
facet normal 0.000000 0.000000 -1.000000
outer loop
vertex -10.000000 10.000000 20.000002
vertex -5.000000 10.000000 20.000002
vertex -5.000000 5.000000 20.000000
endloop
endfacet
facet normal 0.000000 0.000000 -1.000000
outer loop
vertex -10.000000 10.000000 20.000002
vertex -5.000000 5.000000 20.000000
vertex -10.000000 5.000000 20.000000
endloop
endfacet
endsolid Exported from Blender-3.1.0
