solid Exported from Blender-3.1.0
facet normal -0.442276 0.165853 0.881410
outer loop
vertex -0.228502 0.000000 1.538651
vertex -0.182801 0.121868 1.538651
vertex -0.352303 0.080000 1.461476
endloop
endfacet
facet normal -0.529007 0.000000 0.848617
outer loop
vertex -0.228502 0.000000 1.538651
vertex -0.352303 0.080000 1.461476
vertex -0.352303 0.000000 1.461476
endloop
endfacet
facet normal 0.204204 0.978928 0.000000
outer loop
vertex 0.000000 0.160000 1.333196
vertex 0.000000 0.160000 1.538651
vertex 0.182801 0.121868 1.538651
endloop
endfacet
facet normal 0.000000 0.983209 0.182484
outer loop
vertex 0.000000 0.160000 1.333196
vertex 0.182801 0.121868 1.538651
vertex 0.240000 0.160000 1.333196
endloop
endfacet
facet normal 0.454991 -0.170622 0.873997
outer loop
vertex 0.228502 0.000000 1.538651
vertex 0.182801 -0.121868 1.538651
vertex 0.355687 -0.080000 1.456822
endloop
endfacet
facet normal 0.541070 0.000000 0.840978
outer loop
vertex 0.228502 0.000000 1.538651
vertex 0.355687 -0.080000 1.456822
vertex 0.355687 0.000000 1.456822
endloop
endfacet
facet normal -0.204204 -0.978928 0.000000
outer loop
vertex 0.000000 -0.160000 1.333196
vertex 0.000000 -0.160000 1.538651
vertex -0.182801 -0.121868 1.538651
endloop
endfacet
facet normal 0.000000 -0.983209 0.182484
outer loop
vertex 0.000000 -0.160000 1.333196
vertex -0.182801 -0.121868 1.538651
vertex -0.240000 -0.160000 1.333196
endloop
endfacet
facet normal 0.000000 0.999561 0.029630
outer loop
vertex -0.216000 0.118572 0.938650
vertex 0.000000 0.118572 0.938650
vertex 0.000000 0.119758 0.898651
endloop
endfacet
facet normal 0.000000 0.999561 0.029630
outer loop
vertex -0.216000 0.118572 0.938650
vertex 0.000000 0.119758 0.898651
vertex -0.218160 0.119758 0.898651
endloop
endfacet
facet normal 0.093222 -0.446891 0.889718
outer loop
vertex 0.000000 -0.160000 1.538651
vertex 0.182801 -0.121868 1.538651
vertex 0.090231 -0.079165 1.569798
endloop
endfacet
facet normal 0.000000 -0.359559 0.933123
outer loop
vertex 0.000000 -0.160000 1.538651
vertex 0.090231 -0.079165 1.569798
vertex 0.000000 -0.079165 1.569798
endloop
endfacet
facet normal 0.000000 -0.994532 -0.104428
outer loop
vertex 0.000000 -0.118572 0.938650
vertex 0.000000 -0.160000 1.333196
vertex -0.240000 -0.160000 1.333196
endloop
endfacet
facet normal 0.000000 -0.994532 -0.104428
outer loop
vertex 0.000000 -0.118572 0.938650
vertex -0.240000 -0.160000 1.333196
vertex -0.216000 -0.118572 0.938650
endloop
endfacet
facet normal 0.998155 0.000000 -0.060717
outer loop
vertex 0.216000 0.000000 0.938650
vertex 0.240000 0.000000 1.333196
vertex 0.240000 -0.160000 1.333196
endloop
endfacet
facet normal 0.998155 0.000000 -0.060717
outer loop
vertex 0.216000 0.000000 0.938650
vertex 0.240000 -0.160000 1.333196
vertex 0.216000 -0.118572 0.938650
endloop
endfacet
facet normal 0.000000 0.994532 -0.104428
outer loop
vertex 0.000000 0.118572 0.938650
vertex 0.000000 0.160000 1.333196
vertex 0.240000 0.160000 1.333196
endloop
endfacet
facet normal 0.000000 0.994532 -0.104428
outer loop
vertex 0.000000 0.118572 0.938650
vertex 0.240000 0.160000 1.333196
vertex 0.216000 0.118572 0.938650
endloop
endfacet
facet normal -0.998155 0.000000 -0.060717
outer loop
vertex -0.216000 0.000000 0.938650
vertex -0.240000 0.000000 1.333196
vertex -0.240000 0.160000 1.333196
endloop
endfacet
facet normal -0.998155 0.000000 -0.060717
outer loop
vertex -0.216000 0.000000 0.938650
vertex -0.240000 0.160000 1.333196
vertex -0.216000 0.118572 0.938650
endloop
endfacet
facet normal 0.000000 0.994532 -0.104428
outer loop
vertex -0.216000 0.118572 0.938650
vertex -0.240000 0.160000 1.333196
vertex 0.000000 0.160000 1.333196
endloop
endfacet
facet normal 0.000000 0.994532 -0.104428
outer loop
vertex -0.216000 0.118572 0.938650
vertex 0.000000 0.160000 1.333196
vertex 0.000000 0.118572 0.938650
endloop
endfacet
facet normal 0.000000 -0.994532 -0.104428
outer loop
vertex 0.216000 -0.118572 0.938650
vertex 0.240000 -0.160000 1.333196
vertex 0.000000 -0.160000 1.333196
endloop
endfacet
facet normal 0.000000 -0.994532 -0.104428
outer loop
vertex 0.216000 -0.118572 0.938650
vertex 0.000000 -0.160000 1.333196
vertex 0.000000 -0.118572 0.938650
endloop
endfacet
facet normal 0.072712 0.348574 0.934457
outer loop
vertex 0.182801 0.121868 1.538651
vertex 0.000000 0.160000 1.538651
vertex 0.000000 0.076499 1.569798
endloop
endfacet
facet normal 0.000000 0.565995 0.824409
outer loop
vertex 0.182801 0.121868 1.538651
vertex 0.000000 0.076499 1.569798
vertex 0.090231 0.076499 1.569798
endloop
endfacet
facet normal 0.000000 -0.999561 0.029630
outer loop
vertex 0.216000 -0.118572 0.938650
vertex 0.000000 -0.118572 0.938650
vertex 0.000000 -0.119758 0.898651
endloop
endfacet
facet normal 0.000000 -0.999561 0.029630
outer loop
vertex 0.216000 -0.118572 0.938650
vertex 0.000000 -0.119758 0.898651
vertex 0.218160 -0.119758 0.898651
endloop
endfacet
facet normal 0.198631 -0.952212 0.232030
outer loop
vertex 0.240000 -0.160000 1.333196
vertex 0.182801 -0.121868 1.538651
vertex 0.000000 -0.160000 1.538651
endloop
endfacet
facet normal 0.000000 -1.000000 0.000000
outer loop
vertex 0.240000 -0.160000 1.333196
vertex 0.000000 -0.160000 1.538651
vertex 0.000000 -0.160000 1.333196
endloop
endfacet
facet normal -0.198631 0.952212 0.232030
outer loop
vertex -0.240000 0.160000 1.333196
vertex -0.182801 0.121868 1.538651
vertex 0.000000 0.160000 1.538651
endloop
endfacet
facet normal 0.000000 1.000000 0.000000
outer loop
vertex -0.240000 0.160000 1.333196
vertex 0.000000 0.160000 1.538651
vertex 0.000000 0.160000 1.333196
endloop
endfacet
facet normal 0.882359 0.000000 -0.470577
outer loop
vertex 0.240000 0.000000 1.333196
vertex 0.240000 0.160000 1.333196
vertex 0.260848 0.096000 1.372287
endloop
endfacet
facet normal 0.882359 0.000000 -0.470577
outer loop
vertex 0.240000 0.000000 1.333196
vertex 0.260848 0.096000 1.372287
vertex 0.260848 0.000000 1.372287
endloop
endfacet
facet normal 0.827961 -0.462980 0.316433
outer loop
vertex 0.182801 -0.121868 1.538651
vertex 0.240000 -0.160000 1.333196
vertex 0.260848 -0.096000 1.372287
endloop
endfacet
facet normal 0.211483 -0.975969 -0.052538
outer loop
vertex 0.182801 -0.121868 1.538651
vertex 0.260848 -0.096000 1.372287
vertex 0.355687 -0.080000 1.456822
endloop
endfacet
facet normal 0.827961 0.462980 0.316433
outer loop
vertex 0.240000 0.160000 1.333196
vertex 0.182801 0.121868 1.538651
vertex 0.260848 0.096000 1.372287
endloop
endfacet
facet normal 0.211483 0.975969 -0.052538
outer loop
vertex 0.182801 0.121868 1.538651
vertex 0.355687 0.080000 1.456822
vertex 0.260848 0.096000 1.372287
endloop
endfacet
facet normal -0.817951 0.480176 0.316838
outer loop
vertex -0.182801 0.121868 1.538651
vertex -0.240000 0.160000 1.333196
vertex -0.264232 0.096000 1.367633
endloop
endfacet
facet normal -0.221587 0.974242 -0.041852
outer loop
vertex -0.182801 0.121868 1.538651
vertex -0.264232 0.096000 1.367633
vertex -0.352303 0.080000 1.461476
endloop
endfacet
facet normal -0.817951 -0.480176 0.316838
outer loop
vertex -0.240000 -0.160000 1.333196
vertex -0.182801 -0.121868 1.538651
vertex -0.264232 -0.096000 1.367633
endloop
endfacet
facet normal -0.221587 -0.974242 -0.041852
outer loop
vertex -0.182801 -0.121868 1.538651
vertex -0.352303 -0.080000 1.461476
vertex -0.264232 -0.096000 1.367633
endloop
endfacet
facet normal -0.817825 0.000000 -0.575467
outer loop
vertex -0.240000 0.000000 1.333196
vertex -0.240000 -0.160000 1.333196
vertex -0.264232 -0.096000 1.367633
endloop
endfacet
facet normal -0.817825 0.000000 -0.575467
outer loop
vertex -0.240000 0.000000 1.333196
vertex -0.264232 -0.096000 1.367633
vertex -0.264232 0.000000 1.367633
endloop
endfacet
facet normal 0.951138 0.000000 0.308766
outer loop
vertex 0.090231 -0.001333 1.569798
vertex 0.090231 0.076499 1.569798
vertex 0.076696 0.063548 1.611491
endloop
endfacet
facet normal 0.951139 0.000000 0.308764
outer loop
vertex 0.090231 -0.001333 1.569798
vertex 0.076696 0.063548 1.611491
vertex 0.076696 -0.002609 1.611491
endloop
endfacet
facet normal 0.000000 0.954990 0.296638
outer loop
vertex 0.000000 0.076499 1.569798
vertex -0.090231 0.076499 1.569798
vertex -0.076696 0.063548 1.611491
endloop
endfacet
facet normal 0.000000 0.954990 0.296638
outer loop
vertex 0.000000 0.076499 1.569798
vertex -0.076696 0.063548 1.611491
vertex 0.000000 0.063548 1.611491
endloop
endfacet
facet normal -0.090139 0.432118 0.897301
outer loop
vertex 0.000000 0.160000 1.538651
vertex -0.182801 0.121868 1.538651
vertex -0.090231 0.076499 1.569798
endloop
endfacet
facet normal 0.000000 0.349499 0.936937
outer loop
vertex 0.000000 0.160000 1.538651
vertex -0.090231 0.076499 1.569798
vertex 0.000000 0.076499 1.569798
endloop
endfacet
facet normal 0.271981 0.101993 0.956882
outer loop
vertex 0.228502 0.000000 1.538651
vertex 0.182801 0.121868 1.538651
vertex 0.090231 0.076499 1.569798
endloop
endfacet
facet normal 0.219759 0.000000 0.975554
outer loop
vertex 0.228502 0.000000 1.538651
vertex 0.090231 0.076499 1.569798
vertex 0.090231 -0.001333 1.569798
endloop
endfacet
facet normal -0.274272 -0.102852 0.956136
outer loop
vertex -0.228502 0.000000 1.538651
vertex -0.182801 -0.121868 1.538651
vertex -0.090231 -0.079165 1.569798
endloop
endfacet
facet normal -0.219758 0.000000 0.975554
outer loop
vertex -0.228502 0.000000 1.538651
vertex -0.090231 -0.079165 1.569798
vertex -0.090231 -0.001333 1.569798
endloop
endfacet
facet normal -0.074794 -0.358552 0.930509
outer loop
vertex -0.182801 -0.121868 1.538651
vertex 0.000000 -0.160000 1.538651
vertex 0.000000 -0.079165 1.569798
endloop
endfacet
facet normal 0.000000 -0.589306 0.807910
outer loop
vertex -0.182801 -0.121868 1.538651
vertex 0.000000 -0.079165 1.569798
vertex -0.090231 -0.079165 1.569798
endloop
endfacet
facet normal -0.996427 0.000000 -0.084463
outer loop
vertex -0.076696 -0.002609 1.611491
vertex -0.076696 -0.068766 1.611491
vertex -0.079192 -0.079270 1.640929
endloop
endfacet
facet normal -0.557691 -0.281674 -0.780795
outer loop
vertex -0.076696 -0.002609 1.611491
vertex -0.079192 -0.079270 1.640929
vertex -0.090115 0.011933 1.615829
endloop
endfacet
facet normal 0.980464 0.000000 -0.196701
outer loop
vertex 0.076696 -0.002609 1.611491
vertex 0.076696 0.063548 1.611491
vertex 0.079192 0.062945 1.623929
endloop
endfacet
facet normal 0.119791 0.180664 -0.976223
outer loop
vertex 0.076696 -0.002609 1.611491
vertex 0.079192 0.062945 1.623929
vertex 0.090115 0.011933 1.615829
endloop
endfacet
facet normal -0.951138 0.000000 0.308766
outer loop
vertex -0.090231 -0.001333 1.569798
vertex -0.090231 -0.079165 1.569798
vertex -0.076696 -0.068766 1.611491
endloop
endfacet
facet normal -0.951138 0.000000 0.308766
outer loop
vertex -0.090231 -0.001333 1.569798
vertex -0.076696 -0.068766 1.611491
vertex -0.076696 -0.002609 1.611491
endloop
endfacet
facet normal 0.000000 -0.970274 0.242008
outer loop
vertex 0.000000 -0.079165 1.569798
vertex 0.090231 -0.079165 1.569798
vertex 0.076696 -0.068766 1.611491
endloop
endfacet
facet normal 0.000000 -0.970274 0.242008
outer loop
vertex 0.000000 -0.079165 1.569798
vertex 0.076696 -0.068766 1.611491
vertex 0.000000 -0.068766 1.611491
endloop
endfacet
facet normal 0.000000 -0.970274 0.242008
outer loop
vertex -0.090231 -0.079165 1.569798
vertex 0.000000 -0.079165 1.569798
vertex 0.000000 -0.068766 1.611491
endloop
endfacet
facet normal 0.000000 -0.970274 0.242008
outer loop
vertex -0.090231 -0.079165 1.569798
vertex 0.000000 -0.068766 1.611491
vertex -0.076696 -0.068766 1.611491
endloop
endfacet
facet normal 0.000000 0.954990 0.296638
outer loop
vertex 0.090231 0.076499 1.569798
vertex 0.000000 0.076499 1.569798
vertex 0.000000 0.063548 1.611491
endloop
endfacet
facet normal 0.000000 0.954990 0.296638
outer loop
vertex 0.090231 0.076499 1.569798
vertex 0.000000 0.063548 1.611491
vertex 0.076696 0.063548 1.611491
endloop
endfacet
facet normal 0.225466 0.937761 -0.264138
outer loop
vertex 0.079192 0.062945 1.623929
vertex 0.000000 0.081985 1.623929
vertex 0.000000 0.113691 1.736495
endloop
endfacet
facet normal 0.216244 0.938046 -0.270754
outer loop
vertex 0.079192 0.062945 1.623929
vertex 0.000000 0.113691 1.736495
vertex 0.118974 0.086264 1.736495
endloop
endfacet
facet normal -0.192401 -0.899340 -0.392645
outer loop
vertex -0.079192 -0.079270 1.640929
vertex 0.000000 -0.088790 1.623929
vertex 0.000000 -0.144964 1.752594
endloop
endfacet
facet normal -0.113188 -0.889369 -0.442958
outer loop
vertex -0.079192 -0.079270 1.640929
vertex 0.000000 -0.144964 1.752594
vertex -0.085662 -0.133565 1.751597
endloop
endfacet
facet normal 0.000000 -0.941846 -0.336044
outer loop
vertex 0.000000 -0.068766 1.611491
vertex 0.076696 -0.068766 1.611491
vertex 0.079192 -0.079270 1.640929
endloop
endfacet
facet normal 0.238680 -0.512410 -0.824905
outer loop
vertex 0.000000 -0.068766 1.611491
vertex 0.079192 -0.079270 1.640929
vertex 0.000000 -0.088790 1.623929
endloop
endfacet
facet normal 0.000000 -0.527660 -0.849455
outer loop
vertex -0.076696 -0.068766 1.611491
vertex 0.000000 -0.068766 1.611491
vertex 0.000000 -0.088790 1.623929
endloop
endfacet
facet normal -0.184541 -0.920615 -0.344112
outer loop
vertex -0.076696 -0.068766 1.611491
vertex 0.000000 -0.088790 1.623929
vertex -0.079192 -0.079270 1.640929
endloop
endfacet
facet normal 0.000000 0.559265 -0.828989
outer loop
vertex 0.076696 0.063548 1.611491
vertex 0.000000 0.063548 1.611491
vertex 0.000000 0.081985 1.623929
endloop
endfacet
facet normal 0.233763 0.972293 0.000271
outer loop
vertex 0.076696 0.063548 1.611491
vertex 0.000000 0.081985 1.623929
vertex 0.079192 0.062945 1.623929
endloop
endfacet
facet normal 0.000000 0.998825 0.048459
outer loop
vertex 0.000000 0.063548 1.611491
vertex -0.076696 0.063548 1.611491
vertex -0.079192 0.062945 1.623929
endloop
endfacet
facet normal -0.133262 0.554276 -0.821595
outer loop
vertex 0.000000 0.063548 1.611491
vertex -0.079192 0.062945 1.623929
vertex 0.000000 0.081985 1.623929
endloop
endfacet
facet normal -0.132397 -0.987425 0.086388
outer loop
vertex -0.085662 -0.133565 1.751597
vertex 0.000000 -0.144964 1.752594
vertex 0.000000 -0.137009 1.843518
endloop
endfacet
facet normal -0.204726 -0.966537 0.154575
outer loop
vertex -0.085662 -0.133565 1.751597
vertex 0.000000 -0.137009 1.843518
vertex -0.085662 -0.119092 1.842096
endloop
endfacet
facet normal 0.132066 -0.978803 0.156537
outer loop
vertex 0.000000 -0.144964 1.752594
vertex 0.085662 -0.133565 1.751597
vertex 0.085662 -0.119092 1.842096
endloop
endfacet
facet normal 0.205339 -0.974967 0.085299
outer loop
vertex 0.000000 -0.144964 1.752594
vertex 0.085662 -0.119092 1.842096
vertex 0.000000 -0.137009 1.843518
endloop
endfacet
facet normal -0.224873 0.935294 -0.273233
outer loop
vertex 0.000000 0.081985 1.623929
vertex -0.079192 0.062945 1.623929
vertex -0.118974 0.086264 1.736495
endloop
endfacet
facet normal -0.216622 0.939691 -0.264681
outer loop
vertex 0.000000 0.081985 1.623929
vertex -0.118974 0.086264 1.736495
vertex 0.000000 0.113691 1.736495
endloop
endfacet
facet normal 0.895407 0.250218 -0.368290
outer loop
vertex 0.090115 0.011933 1.615829
vertex 0.079192 0.062945 1.623929
vertex 0.118974 0.086264 1.736495
endloop
endfacet
facet normal 0.944965 0.124362 -0.302614
outer loop
vertex 0.090115 0.011933 1.615829
vertex 0.118974 0.086264 1.736495
vertex 0.128921 0.011152 1.736686
endloop
endfacet
facet normal -0.979152 -0.153795 -0.132700
outer loop
vertex -0.090115 0.011933 1.615829
vertex -0.079192 -0.079270 1.640929
vertex -0.085662 -0.133565 1.751597
endloop
endfacet
facet normal -0.907272 -0.301419 -0.293264
outer loop
vertex -0.090115 0.011933 1.615829
vertex -0.085662 -0.133565 1.751597
vertex -0.128921 0.011152 1.736686
endloop
endfacet
facet normal 0.199851 -0.874989 -0.440970
outer loop
vertex 0.000000 -0.088790 1.623929
vertex 0.079192 -0.079270 1.640929
vertex 0.085662 -0.133565 1.751597
endloop
endfacet
facet normal 0.116491 -0.910223 -0.397396
outer loop
vertex 0.000000 -0.088790 1.623929
vertex 0.085662 -0.133565 1.751597
vertex 0.000000 -0.144964 1.752594
endloop
endfacet
facet normal 0.800950 0.113816 0.587813
outer loop
vertex 0.128921 0.011674 1.837864
vertex 0.118974 0.082003 1.837799
vertex 0.085209 0.053267 1.889371
endloop
endfacet
facet normal 0.811467 0.155020 0.563463
outer loop
vertex 0.128921 0.011674 1.837864
vertex 0.085209 0.053267 1.889371
vertex 0.089470 0.012165 1.894543
endloop
endfacet
facet normal -0.177158 0.805844 0.565005
outer loop
vertex 0.000000 0.108158 1.837799
vertex -0.118974 0.082003 1.837799
vertex -0.085209 0.053267 1.889371
endloop
endfacet
facet normal -0.152329 0.791968 0.591255
outer loop
vertex 0.000000 0.108158 1.837799
vertex -0.085209 0.053267 1.889371
vertex 0.000000 0.069657 1.889371
endloop
endfacet
facet normal 0.224317 0.973066 0.053145
outer loop
vertex 0.118974 0.086264 1.736495
vertex 0.000000 0.113691 1.736495
vertex 0.000000 0.108158 1.837799
endloop
endfacet
facet normal 0.214532 0.975854 0.041050
outer loop
vertex 0.118974 0.086264 1.736495
vertex 0.000000 0.108158 1.837799
vertex 0.118974 0.082003 1.837799
endloop
endfacet
facet normal -0.224446 0.973626 0.040956
outer loop
vertex 0.000000 0.113691 1.736495
vertex -0.118974 0.086264 1.736495
vertex -0.118974 0.082003 1.837799
endloop
endfacet
facet normal -0.214408 0.975291 0.053266
outer loop
vertex 0.000000 0.113691 1.736495
vertex -0.118974 0.082003 1.837799
vertex 0.000000 0.108158 1.837799
endloop
endfacet
facet normal 0.991329 0.131284 0.005523
outer loop
vertex 0.128921 0.011152 1.736686
vertex 0.118974 0.086264 1.736495
vertex 0.118974 0.082003 1.837799
endloop
endfacet
facet normal 0.990147 0.140030 -0.000723
outer loop
vertex 0.128921 0.011152 1.736686
vertex 0.118974 0.082003 1.837799
vertex 0.128921 0.011674 1.837864
endloop
endfacet
facet normal -0.958401 -0.281842 0.045074
outer loop
vertex -0.128921 0.011152 1.736686
vertex -0.085662 -0.133565 1.751597
vertex -0.085662 -0.119092 1.842096
endloop
endfacet
facet normal -0.949413 -0.314025 0.001620
outer loop
vertex -0.128921 0.011152 1.736686
vertex -0.085662 -0.119092 1.842096
vertex -0.128921 0.011674 1.837864
endloop
endfacet
facet normal -0.132251 -0.188502 0.973127
outer loop
vertex 0.000000 -0.004533 1.903468
vertex -0.089470 0.012165 1.894543
vertex -0.085209 -0.069150 1.879371
endloop
endfacet
facet normal -0.132327 -0.188410 0.973135
outer loop
vertex 0.000000 -0.004533 1.903468
vertex -0.085209 -0.069150 1.879371
vertex 0.000000 -0.077345 1.889371
endloop
endfacet
facet normal 0.132235 -0.188413 0.973147
outer loop
vertex 0.089470 0.012165 1.894543
vertex 0.000000 -0.004533 1.903468
vertex 0.000000 -0.077345 1.889371
endloop
endfacet
facet normal 0.132338 -0.188504 0.973115
outer loop
vertex 0.089470 0.012165 1.894543
vertex 0.000000 -0.077345 1.889371
vertex 0.085209 -0.069150 1.879371
endloop
endfacet
facet normal -0.880187 -0.278748 0.384150
outer loop
vertex -0.128921 0.011674 1.837864
vertex -0.085662 -0.119092 1.842096
vertex -0.085209 -0.069150 1.879371
endloop
endfacet
facet normal -0.811108 -0.148076 0.565842
outer loop
vertex -0.128921 0.011674 1.837864
vertex -0.085209 -0.069150 1.879371
vertex -0.089470 0.012165 1.894543
endloop
endfacet
facet normal 0.136949 -0.591701 0.794440
outer loop
vertex 0.000000 -0.137009 1.843518
vertex 0.085662 -0.119092 1.842096
vertex 0.085209 -0.069150 1.879371
endloop
endfacet
facet normal 0.149943 -0.602465 0.783935
outer loop
vertex 0.000000 -0.137009 1.843518
vertex 0.085209 -0.069150 1.879371
vertex 0.000000 -0.077345 1.889371
endloop
endfacet
facet normal -0.139249 -0.603417 0.785174
outer loop
vertex -0.085662 -0.119092 1.842096
vertex 0.000000 -0.137009 1.843518
vertex 0.000000 -0.077345 1.889371
endloop
endfacet
facet normal -0.149854 -0.590508 0.792997
outer loop
vertex -0.085662 -0.119092 1.842096
vertex 0.000000 -0.077345 1.889371
vertex -0.085209 -0.069150 1.879371
endloop
endfacet
facet normal 0.173492 0.789168 0.589165
outer loop
vertex 0.118974 0.082003 1.837799
vertex 0.000000 0.108158 1.837799
vertex 0.000000 0.069657 1.889371
endloop
endfacet
facet normal 0.156856 0.815501 0.557094
outer loop
vertex 0.118974 0.082003 1.837799
vertex 0.000000 0.069657 1.889371
vertex 0.085209 0.053267 1.889371
endloop
endfacet
facet normal -0.970188 0.000000 -0.242354
outer loop
vertex 0.000000 0.000000 0.898651
vertex 0.000000 0.119758 0.898651
vertex 0.010908 0.107782 0.854984
endloop
endfacet
facet normal -0.970188 0.000000 -0.242354
outer loop
vertex 0.000000 0.000000 0.898651
vertex 0.010908 0.107782 0.854984
vertex 0.010908 0.000000 0.854984
endloop
endfacet
facet normal 0.000000 -0.964389 -0.264488
outer loop
vertex 0.000000 -0.119758 0.898651
vertex -0.218160 -0.119758 0.898651
vertex -0.207252 -0.107782 0.854984
endloop
endfacet
facet normal 0.000000 -0.964389 -0.264487
outer loop
vertex 0.000000 -0.119758 0.898651
vertex -0.207252 -0.107782 0.854984
vertex -0.010908 -0.107782 0.854984
endloop
endfacet
facet normal 0.000000 -0.999561 0.029630
outer loop
vertex 0.000000 -0.118572 0.938650
vertex -0.216000 -0.118572 0.938650
vertex -0.218160 -0.119758 0.898651
endloop
endfacet
facet normal 0.000000 -0.999561 0.029630
outer loop
vertex 0.000000 -0.118572 0.938650
vertex -0.218160 -0.119758 0.898651
vertex 0.000000 -0.119758 0.898651
endloop
endfacet
facet normal -0.998545 0.000000 0.053921
outer loop
vertex -0.216000 0.000000 0.938650
vertex -0.216000 0.118572 0.938650
vertex -0.218160 0.119758 0.898651
endloop
endfacet
facet normal -0.998545 0.000000 0.053921
outer loop
vertex -0.216000 0.000000 0.938650
vertex -0.218160 0.119758 0.898651
vertex -0.218160 0.000000 0.898651
endloop
endfacet
facet normal 0.000000 0.999561 0.029630
outer loop
vertex 0.000000 0.118572 0.938650
vertex 0.216000 0.118572 0.938650
vertex 0.218160 0.119758 0.898651
endloop
endfacet
facet normal 0.000000 0.999561 0.029630
outer loop
vertex 0.000000 0.118572 0.938650
vertex 0.218160 0.119758 0.898651
vertex 0.000000 0.119758 0.898651
endloop
endfacet
facet normal 0.998545 0.000000 0.053921
outer loop
vertex 0.216000 0.000000 0.938650
vertex 0.216000 -0.118572 0.938650
vertex 0.218160 -0.119758 0.898651
endloop
endfacet
facet normal 0.998545 0.000000 0.053921
outer loop
vertex 0.216000 0.000000 0.938650
vertex 0.218160 -0.119758 0.898651
vertex 0.218160 0.000000 0.898651
endloop
endfacet
facet normal 0.000000 -0.999342 -0.036266
outer loop
vertex -0.010908 -0.107782 0.854984
vertex -0.207252 -0.107782 0.854984
vertex -0.184224 -0.093893 0.472254
endloop
endfacet
facet normal 0.000000 -0.999342 -0.036266
outer loop
vertex -0.010908 -0.107782 0.854984
vertex -0.184224 -0.093893 0.472254
vertex -0.009696 -0.093893 0.472254
endloop
endfacet
facet normal 0.000000 0.964389 -0.264488
outer loop
vertex -0.218160 0.119758 0.898651
vertex 0.000000 0.119758 0.898651
vertex -0.010908 0.107782 0.854984
endloop
endfacet
facet normal 0.000000 0.964389 -0.264487
outer loop
vertex -0.218160 0.119758 0.898651
vertex -0.010908 0.107782 0.854984
vertex -0.207252 0.107782 0.854984
endloop
endfacet
facet normal 0.970188 0.000000 -0.242354
outer loop
vertex 0.000000 0.000000 0.898651
vertex 0.000000 -0.119758 0.898651
vertex -0.010908 -0.107782 0.854984
endloop
endfacet
facet normal 0.970188 0.000000 -0.242354
outer loop
vertex 0.000000 0.000000 0.898651
vertex -0.010908 -0.107782 0.854984
vertex -0.010908 0.000000 0.854984
endloop
endfacet
facet normal -0.970188 0.000000 -0.242354
outer loop
vertex -0.218160 0.000000 0.898651
vertex -0.218160 0.119758 0.898651
vertex -0.207252 0.107782 0.854984
endloop
endfacet
facet normal -0.970188 0.000000 -0.242354
outer loop
vertex -0.218160 0.000000 0.898651
vertex -0.207252 0.107782 0.854984
vertex -0.207252 0.000000 0.854984
endloop
endfacet
facet normal -0.999994 0.000000 0.003594
outer loop
vertex 0.010908 0.000000 0.854984
vertex 0.010908 0.107782 0.854984
vertex 0.009696 0.089442 0.517714
endloop
endfacet
facet normal -0.999994 -0.000836 0.003372
outer loop
vertex 0.010908 0.000000 0.854984
vertex 0.009696 0.089442 0.517714
vertex 0.009696 -0.002225 0.494984
endloop
endfacet
facet normal 0.000000 0.964389 -0.264488
outer loop
vertex 0.000000 0.119758 0.898651
vertex 0.218160 0.119758 0.898651
vertex 0.207252 0.107782 0.854984
endloop
endfacet
facet normal 0.000000 0.964389 -0.264487
outer loop
vertex 0.000000 0.119758 0.898651
vertex 0.207252 0.107782 0.854984
vertex 0.010908 0.107782 0.854984
endloop
endfacet
facet normal 0.970188 0.000000 -0.242354
outer loop
vertex 0.218160 0.000000 0.898651
vertex 0.218160 -0.119758 0.898651
vertex 0.207252 -0.107782 0.854984
endloop
endfacet
facet normal 0.970188 0.000000 -0.242354
outer loop
vertex 0.218160 0.000000 0.898651
vertex 0.207252 -0.107782 0.854984
vertex 0.207252 0.000000 0.854984
endloop
endfacet
facet normal 0.000000 -0.964389 -0.264488
outer loop
vertex 0.218160 -0.119758 0.898651
vertex 0.000000 -0.119758 0.898651
vertex 0.010908 -0.107782 0.854984
endloop
endfacet
facet normal 0.000000 -0.964389 -0.264487
outer loop
vertex 0.218160 -0.119758 0.898651
vertex 0.010908 -0.107782 0.854984
vertex 0.207252 -0.107782 0.854984
endloop
endfacet
facet normal 0.000000 0.000000 0.000000
outer loop
vertex 0.184224 -0.093893 0.472254
vertex 0.009696 -0.093893 0.472254
vertex 0.009696 -0.093893 0.472254
endloop
endfacet
facet normal 0.000000 0.000000 0.000000
outer loop
vertex 0.184224 -0.093893 0.472254
vertex 0.009696 -0.093893 0.472254
vertex 0.184224 -0.093893 0.472254
endloop
endfacet
facet normal 0.000000 -0.999342 -0.036266
outer loop
vertex 0.207252 -0.107782 0.854984
vertex 0.010908 -0.107782 0.854984
vertex 0.009696 -0.093893 0.472254
endloop
endfacet
facet normal 0.000000 -0.999342 -0.036266
outer loop
vertex 0.207252 -0.107782 0.854984
vertex 0.009696 -0.093893 0.472254
vertex 0.184224 -0.093893 0.472254
endloop
endfacet
facet normal 0.000000 0.998525 -0.054297
outer loop
vertex 0.010908 0.107782 0.854984
vertex 0.207252 0.107782 0.854984
vertex 0.184224 0.089442 0.517714
endloop
endfacet
facet normal 0.000000 0.998525 -0.054297
outer loop
vertex 0.010908 0.107782 0.854984
vertex 0.184224 0.089442 0.517714
vertex 0.009696 0.089442 0.517714
endloop
endfacet
facet normal 0.998195 0.000000 -0.060059
outer loop
vertex 0.207252 0.000000 0.854984
vertex 0.207252 -0.107782 0.854984
vertex 0.184224 -0.093893 0.472254
endloop
endfacet
facet normal 0.997829 0.015851 -0.063926
outer loop
vertex 0.207252 0.000000 0.854984
vertex 0.184224 -0.093893 0.472254
vertex 0.184224 -0.002225 0.494984
endloop
endfacet
facet normal 0.000000 0.000000 0.000000
outer loop
vertex 0.009696 -0.002225 0.494984
vertex 0.009696 0.089442 0.517714
vertex 0.009696 0.089442 0.517714
endloop
endfacet
facet normal 0.000000 0.000000 0.000000
outer loop
vertex 0.009696 -0.002225 0.494984
vertex 0.009696 0.089442 0.517714
vertex 0.009696 -0.002225 0.494984
endloop
endfacet
facet normal -0.997677 0.000000 -0.068119
outer loop
vertex -0.207252 0.000000 0.854984
vertex -0.207252 0.107782 0.854984
vertex -0.184224 0.089442 0.517714
endloop
endfacet
facet normal -0.997829 0.015851 -0.063926
outer loop
vertex -0.207252 0.000000 0.854984
vertex -0.184224 0.089442 0.517714
vertex -0.184224 -0.002225 0.494984
endloop
endfacet
facet normal 0.999995 0.000000 0.003167
outer loop
vertex -0.010908 0.000000 0.854984
vertex -0.010908 -0.107782 0.854984
vertex -0.009696 -0.093893 0.472254
endloop
endfacet
facet normal 0.999994 -0.000836 0.003372
outer loop
vertex -0.010908 0.000000 0.854984
vertex -0.009696 -0.093893 0.472254
vertex -0.009696 -0.002225 0.494984
endloop
endfacet
facet normal 0.000000 0.998525 -0.054297
outer loop
vertex -0.207252 0.107782 0.854984
vertex -0.010908 0.107782 0.854984
vertex -0.009696 0.089442 0.517714
endloop
endfacet
facet normal 0.000000 0.998525 -0.054297
outer loop
vertex -0.207252 0.107782 0.854984
vertex -0.009696 0.089442 0.517714
vertex -0.184224 0.089442 0.517714
endloop
endfacet
facet normal -1.000000 0.000000 0.000000
outer loop
vertex -0.184224 -0.002225 0.494984
vertex -0.184224 0.089442 0.517714
vertex -0.184224 0.089442 0.418254
endloop
endfacet
facet normal -1.000000 0.000000 0.000000
outer loop
vertex -0.184224 -0.002225 0.494984
vertex -0.184224 0.089442 0.418254
vertex -0.184224 -0.002225 0.440984
endloop
endfacet
facet normal 0.000000 -1.000000 -0.000002
outer loop
vertex -0.009696 -0.093893 0.472254
vertex -0.184224 -0.093893 0.472254
vertex -0.184224 -0.093893 0.463714
endloop
endfacet
facet normal 0.000000 -1.000000 0.000000
outer loop
vertex -0.009696 -0.093893 0.472254
vertex -0.184224 -0.093893 0.463714
vertex -0.009696 -0.093893 0.463714
endloop
endfacet
facet normal 0.000000 0.000000 0.000000
outer loop
vertex -0.009696 -0.093893 0.472254
vertex -0.184224 -0.093893 0.472254
vertex -0.184224 -0.093893 0.472254
endloop
endfacet
facet normal 0.000000 0.000000 0.000000
outer loop
vertex -0.009696 -0.093893 0.472254
vertex -0.184224 -0.093893 0.472254
vertex -0.009696 -0.093893 0.472254
endloop
endfacet
facet normal 0.000000 0.000000 0.000000
outer loop
vertex -0.184224 -0.002225 0.494984
vertex -0.184224 0.089442 0.517714
vertex -0.184224 0.089442 0.517714
endloop
endfacet
facet normal 0.000000 0.000000 0.000000
outer loop
vertex -0.184224 -0.002225 0.494984
vertex -0.184224 0.089442 0.517714
vertex -0.184224 -0.002225 0.494984
endloop
endfacet
facet normal 0.000000 0.000000 0.000000
outer loop
vertex 0.009696 0.089442 0.517714
vertex 0.184224 0.089442 0.517714
vertex 0.184224 0.089442 0.517714
endloop
endfacet
facet normal 0.000000 0.000000 0.000000
outer loop
vertex 0.009696 0.089442 0.517714
vertex 0.184224 0.089442 0.517714
vertex 0.009696 0.089442 0.517714
endloop
endfacet
facet normal 0.000000 0.000000 0.000000
outer loop
vertex -0.009696 -0.002225 0.494984
vertex -0.009696 -0.093893 0.472254
vertex -0.009696 -0.093893 0.472254
endloop
endfacet
facet normal 0.000000 0.000000 0.000000
outer loop
vertex -0.009696 -0.002225 0.494984
vertex -0.009696 -0.093893 0.472254
vertex -0.009696 -0.002225 0.494984
endloop
endfacet
facet normal 0.000000 0.000000 0.000000
outer loop
vertex 0.184224 -0.002225 0.494984
vertex 0.184224 -0.093893 0.472254
vertex 0.184224 -0.093893 0.472254
endloop
endfacet
facet normal 0.000000 0.000000 0.000000
outer loop
vertex 0.184224 -0.002225 0.494984
vertex 0.184224 -0.093893 0.472254
vertex 0.184224 -0.002225 0.494984
endloop
endfacet
facet normal 0.000000 0.000000 0.000000
outer loop
vertex -0.184224 0.089442 0.517714
vertex -0.009696 0.089442 0.517714
vertex -0.009696 0.089442 0.517714
endloop
endfacet
facet normal 0.000000 0.000000 0.000000
outer loop
vertex -0.184224 0.089442 0.517714
vertex -0.009696 0.089442 0.517714
vertex -0.184224 0.089442 0.517714
endloop
endfacet
facet normal -0.894614 -0.107542 -0.433707
outer loop
vertex -0.184224 -0.002225 0.440984
vertex -0.184224 0.089442 0.418254
vertex -0.175498 0.080275 0.402527
endloop
endfacet
facet normal -0.894612 -0.107542 -0.433709
outer loop
vertex -0.184224 -0.002225 0.440984
vertex -0.175498 0.080275 0.402527
vertex -0.175498 -0.002225 0.422984
endloop
endfacet
facet normal 0.000000 -0.911181 -0.412006
outer loop
vertex -0.009696 -0.093893 0.463714
vertex -0.184224 -0.093893 0.463714
vertex -0.175498 -0.084726 0.443441
endloop
endfacet
facet normal 0.000000 -0.911182 -0.412005
outer loop
vertex -0.009696 -0.093893 0.463714
vertex -0.175498 -0.084726 0.443441
vertex -0.018422 -0.084726 0.443441
endloop
endfacet
facet normal 0.000000 1.000000 0.000000
outer loop
vertex 0.009696 0.089442 0.517714
vertex 0.184224 0.089442 0.517714
vertex 0.184224 0.089442 0.418254
endloop
endfacet
facet normal 0.000000 1.000000 0.000000
outer loop
vertex 0.009696 0.089442 0.517714
vertex 0.184224 0.089442 0.418254
vertex 0.009696 0.089442 0.418254
endloop
endfacet
facet normal 1.000000 0.000000 0.000000
outer loop
vertex 0.184224 -0.002225 0.494984
vertex 0.184224 -0.093893 0.472254
vertex 0.184224 -0.093893 0.463714
endloop
endfacet
facet normal 1.000000 0.000000 0.000000
outer loop
vertex 0.184224 -0.002225 0.494984
vertex 0.184224 -0.093893 0.463714
vertex 0.184224 -0.002225 0.440984
endloop
endfacet
facet normal 1.000000 0.000000 0.000000
outer loop
vertex -0.009696 -0.002225 0.494984
vertex -0.009696 -0.093893 0.472254
vertex -0.009696 -0.093893 0.463714
endloop
endfacet
facet normal 1.000000 -0.000000 0.000000
outer loop
vertex -0.009696 -0.002225 0.494984
vertex -0.009696 -0.093893 0.463714
vertex -0.009696 -0.002225 0.440984
endloop
endfacet
facet normal 0.000000 1.000000 0.000000
outer loop
vertex -0.184224 0.089442 0.517714
vertex -0.009696 0.089442 0.517714
vertex -0.009696 0.089442 0.418254
endloop
endfacet
facet normal 0.000000 1.000000 0.000000
outer loop
vertex -0.184224 0.089442 0.517714
vertex -0.009696 0.089442 0.418254
vertex -0.184224 0.089442 0.418254
endloop
endfacet
facet normal -1.000000 0.000000 0.000000
outer loop
vertex 0.009696 -0.002225 0.494984
vertex 0.009696 0.089442 0.517714
vertex 0.009696 0.089442 0.418254
endloop
endfacet
facet normal -1.000000 -0.000000 0.000000
outer loop
vertex 0.009696 -0.002225 0.494984
vertex 0.009696 0.089442 0.418254
vertex 0.009696 -0.002225 0.440984
endloop
endfacet
facet normal 0.000000 -1.000000 -0.000002
outer loop
vertex 0.184224 -0.093893 0.472254
vertex 0.009696 -0.093893 0.472254
vertex 0.009696 -0.093893 0.463714
endloop
endfacet
facet normal 0.000000 -1.000000 0.000000
outer loop
vertex 0.184224 -0.093893 0.472254
vertex 0.009696 -0.093893 0.463714
vertex 0.184224 -0.093893 0.463714
endloop
endfacet
facet normal 0.784409 0.050836 0.618157
outer loop
vertex 0.131974 -0.002224 0.087817
vertex 0.126358 -0.063708 0.100000
vertex 0.140398 -0.073433 0.082984
endloop
endfacet
facet normal 0.551015 0.008544 0.834452
outer loop
vertex 0.131974 -0.002224 0.087817
vertex 0.140398 -0.073433 0.082984
vertex 0.154438 -0.002225 0.072984
endloop
endfacet
facet normal 0.000000 0.792373 0.610036
outer loop
vertex 0.033160 0.059270 0.075634
vertex 0.126358 0.059270 0.075634
vertex 0.140398 0.069009 0.062984
endloop
endfacet
facet normal 0.000000 0.792374 0.610036
outer loop
vertex 0.033160 0.059270 0.075634
vertex 0.140398 0.069009 0.062984
vertex 0.014738 0.069009 0.062984
endloop
endfacet
facet normal 0.000000 0.863955 -0.503569
outer loop
vertex 0.009696 0.089442 0.418254
vertex 0.184224 0.089442 0.418254
vertex 0.175498 0.080275 0.402527
endloop
endfacet
facet normal 0.000000 0.863955 -0.503569
outer loop
vertex 0.009696 0.089442 0.418254
vertex 0.175498 0.080275 0.402527
vertex 0.018422 0.080275 0.402527
endloop
endfacet
facet normal 0.894612 -0.107542 -0.433709
outer loop
vertex 0.184224 -0.002225 0.440984
vertex 0.184224 -0.093893 0.463714
vertex 0.175498 -0.084726 0.443441
endloop
endfacet
facet normal 0.894613 -0.107542 -0.433709
outer loop
vertex 0.184224 -0.002225 0.440984
vertex 0.175498 -0.084726 0.443441
vertex 0.175498 -0.002225 0.422984
endloop
endfacet
facet normal 0.894612 -0.107542 -0.433709
outer loop
vertex -0.009696 -0.002225 0.440984
vertex -0.009696 -0.093893 0.463714
vertex -0.018422 -0.084726 0.443441
endloop
endfacet
facet normal 0.894613 -0.107542 -0.433708
outer loop
vertex -0.009696 -0.002225 0.440984
vertex -0.018422 -0.084726 0.443441
vertex -0.018422 -0.002225 0.422984
endloop
endfacet
facet normal 0.000000 0.863955 -0.503569
outer loop
vertex -0.184224 0.089442 0.418254
vertex -0.009696 0.089442 0.418254
vertex -0.018422 0.080275 0.402527
endloop
endfacet
facet normal 0.000000 0.863955 -0.503569
outer loop
vertex -0.184224 0.089442 0.418254
vertex -0.018422 0.080275 0.402527
vertex -0.175498 0.080275 0.402527
endloop
endfacet
facet normal -0.894614 -0.107542 -0.433706
outer loop
vertex 0.009696 -0.002225 0.440984
vertex 0.009696 0.089442 0.418254
vertex 0.018422 0.080275 0.402527
endloop
endfacet
facet normal -0.894613 -0.107543 -0.433708
outer loop
vertex 0.009696 -0.002225 0.440984
vertex 0.018422 0.080275 0.402527
vertex 0.018422 -0.002225 0.422984
endloop
endfacet
facet normal 0.000000 -0.911182 -0.412005
outer loop
vertex 0.184224 -0.093893 0.463714
vertex 0.009696 -0.093893 0.463714
vertex 0.018422 -0.084726 0.443441
endloop
endfacet
facet normal 0.000000 -0.911181 -0.412005
outer loop
vertex 0.184224 -0.093893 0.463714
vertex 0.018422 -0.084726 0.443441
vertex 0.175498 -0.084726 0.443441
endloop
endfacet
facet normal 0.000000 -0.517310 0.855798
outer loop
vertex 0.140398 -0.073433 0.082984
vertex 0.014738 -0.073433 0.082984
vertex 0.030950 -0.124717 0.051984
endloop
endfacet
facet normal 0.000000 -0.517309 0.855799
outer loop
vertex 0.140398 -0.073433 0.082984
vertex 0.030950 -0.124717 0.051984
vertex 0.098279 -0.124717 0.051984
endloop
endfacet
facet normal 0.772777 -0.634678 0.000000
outer loop
vertex 0.140398 -0.073433 0.002984
vertex 0.140398 -0.073433 0.082984
vertex 0.098279 -0.124717 0.051984
endloop
endfacet
facet normal 0.772777 -0.634678 0.000000
outer loop
vertex 0.140398 -0.073433 0.002984
vertex 0.098279 -0.124717 0.051984
vertex 0.098279 -0.124717 0.009984
endloop
endfacet
facet normal 0.569939 0.031676 0.821076
outer loop
vertex -0.019896 -0.002224 0.083817
vertex -0.039792 -0.063708 0.100000
vertex -0.014738 -0.073433 0.082984
endloop
endfacet
facet normal 0.968486 0.067350 0.239791
outer loop
vertex -0.019896 -0.002224 0.083817
vertex -0.014738 -0.073433 0.082984
vertex -0.014738 -0.002225 0.062984
endloop
endfacet
facet normal 0.000000 0.792374 0.610036
outer loop
vertex -0.126358 0.059270 0.075634
vertex -0.033160 0.059270 0.075634
vertex -0.014738 0.069009 0.062984
endloop
endfacet
facet normal 0.000000 0.792374 0.610036
outer loop
vertex -0.126358 0.059270 0.075634
vertex -0.014738 0.069009 0.062984
vertex -0.140398 0.069009 0.062984
endloop
endfacet
facet normal -0.472714 0.215657 0.854420
outer loop
vertex 0.019896 -0.002224 0.083817
vertex 0.033160 0.059270 0.075634
vertex 0.014738 0.069009 0.062984
endloop
endfacet
facet normal -0.970689 0.000000 0.240339
outer loop
vertex 0.019896 -0.002224 0.083817
vertex 0.014738 0.069009 0.062984
vertex 0.014738 -0.002225 0.062984
endloop
endfacet
facet normal 0.000000 -0.868208 0.496201
outer loop
vertex 0.126358 -0.063708 0.100000
vertex 0.039792 -0.063708 0.100000
vertex 0.014738 -0.073433 0.082984
endloop
endfacet
facet normal 0.000000 -0.868208 0.496201
outer loop
vertex 0.126358 -0.063708 0.100000
vertex 0.014738 -0.073433 0.082984
vertex 0.140398 -0.073433 0.082984
endloop
endfacet
facet normal 0.000000 -0.868208 0.496200
outer loop
vertex -0.039792 -0.063708 0.100000
vertex -0.126358 -0.063708 0.100000
vertex -0.140398 -0.073433 0.082984
endloop
endfacet
facet normal 0.000000 -0.868208 0.496201
outer loop
vertex -0.039792 -0.063708 0.100000
vertex -0.140398 -0.073433 0.082984
vertex -0.014738 -0.073433 0.082984
endloop
endfacet
facet normal -0.570365 0.209439 0.794241
outer loop
vertex -0.131974 -0.002224 0.087817
vertex -0.126358 0.059270 0.075634
vertex -0.140398 0.069009 0.062984
endloop
endfacet
facet normal -0.537513 0.220210 0.813995
outer loop
vertex -0.131974 -0.002224 0.087817
vertex -0.140398 0.069009 0.062984
vertex -0.154438 -0.002225 0.072984
endloop
endfacet
facet normal -0.079329 0.000000 -0.996848
outer loop
vertex 0.014738 -0.002225 0.012984
vertex 0.140398 -0.002225 0.002984
vertex 0.140398 -0.073433 0.002984
endloop
endfacet
facet normal 0.000000 0.139070 -0.990283
outer loop
vertex 0.014738 -0.002225 0.012984
vertex 0.140398 -0.073433 0.002984
vertex 0.014738 -0.073433 0.002984
endloop
endfacet
facet normal 0.078563 0.138640 -0.987222
outer loop
vertex -0.140398 -0.002225 0.002984
vertex -0.014738 -0.002225 0.012984
vertex -0.014738 -0.073433 0.002984
endloop
endfacet
facet normal 0.000000 0.000000 -1.000000
outer loop
vertex -0.140398 -0.002225 0.002984
vertex -0.014738 -0.073433 0.002984
vertex -0.140398 -0.073433 0.002984
endloop
endfacet
facet normal -0.981125 0.193373 0.000000
outer loop
vertex -0.154438 -0.002225 0.072984
vertex -0.140398 0.069009 0.062984
vertex -0.140398 0.069009 0.002984
endloop
endfacet
facet normal -0.980473 0.000000 -0.196653
outer loop
vertex -0.154438 -0.002225 0.072984
vertex -0.140398 0.069009 0.002984
vertex -0.140398 -0.002225 0.002984
endloop
endfacet
facet normal -0.999252 0.038658 0.000000
outer loop
vertex 0.014738 0.069009 0.022984
vertex 0.014738 0.069009 0.062984
vertex 0.017263 0.134278 0.049422
endloop
endfacet
facet normal -0.998681 0.019373 0.047554
outer loop
vertex 0.014738 0.069009 0.022984
vertex 0.017263 0.134278 0.049422
vertex 0.014875 0.130042 0.001007
endloop
endfacet
facet normal 0.981111 -0.193444 0.000000
outer loop
vertex 0.154438 -0.002225 0.072984
vertex 0.140398 -0.073433 0.082984
vertex 0.140398 -0.073433 0.002984
endloop
endfacet
facet normal 0.980473 0.000000 -0.196653
outer loop
vertex 0.154438 -0.002225 0.072984
vertex 0.140398 -0.073433 0.002984
vertex 0.140398 -0.002225 0.002984
endloop
endfacet
facet normal 1.000000 0.000000 0.000000
outer loop
vertex -0.014738 -0.002225 0.062984
vertex -0.014738 -0.073433 0.082984
vertex -0.014738 -0.073433 0.002984
endloop
endfacet
facet normal 1.000000 0.000000 0.000000
outer loop
vertex -0.014738 -0.002225 0.062984
vertex -0.014738 -0.073433 0.002984
vertex -0.014738 -0.002225 0.012984
endloop
endfacet
facet normal 0.156798 -0.069749 -0.985165
outer loop
vertex -0.014738 0.069009 0.022984
vertex -0.140398 0.069009 0.002984
vertex -0.125667 0.130042 0.001007
endloop
endfacet
facet normal 0.000000 -0.338782 -0.940865
outer loop
vertex -0.014738 0.069009 0.022984
vertex -0.125667 0.130042 0.001007
vertex -0.014875 0.130042 0.001007
endloop
endfacet
facet normal -1.000000 0.000000 0.000000
outer loop
vertex 0.014738 -0.002225 0.062984
vertex 0.014738 0.069009 0.062984
vertex 0.014738 0.069009 0.022984
endloop
endfacet
facet normal -1.000000 0.000000 0.000000
outer loop
vertex 0.014738 -0.002225 0.062984
vertex 0.014738 0.069009 0.022984
vertex 0.014738 -0.002225 0.012984
endloop
endfacet
facet normal 0.000000 -1.000000 0.000000
outer loop
vertex -0.030950 -0.124717 0.051984
vertex -0.098279 -0.124717 0.051984
vertex -0.098279 -0.124717 0.009984
endloop
endfacet
facet normal 0.000000 -1.000000 0.000000
outer loop
vertex -0.030950 -0.124717 0.051984
vertex -0.098279 -0.124717 0.009984
vertex -0.030950 -0.124717 0.009984
endloop
endfacet
facet normal 0.000000 -1.000000 0.000000
outer loop
vertex 0.098279 -0.124717 0.051984
vertex 0.030950 -0.124717 0.051984
vertex 0.030950 -0.124717 0.009984
endloop
endfacet
facet normal 0.000000 -1.000000 0.000000
outer loop
vertex 0.098279 -0.124717 0.051984
vertex 0.030950 -0.124717 0.009984
vertex 0.098279 -0.124717 0.009984
endloop
endfacet
facet normal 0.000000 -0.517309 0.855798
outer loop
vertex -0.014738 -0.073433 0.082984
vertex -0.140398 -0.073433 0.082984
vertex -0.098279 -0.124717 0.051984
endloop
endfacet
facet normal 0.000000 -0.517310 0.855798
outer loop
vertex -0.014738 -0.073433 0.082984
vertex -0.098279 -0.124717 0.051984
vertex -0.030950 -0.124717 0.051984
endloop
endfacet
facet normal 0.000000 -0.135240 -0.990813
outer loop
vertex 0.014738 -0.073433 0.002984
vertex 0.140398 -0.073433 0.002984
vertex 0.098279 -0.124717 0.009984
endloop
endfacet
facet normal 0.000000 -0.135240 -0.990813
outer loop
vertex 0.014738 -0.073433 0.002984
vertex 0.098279 -0.124717 0.009984
vertex 0.030950 -0.124717 0.009984
endloop
endfacet
facet normal -0.772777 -0.634678 0.000000
outer loop
vertex -0.140398 -0.073433 0.082984
vertex -0.140398 -0.073433 0.002984
vertex -0.098279 -0.124717 0.009984
endloop
endfacet
facet normal -0.772776 -0.634678 0.000000
outer loop
vertex -0.140398 -0.073433 0.082984
vertex -0.098279 -0.124717 0.009984
vertex -0.098279 -0.124717 0.051984
endloop
endfacet
facet normal -0.953493 -0.301414 0.000000
outer loop
vertex 0.014738 -0.073433 0.082984
vertex 0.014738 -0.073433 0.002984
vertex 0.030950 -0.124717 0.009984
endloop
endfacet
facet normal -0.953493 -0.301414 0.000000
outer loop
vertex 0.014738 -0.073433 0.082984
vertex 0.030950 -0.124717 0.009984
vertex 0.030950 -0.124717 0.051984
endloop
endfacet
facet normal 0.000000 -0.135240 -0.990813
outer loop
vertex -0.140398 -0.073433 0.002984
vertex -0.014738 -0.073433 0.002984
vertex -0.030950 -0.124717 0.009984
endloop
endfacet
facet normal 0.000000 -0.135240 -0.990813
outer loop
vertex -0.140398 -0.073433 0.002984
vertex -0.030950 -0.124717 0.009984
vertex -0.098279 -0.124717 0.009984
endloop
endfacet
facet normal 0.953493 -0.301414 0.000000
outer loop
vertex -0.014738 -0.073433 0.002984
vertex -0.014738 -0.073433 0.082984
vertex -0.030950 -0.124717 0.051984
endloop
endfacet
facet normal 0.953493 -0.301414 0.000000
outer loop
vertex -0.014738 -0.073433 0.002984
vertex -0.030950 -0.124717 0.051984
vertex -0.030950 -0.124717 0.009984
endloop
endfacet
facet normal -0.820861 0.568955 -0.049777
outer loop
vertex -0.125667 0.130042 0.001007
vertex -0.125667 0.133494 0.040457
vertex -0.077661 0.200385 0.013374
endloop
endfacet
facet normal -0.820861 0.568955 -0.049778
outer loop
vertex -0.125667 0.130042 0.001007
vertex -0.077661 0.200385 0.013374
vertex -0.077661 0.199051 -0.001868
endloop
endfacet
facet normal -0.957191 0.288622 0.021952
outer loop
vertex 0.014875 0.130042 0.001007
vertex 0.017263 0.134278 0.049422
vertex 0.036811 0.201169 0.022340
endloop
endfacet
facet normal -0.957290 0.253574 0.138913
outer loop
vertex 0.014875 0.130042 0.001007
vertex 0.036811 0.201169 0.022340
vertex 0.032738 0.199051 -0.001868
endloop
endfacet
facet normal -0.974885 0.222708 0.000000
outer loop
vertex -0.140398 0.069009 0.002984
vertex -0.140398 0.069009 0.062984
vertex -0.125667 0.133494 0.040457
endloop
endfacet
facet normal -0.972033 0.233950 -0.020468
outer loop
vertex -0.140398 0.069009 0.002984
vertex -0.125667 0.133494 0.040457
vertex -0.125667 0.130042 0.001007
endloop
endfacet
facet normal 0.000000 0.329798 0.944051
outer loop
vertex 0.014738 0.069009 0.062984
vertex 0.140398 0.069009 0.062984
vertex 0.125667 0.133494 0.040457
endloop
endfacet
facet normal 0.082200 0.199696 0.976404
outer loop
vertex 0.014738 0.069009 0.062984
vertex 0.125667 0.133494 0.040457
vertex 0.017263 0.134278 0.049422
endloop
endfacet
facet normal 0.999997 0.002253 0.000000
outer loop
vertex -0.014738 0.069009 0.062984
vertex -0.014738 0.069009 0.022984
vertex -0.014875 0.130042 0.001007
endloop
endfacet
facet normal 0.997835 0.047956 0.045012
outer loop
vertex -0.014738 0.069009 0.062984
vertex -0.014875 0.130042 0.001007
vertex -0.017263 0.134278 0.049422
endloop
endfacet
facet normal 0.972086 0.234626 0.000000
outer loop
vertex 0.140398 0.069009 0.062984
vertex 0.140398 0.069009 0.002984
vertex 0.125667 0.130042 0.001007
endloop
endfacet
facet normal 0.976126 0.216377 -0.018931
outer loop
vertex 0.140398 0.069009 0.062984
vertex 0.125667 0.130042 0.001007
vertex 0.125667 0.133494 0.040457
endloop
endfacet
facet normal -0.148113 -0.334750 -0.930594
outer loop
vertex 0.140398 0.069009 0.002984
vertex 0.014738 0.069009 0.022984
vertex 0.014875 0.130042 0.001007
endloop
endfacet
facet normal 0.000000 -0.032367 -0.999476
outer loop
vertex 0.140398 0.069009 0.002984
vertex 0.014875 0.130042 0.001007
vertex 0.125667 0.130042 0.001007
endloop
endfacet
facet normal 0.000000 0.203434 0.979089
outer loop
vertex -0.140398 0.069009 0.062984
vertex -0.014738 0.069009 0.062984
vertex -0.017263 0.134278 0.049422
endloop
endfacet
facet normal -0.079845 0.344952 0.935218
outer loop
vertex -0.140398 0.069009 0.062984
vertex -0.017263 0.134278 0.049422
vertex -0.125667 0.133494 0.040457
endloop
endfacet
facet normal -0.000000 0.996195 -0.087157
outer loop
vertex 0.036811 0.201169 0.022340
vertex 0.077661 0.200385 0.013374
vertex 0.077661 0.199051 -0.001868
endloop
endfacet
facet normal 0.000000 0.996195 -0.087153
outer loop
vertex 0.036811 0.201169 0.022340
vertex 0.077661 0.199051 -0.001868
vertex 0.032738 0.199051 -0.001868
endloop
endfacet
facet normal 0.000000 0.996195 -0.087155
outer loop
vertex -0.077661 0.200385 0.013374
vertex -0.036811 0.201169 0.022340
vertex -0.032738 0.199051 -0.001868
endloop
endfacet
facet normal 0.000000 0.996195 -0.087156
outer loop
vertex -0.077661 0.200385 0.013374
vertex -0.032738 0.199051 -0.001868
vertex -0.077661 0.199051 -0.001868
endloop
endfacet
facet normal 0.000000 -0.041632 -0.999133
outer loop
vertex 0.125667 0.130042 0.001007
vertex 0.014875 0.130042 0.001007
vertex 0.032738 0.199051 -0.001868
endloop
endfacet
facet normal 0.000000 -0.041632 -0.999133
outer loop
vertex 0.125667 0.130042 0.001007
vertex 0.032738 0.199051 -0.001868
vertex 0.077661 0.199051 -0.001868
endloop
endfacet
facet normal 0.077771 0.421601 0.903440
outer loop
vertex 0.017263 0.134278 0.049422
vertex 0.125667 0.133494 0.040457
vertex 0.077661 0.200385 0.013374
endloop
endfacet
facet normal 0.209297 0.313807 0.926132
outer loop
vertex 0.017263 0.134278 0.049422
vertex 0.077661 0.200385 0.013374
vertex 0.036811 0.201169 0.022340
endloop
endfacet
facet normal 0.967515 0.251504 0.025708
outer loop
vertex -0.017263 0.134278 0.049422
vertex -0.014875 0.130042 0.001007
vertex -0.032738 0.199051 -0.001868
endloop
endfacet
facet normal 0.936529 0.325960 0.129086
outer loop
vertex -0.017263 0.134278 0.049422
vertex -0.032738 0.199051 -0.001868
vertex -0.036811 0.201169 0.022340
endloop
endfacet
facet normal 0.820861 0.568955 -0.049777
outer loop
vertex 0.125667 0.133494 0.040457
vertex 0.125667 0.130042 0.001007
vertex 0.077661 0.199051 -0.001868
endloop
endfacet
facet normal 0.820861 0.568955 -0.049778
outer loop
vertex 0.125667 0.133494 0.040457
vertex 0.077661 0.199051 -0.001868
vertex 0.077661 0.200385 0.013374
endloop
endfacet
facet normal 0.000000 -0.041632 -0.999133
outer loop
vertex -0.014875 0.130042 0.001007
vertex -0.125667 0.130042 0.001007
vertex -0.077661 0.199051 -0.001868
endloop
endfacet
facet normal 0.000000 -0.041632 -0.999133
outer loop
vertex -0.014875 0.130042 0.001007
vertex -0.077661 0.199051 -0.001868
vertex -0.032738 0.199051 -0.001868
endloop
endfacet
facet normal -0.079631 0.354013 0.931844
outer loop
vertex -0.125667 0.133494 0.040457
vertex -0.017263 0.134278 0.049422
vertex -0.036811 0.201169 0.022340
endloop
endfacet
facet normal -0.196280 0.485736 0.851783
outer loop
vertex -0.125667 0.133494 0.040457
vertex -0.036811 0.201169 0.022340
vertex -0.077661 0.200385 0.013374
endloop
endfacet
facet normal 0.248747 -0.963733 -0.096660
outer loop
vertex 0.355687 -0.080000 1.456822
vertex 0.260848 -0.096000 1.372287
vertex 0.270170 -0.057600 1.013415
endloop
endfacet
facet normal 0.126850 -0.989125 -0.074433
outer loop
vertex 0.355687 -0.080000 1.456822
vertex 0.270170 -0.057600 1.013415
vertex 0.346364 -0.048000 1.015694
endloop
endfacet
facet normal 0.999882 0.000000 -0.015368
outer loop
vertex -0.264232 0.000000 1.367633
vertex -0.264232 -0.096000 1.367633
vertex -0.269677 -0.057600 1.013330
endloop
endfacet
facet normal 0.999882 0.000000 -0.015368
outer loop
vertex -0.264232 0.000000 1.367633
vertex -0.269677 -0.057600 1.013330
vertex -0.269677 0.000000 1.013330
endloop
endfacet
facet normal 1.000000 0.000000 -0.000915
outer loop
vertex -0.269677 0.000000 1.013330
vertex -0.269677 -0.057600 1.013330
vertex -0.269696 -0.057600 0.993330
endloop
endfacet
facet normal 1.000000 0.000000 -0.000915
outer loop
vertex -0.269677 0.000000 1.013330
vertex -0.269696 -0.057600 0.993330
vertex -0.269696 0.000000 0.993330
endloop
endfacet
facet normal -0.999925 0.000000 -0.012217
outer loop
vertex -0.352303 0.000000 1.461476
vertex -0.352303 0.080000 1.461476
vertex -0.346857 0.048000 1.015779
endloop
endfacet
facet normal -0.999925 0.000000 -0.012217
outer loop
vertex -0.352303 0.000000 1.461476
vertex -0.346857 0.048000 1.015779
vertex -0.346857 0.000000 1.015779
endloop
endfacet
facet normal -0.279237 0.955082 -0.099222
outer loop
vertex -0.352303 0.080000 1.461476
vertex -0.264232 0.096000 1.367633
vertex -0.269677 0.057600 1.013330
endloop
endfacet
facet normal -0.125376 0.989451 -0.072572
outer loop
vertex -0.352303 0.080000 1.461476
vertex -0.269677 0.057600 1.013330
vertex -0.346857 0.048000 1.015779
endloop
endfacet
facet normal -0.252403 -0.964913 -0.072362
outer loop
vertex -0.264232 -0.096000 1.367633
vertex -0.352303 -0.080000 1.461476
vertex -0.346857 -0.048000 1.015779
endloop
endfacet
facet normal -0.126031 -0.986456 -0.104977
outer loop
vertex -0.264232 -0.096000 1.367633
vertex -0.346857 -0.048000 1.015779
vertex -0.269677 -0.057600 1.013330
endloop
endfacet
facet normal 0.125010 0.992156 -0.000114
outer loop
vertex 0.270170 0.057600 1.013415
vertex 0.346364 0.048000 1.015694
vertex 0.346346 0.048000 0.995694
endloop
endfacet
facet normal 0.125011 0.992155 -0.000114
outer loop
vertex 0.270170 0.057600 1.013415
vertex 0.346346 0.048000 0.995694
vertex 0.270152 0.057600 0.993415
endloop
endfacet
facet normal 0.999777 0.000000 -0.021129
outer loop
vertex 0.355687 0.000000 1.456822
vertex 0.355687 -0.080000 1.456822
vertex 0.346364 -0.048000 1.015694
endloop
endfacet
facet normal 0.999777 0.000000 -0.021129
outer loop
vertex 0.355687 0.000000 1.456822
vertex 0.346364 -0.048000 1.015694
vertex 0.346364 0.000000 1.015694
endloop
endfacet
facet normal -0.999663 0.000000 -0.025969
outer loop
vertex 0.260848 0.000000 1.372287
vertex 0.260848 0.096000 1.372287
vertex 0.270170 0.057600 1.013415
endloop
endfacet
facet normal -0.999663 0.000000 -0.025969
outer loop
vertex 0.260848 0.000000 1.372287
vertex 0.270170 0.057600 1.013415
vertex 0.270170 0.000000 1.013415
endloop
endfacet
facet normal 0.230737 0.970102 -0.075249
outer loop
vertex 0.260848 0.096000 1.372287
vertex 0.355687 0.080000 1.456822
vertex 0.346364 0.048000 1.015694
endloop
endfacet
facet normal 0.127360 0.986571 -0.102257
outer loop
vertex 0.260848 0.096000 1.372287
vertex 0.346364 0.048000 1.015694
vertex 0.270170 0.057600 1.013415
endloop
endfacet
facet normal 0.126614 0.989945 -0.063077
outer loop
vertex 0.270152 0.057600 0.993415
vertex 0.346346 0.048000 0.995694
vertex 0.309308 0.033600 0.695352
endloop
endfacet
facet normal 0.157448 0.985782 -0.058691
outer loop
vertex 0.270152 0.057600 0.993415
vertex 0.309308 0.033600 0.695352
vertex 0.266640 0.040320 0.693757
endloop
endfacet
facet normal -0.999931 0.000000 0.011720
outer loop
vertex 0.270152 0.000000 0.993415
vertex 0.270152 0.057600 0.993415
vertex 0.266640 0.040320 0.693757
endloop
endfacet
facet normal -0.999931 0.000000 0.011720
outer loop
vertex 0.270152 0.000000 0.993415
vertex 0.266640 0.040320 0.693757
vertex 0.266640 -0.020160 0.693757
endloop
endfacet
facet normal -1.000000 0.000000 0.000915
outer loop
vertex -0.346857 0.000000 1.015779
vertex -0.346857 0.048000 1.015779
vertex -0.346875 0.048000 0.995779
endloop
endfacet
facet normal -1.000000 0.000000 0.000915
outer loop
vertex -0.346857 0.000000 1.015779
vertex -0.346875 0.048000 0.995779
vertex -0.346875 0.000000 0.995779
endloop
endfacet
facet normal 0.125010 -0.992155 -0.000115
outer loop
vertex 0.346364 -0.048000 1.015694
vertex 0.270170 -0.057600 1.013415
vertex 0.270152 -0.057600 0.993415
endloop
endfacet
facet normal 0.125011 -0.992155 -0.000114
outer loop
vertex 0.346364 -0.048000 1.015694
vertex 0.270152 -0.057600 0.993415
vertex 0.346346 -0.048000 0.995694
endloop
endfacet
facet normal 1.000000 0.000000 -0.000915
outer loop
vertex 0.346364 0.000000 1.015694
vertex 0.346364 -0.048000 1.015694
vertex 0.346346 -0.048000 0.995694
endloop
endfacet
facet normal 1.000000 0.000000 -0.000915
outer loop
vertex 0.346364 0.000000 1.015694
vertex 0.346346 -0.048000 0.995694
vertex 0.346346 0.000000 0.995694
endloop
endfacet
facet normal -0.123430 0.992353 0.000113
outer loop
vertex -0.346857 0.048000 1.015779
vertex -0.269677 0.057600 1.013330
vertex -0.269696 0.057600 0.993330
endloop
endfacet
facet normal -0.123432 0.992353 0.000113
outer loop
vertex -0.346857 0.048000 1.015779
vertex -0.269696 0.057600 0.993330
vertex -0.346875 0.048000 0.995779
endloop
endfacet
facet normal -1.000000 0.000000 0.000915
outer loop
vertex 0.270170 0.000000 1.013415
vertex 0.270170 0.057600 1.013415
vertex 0.270152 0.057600 0.993415
endloop
endfacet
facet normal -1.000000 0.000000 0.000915
outer loop
vertex 0.270170 0.000000 1.013415
vertex 0.270152 0.057600 0.993415
vertex 0.270152 0.000000 0.993415
endloop
endfacet
facet normal -0.123430 -0.992353 0.000112
outer loop
vertex -0.269677 -0.057600 1.013330
vertex -0.346857 -0.048000 1.015779
vertex -0.346875 -0.048000 0.995779
endloop
endfacet
facet normal -0.123431 -0.992353 0.000113
outer loop
vertex -0.269677 -0.057600 1.013330
vertex -0.346875 -0.048000 0.995779
vertex -0.269696 -0.057600 0.993330
endloop
endfacet
facet normal -0.981844 0.000000 -0.189689
outer loop
vertex 0.266640 -0.020160 0.693757
vertex 0.266640 0.040320 0.693757
vertex 0.268604 0.057314 0.683590
endloop
endfacet
facet normal -0.981845 0.000000 -0.189684
outer loop
vertex 0.266640 -0.020160 0.693757
vertex 0.268604 0.057314 0.683590
vertex 0.268604 -0.036235 0.683590
endloop
endfacet
facet normal 0.064489 0.598873 0.798243
outer loop
vertex 0.266640 0.040320 0.693757
vertex 0.309308 0.033600 0.695352
vertex 0.307326 0.046919 0.685519
endloop
endfacet
facet normal 0.092309 0.503354 0.859135
outer loop
vertex 0.266640 0.040320 0.693757
vertex 0.307326 0.046919 0.685519
vertex 0.268604 0.057314 0.683590
endloop
endfacet
facet normal 0.999958 0.000000 0.009164
outer loop
vertex -0.269696 0.000000 0.993330
vertex -0.269696 -0.057600 0.993330
vertex -0.266950 -0.020160 0.693697
endloop
endfacet
facet normal -0.992616 0.000000 -0.121298
outer loop
vertex -0.346875 0.000000 0.995779
vertex -0.346875 0.048000 0.995779
vertex -0.310170 0.033600 0.695412
endloop
endfacet
facet normal -0.992616 0.000000 -0.121298
outer loop
vertex -0.346875 0.000000 0.995779
vertex -0.310170 0.033600 0.695412
vertex -0.310170 -0.016800 0.695412
endloop
endfacet
facet normal 0.127697 -0.983976 -0.124437
outer loop
vertex 0.346346 -0.048000 0.995694
vertex 0.270152 -0.057600 0.993415
vertex 0.266640 -0.020160 0.693757
endloop
endfacet
facet normal 0.082197 -0.990189 -0.112999
outer loop
vertex 0.346346 -0.048000 0.995694
vertex 0.266640 -0.020160 0.693757
vertex 0.309308 -0.016800 0.695352
endloop
endfacet
facet normal 0.992482 0.000000 -0.122390
outer loop
vertex 0.346346 0.000000 0.995694
vertex 0.346346 -0.048000 0.995694
vertex 0.309308 -0.016800 0.695352
endloop
endfacet
facet normal -0.125045 0.990439 -0.058265
outer loop
vertex -0.346875 0.048000 0.995779
vertex -0.269696 0.057600 0.993330
vertex -0.266950 0.040320 0.693697
endloop
endfacet
facet normal -0.155865 0.985551 -0.066295
outer loop
vertex -0.346875 0.048000 0.995779
vertex -0.266950 0.040320 0.693697
vertex -0.310170 0.033600 0.695412
endloop
endfacet
facet normal -0.126254 -0.984986 -0.117742
outer loop
vertex -0.269696 -0.057600 0.993330
vertex -0.346875 -0.048000 0.995779
vertex -0.310170 -0.016800 0.695412
endloop
endfacet
facet normal -0.081806 -0.988865 -0.124311
outer loop
vertex -0.269696 -0.057600 0.993330
vertex -0.310170 -0.016800 0.695412
vertex -0.266950 -0.020160 0.693697
endloop
endfacet
facet normal 0.992482 0.000000 -0.122390
outer loop
vertex 0.346346 0.048000 0.995694
vertex 0.346346 0.000000 0.995694
vertex 0.309308 -0.016800 0.695352
endloop
endfacet
facet normal 0.992482 0.000000 -0.122390
outer loop
vertex 0.346346 0.048000 0.995694
vertex 0.309308 -0.016800 0.695352
vertex 0.309308 0.033600 0.695352
endloop
endfacet
facet normal -0.992616 0.000000 -0.121298
outer loop
vertex -0.346875 -0.048000 0.995779
vertex -0.346875 0.000000 0.995779
vertex -0.310170 -0.016800 0.695412
endloop
endfacet
facet normal 0.999958 0.000000 0.009164
outer loop
vertex -0.269696 0.057600 0.993330
vertex -0.269696 0.000000 0.993330
vertex -0.266950 -0.020160 0.693697
endloop
endfacet
facet normal 0.999958 0.000000 0.009164
outer loop
vertex -0.269696 0.057600 0.993330
vertex -0.266950 -0.020160 0.693697
vertex -0.266950 0.040320 0.693697
endloop
endfacet
facet normal -1.000000 0.000000 0.000915
outer loop
vertex 0.270170 -0.057600 1.013415
vertex 0.270170 0.000000 1.013415
vertex 0.270152 0.000000 0.993415
endloop
endfacet
facet normal -1.000000 0.000000 0.000915
outer loop
vertex 0.270170 -0.057600 1.013415
vertex 0.270152 0.000000 0.993415
vertex 0.270152 -0.057600 0.993415
endloop
endfacet
facet normal 1.000000 0.000000 -0.000915
outer loop
vertex 0.346364 0.048000 1.015694
vertex 0.346364 0.000000 1.015694
vertex 0.346346 0.000000 0.995694
endloop
endfacet
facet normal 1.000000 0.000000 -0.000915
outer loop
vertex 0.346364 0.048000 1.015694
vertex 0.346346 0.000000 0.995694
vertex 0.346346 0.048000 0.995694
endloop
endfacet
facet normal -1.000000 0.000000 0.000915
outer loop
vertex -0.346857 -0.048000 1.015779
vertex -0.346857 0.000000 1.015779
vertex -0.346875 0.000000 0.995779
endloop
endfacet
facet normal -1.000000 0.000000 0.000915
outer loop
vertex -0.346857 -0.048000 1.015779
vertex -0.346875 0.000000 0.995779
vertex -0.346875 -0.048000 0.995779
endloop
endfacet
facet normal -0.999931 0.000000 0.011720
outer loop
vertex 0.270152 -0.057600 0.993415
vertex 0.270152 0.000000 0.993415
vertex 0.266640 -0.020160 0.693757
endloop
endfacet
facet normal -0.999663 0.000000 -0.025969
outer loop
vertex 0.260848 -0.096000 1.372287
vertex 0.260848 0.000000 1.372287
vertex 0.270170 0.000000 1.013415
endloop
endfacet
facet normal -0.999663 0.000000 -0.025969
outer loop
vertex 0.260848 -0.096000 1.372287
vertex 0.270170 0.000000 1.013415
vertex 0.270170 -0.057600 1.013415
endloop
endfacet
facet normal 0.999777 0.000000 -0.021129
outer loop
vertex 0.355687 0.080000 1.456822
vertex 0.355687 0.000000 1.456822
vertex 0.346364 0.000000 1.015694
endloop
endfacet
facet normal 0.999777 0.000000 -0.021129
outer loop
vertex 0.355687 0.080000 1.456822
vertex 0.346364 0.000000 1.015694
vertex 0.346364 0.048000 1.015694
endloop
endfacet
facet normal -0.999925 0.000000 -0.012217
outer loop
vertex -0.352303 -0.080000 1.461476
vertex -0.352303 0.000000 1.461476
vertex -0.346857 0.000000 1.015779
endloop
endfacet
facet normal -0.999925 0.000000 -0.012217
outer loop
vertex -0.352303 -0.080000 1.461476
vertex -0.346857 0.000000 1.015779
vertex -0.346857 -0.048000 1.015779
endloop
endfacet
facet normal 1.000000 0.000000 -0.000915
outer loop
vertex -0.269677 0.057600 1.013330
vertex -0.269677 0.000000 1.013330
vertex -0.269696 0.000000 0.993330
endloop
endfacet
facet normal 1.000000 0.000000 -0.000915
outer loop
vertex -0.269677 0.057600 1.013330
vertex -0.269696 0.000000 0.993330
vertex -0.269696 0.057600 0.993330
endloop
endfacet
facet normal 0.999882 0.000000 -0.015368
outer loop
vertex -0.264232 0.096000 1.367633
vertex -0.264232 0.000000 1.367633
vertex -0.269677 0.000000 1.013330
endloop
endfacet
facet normal 0.999882 0.000000 -0.015368
outer loop
vertex -0.264232 0.096000 1.367633
vertex -0.269677 0.000000 1.013330
vertex -0.269677 0.057600 1.013330
endloop
endfacet
facet normal -1.000000 0.000000 0.000000
outer loop
vertex 0.014738 -0.073433 0.082984
vertex 0.014738 -0.002225 0.062984
vertex 0.014738 -0.002225 0.012984
endloop
endfacet
facet normal -1.000000 -0.000000 0.000000
outer loop
vertex 0.014738 -0.073433 0.082984
vertex 0.014738 -0.002225 0.012984
vertex 0.014738 -0.073433 0.002984
endloop
endfacet
facet normal 1.000000 0.000000 0.000000
outer loop
vertex -0.014738 0.069009 0.062984
vertex -0.014738 -0.002225 0.062984
vertex -0.014738 -0.002225 0.012984
endloop
endfacet
facet normal 1.000000 -0.000000 0.000000
outer loop
vertex -0.014738 0.069009 0.062984
vertex -0.014738 -0.002225 0.012984
vertex -0.014738 0.069009 0.022984
endloop
endfacet
facet normal 0.967294 0.163412 -0.194009
outer loop
vertex 0.140398 0.069009 0.062984
vertex 0.154438 -0.002225 0.072984
vertex 0.140398 -0.002225 0.002984
endloop
endfacet
facet normal 1.000000 0.000000 0.000000
outer loop
vertex 0.140398 0.069009 0.062984
vertex 0.140398 -0.002225 0.002984
vertex 0.140398 0.069009 0.002984
endloop
endfacet
facet normal -0.957386 -0.215732 -0.192022
outer loop
vertex -0.140398 -0.073433 0.082984
vertex -0.154438 -0.002225 0.072984
vertex -0.140398 -0.002225 0.002984
endloop
endfacet
facet normal -1.000000 0.000000 0.000000
outer loop
vertex -0.140398 -0.073433 0.082984
vertex -0.140398 -0.002225 0.002984
vertex -0.140398 -0.073433 0.002984
endloop
endfacet
facet normal 0.155692 0.137323 -0.978214
outer loop
vertex -0.140398 0.069009 0.002984
vertex -0.014738 0.069009 0.022984
vertex -0.014738 -0.002225 0.012984
endloop
endfacet
facet normal 0.079329 0.000000 -0.996849
outer loop
vertex -0.140398 0.069009 0.002984
vertex -0.014738 -0.002225 0.012984
vertex -0.140398 -0.002225 0.002984
endloop
endfacet
facet normal -0.157181 0.000000 -0.987570
outer loop
vertex 0.014738 0.069009 0.022984
vertex 0.140398 0.069009 0.002984
vertex 0.140398 -0.002225 0.002984
endloop
endfacet
facet normal -0.078563 0.138588 -0.987229
outer loop
vertex 0.014738 0.069009 0.022984
vertex 0.140398 -0.002225 0.002984
vertex 0.014738 -0.002225 0.012984
endloop
endfacet
facet normal -0.547428 0.114262 0.829015
outer loop
vertex -0.126358 -0.063708 0.100000
vertex -0.131974 -0.002224 0.087817
vertex -0.154438 -0.002225 0.072984
endloop
endfacet
facet normal -0.753936 -0.056738 0.654493
outer loop
vertex -0.126358 -0.063708 0.100000
vertex -0.154438 -0.002225 0.072984
vertex -0.140398 -0.073433 0.082984
endloop
endfacet
facet normal -0.941514 -0.243317 0.233126
outer loop
vertex 0.039792 -0.063708 0.100000
vertex 0.019896 -0.002224 0.083817
vertex 0.014738 -0.002225 0.062984
endloop
endfacet
facet normal -0.604488 0.215409 0.766938
outer loop
vertex 0.039792 -0.063708 0.100000
vertex 0.014738 -0.002225 0.062984
vertex 0.014738 -0.073433 0.082984
endloop
endfacet
facet normal 0.943597 0.234618 0.233621
outer loop
vertex -0.033160 0.059270 0.075634
vertex -0.019896 -0.002224 0.083817
vertex -0.014738 -0.002225 0.062984
endloop
endfacet
facet normal 0.566079 0.000000 0.824351
outer loop
vertex -0.033160 0.059270 0.075634
vertex -0.014738 -0.002225 0.062984
vertex -0.014738 0.069009 0.062984
endloop
endfacet
facet normal -0.894612 -0.107542 -0.433709
outer loop
vertex 0.009696 -0.093893 0.463714
vertex 0.009696 -0.002225 0.440984
vertex 0.018422 -0.002225 0.422984
endloop
endfacet
facet normal -0.894613 -0.107542 -0.433708
outer loop
vertex 0.009696 -0.093893 0.463714
vertex 0.018422 -0.002225 0.422984
vertex 0.018422 -0.084726 0.443441
endloop
endfacet
facet normal 0.894613 -0.107542 -0.433707
outer loop
vertex -0.009696 0.089442 0.418254
vertex -0.009696 -0.002225 0.440984
vertex -0.018422 -0.002225 0.422984
endloop
endfacet
facet normal 0.894613 -0.107542 -0.433708
outer loop
vertex -0.009696 0.089442 0.418254
vertex -0.018422 -0.002225 0.422984
vertex -0.018422 0.080275 0.402527
endloop
endfacet
facet normal 0.894613 -0.107542 -0.433707
outer loop
vertex 0.184224 0.089442 0.418254
vertex 0.184224 -0.002225 0.440984
vertex 0.175498 -0.002225 0.422984
endloop
endfacet
facet normal 0.894613 -0.107542 -0.433709
outer loop
vertex 0.184224 0.089442 0.418254
vertex 0.175498 -0.002225 0.422984
vertex 0.175498 0.080275 0.402527
endloop
endfacet
facet normal 0.538658 0.210800 0.815727
outer loop
vertex 0.126358 0.059270 0.075634
vertex 0.131974 -0.002224 0.087817
vertex 0.154438 -0.002225 0.072984
endloop
endfacet
facet normal 0.562800 0.222672 0.796036
outer loop
vertex 0.126358 0.059270 0.075634
vertex 0.154438 -0.002225 0.072984
vertex 0.140398 0.069009 0.062984
endloop
endfacet
facet normal -1.000000 0.000000 0.000000
outer loop
vertex 0.009696 -0.093893 0.472254
vertex 0.009696 -0.002225 0.494984
vertex 0.009696 -0.002225 0.440984
endloop
endfacet
facet normal -1.000000 0.000000 0.000000
outer loop
vertex 0.009696 -0.093893 0.472254
vertex 0.009696 -0.002225 0.440984
vertex 0.009696 -0.093893 0.463714
endloop
endfacet
facet normal 1.000000 0.000000 0.000000
outer loop
vertex -0.009696 0.089442 0.517714
vertex -0.009696 -0.002225 0.494984
vertex -0.009696 -0.002225 0.440984
endloop
endfacet
facet normal 1.000000 0.000000 0.000000
outer loop
vertex -0.009696 0.089442 0.517714
vertex -0.009696 -0.002225 0.440984
vertex -0.009696 0.089442 0.418254
endloop
endfacet
facet normal 1.000000 0.000000 0.000000
outer loop
vertex 0.184224 0.089442 0.517714
vertex 0.184224 -0.002225 0.494984
vertex 0.184224 -0.002225 0.440984
endloop
endfacet
facet normal 1.000000 0.000000 0.000000
outer loop
vertex 0.184224 0.089442 0.517714
vertex 0.184224 -0.002225 0.440984
vertex 0.184224 0.089442 0.418254
endloop
endfacet
facet normal -0.894612 -0.107543 -0.433709
outer loop
vertex -0.184224 -0.093893 0.463714
vertex -0.184224 -0.002225 0.440984
vertex -0.175498 -0.002225 0.422984
endloop
endfacet
facet normal -0.894613 -0.107542 -0.433709
outer loop
vertex -0.184224 -0.093893 0.463714
vertex -0.175498 -0.002225 0.422984
vertex -0.175498 -0.084726 0.443441
endloop
endfacet
facet normal 0.000000 0.000000 0.000000
outer loop
vertex 0.184224 0.089442 0.517714
vertex 0.184224 -0.002225 0.494984
vertex 0.184224 -0.002225 0.494984
endloop
endfacet
facet normal 0.000000 0.000000 0.000000
outer loop
vertex 0.184224 0.089442 0.517714
vertex 0.184224 -0.002225 0.494984
vertex 0.184224 0.089442 0.517714
endloop
endfacet
facet normal 0.000000 0.000000 0.000000
outer loop
vertex -0.009696 0.089442 0.517714
vertex -0.009696 -0.002225 0.494984
vertex -0.009696 -0.002225 0.494984
endloop
endfacet
facet normal 0.000000 0.000000 0.000000
outer loop
vertex -0.009696 0.089442 0.517714
vertex -0.009696 -0.002225 0.494984
vertex -0.009696 0.089442 0.517714
endloop
endfacet
facet normal 0.000000 0.000000 0.000000
outer loop
vertex -0.184224 -0.093893 0.472254
vertex -0.184224 -0.002225 0.494984
vertex -0.184224 -0.002225 0.494984
endloop
endfacet
facet normal 0.000000 0.000000 0.000000
outer loop
vertex -0.184224 -0.093893 0.472254
vertex -0.184224 -0.002225 0.494984
vertex -0.184224 -0.093893 0.472254
endloop
endfacet
facet normal -1.000000 0.000000 0.000000
outer loop
vertex -0.184224 -0.093893 0.472254
vertex -0.184224 -0.002225 0.494984
vertex -0.184224 -0.002225 0.440984
endloop
endfacet
facet normal -1.000000 0.000000 0.000000
outer loop
vertex -0.184224 -0.093893 0.472254
vertex -0.184224 -0.002225 0.440984
vertex -0.184224 -0.093893 0.463714
endloop
endfacet
facet normal 0.999994 0.000000 0.003367
outer loop
vertex -0.010908 0.107782 0.854984
vertex -0.010908 0.000000 0.854984
vertex -0.009696 -0.002225 0.494984
endloop
endfacet
facet normal 0.999993 -0.000903 0.003643
outer loop
vertex -0.010908 0.107782 0.854984
vertex -0.009696 -0.002225 0.494984
vertex -0.009696 0.089442 0.517714
endloop
endfacet
facet normal -0.997960 0.000000 -0.063836
outer loop
vertex -0.207252 -0.107782 0.854984
vertex -0.207252 0.000000 0.854984
vertex -0.184224 -0.002225 0.494984
endloop
endfacet
facet normal -0.998118 0.014758 -0.059519
outer loop
vertex -0.207252 -0.107782 0.854984
vertex -0.184224 -0.002225 0.494984
vertex -0.184224 -0.093893 0.472254
endloop
endfacet
facet normal 0.000000 0.000000 0.000000
outer loop
vertex 0.009696 -0.093893 0.472254
vertex 0.009696 -0.002225 0.494984
vertex 0.009696 -0.002225 0.494984
endloop
endfacet
facet normal 0.000000 0.000000 0.000000
outer loop
vertex 0.009696 -0.093893 0.472254
vertex 0.009696 -0.002225 0.494984
vertex 0.009696 -0.093893 0.472254
endloop
endfacet
facet normal 0.997960 0.000000 -0.063836
outer loop
vertex 0.207252 0.107782 0.854984
vertex 0.207252 0.000000 0.854984
vertex 0.184224 -0.002225 0.494984
endloop
endfacet
facet normal 0.997467 0.017118 -0.069036
outer loop
vertex 0.207252 0.107782 0.854984
vertex 0.184224 -0.002225 0.494984
vertex 0.184224 0.089442 0.517714
endloop
endfacet
facet normal 0.970188 0.000000 -0.242354
outer loop
vertex 0.218160 0.119758 0.898651
vertex 0.218160 0.000000 0.898651
vertex 0.207252 0.000000 0.854984
endloop
endfacet
facet normal 0.970188 0.000000 -0.242354
outer loop
vertex 0.218160 0.119758 0.898651
vertex 0.207252 0.000000 0.854984
vertex 0.207252 0.107782 0.854984
endloop
endfacet
facet normal -0.999994 0.000000 0.003367
outer loop
vertex 0.010908 -0.107782 0.854984
vertex 0.010908 0.000000 0.854984
vertex 0.009696 -0.002225 0.494984
endloop
endfacet
facet normal -0.999995 -0.000778 0.003138
outer loop
vertex 0.010908 -0.107782 0.854984
vertex 0.009696 -0.002225 0.494984
vertex 0.009696 -0.093893 0.472254
endloop
endfacet
facet normal -0.970188 0.000000 -0.242354
outer loop
vertex -0.218160 -0.119758 0.898651
vertex -0.218160 0.000000 0.898651
vertex -0.207252 0.000000 0.854984
endloop
endfacet
facet normal -0.970188 0.000000 -0.242354
outer loop
vertex -0.218160 -0.119758 0.898651
vertex -0.207252 0.000000 0.854984
vertex -0.207252 -0.107782 0.854984
endloop
endfacet
facet normal 0.970188 0.000000 -0.242354
outer loop
vertex 0.000000 0.119758 0.898651
vertex 0.000000 0.000000 0.898651
vertex -0.010908 0.000000 0.854984
endloop
endfacet
facet normal 0.970188 0.000000 -0.242354
outer loop
vertex 0.000000 0.119758 0.898651
vertex -0.010908 0.000000 0.854984
vertex -0.010908 0.107782 0.854984
endloop
endfacet
facet normal 0.998545 0.000000 0.053921
outer loop
vertex 0.216000 0.118572 0.938650
vertex 0.216000 0.000000 0.938650
vertex 0.218160 0.000000 0.898651
endloop
endfacet
facet normal 0.998545 0.000000 0.053921
outer loop
vertex 0.216000 0.118572 0.938650
vertex 0.218160 0.000000 0.898651
vertex 0.218160 0.119758 0.898651
endloop
endfacet
facet normal -0.998545 0.000000 0.053921
outer loop
vertex -0.216000 -0.118572 0.938650
vertex -0.216000 0.000000 0.938650
vertex -0.218160 0.000000 0.898651
endloop
endfacet
facet normal -0.998545 0.000000 0.053921
outer loop
vertex -0.216000 -0.118572 0.938650
vertex -0.218160 0.000000 0.898651
vertex -0.218160 -0.119758 0.898651
endloop
endfacet
facet normal -0.970188 0.000000 -0.242354
outer loop
vertex 0.000000 -0.119758 0.898651
vertex 0.000000 0.000000 0.898651
vertex 0.010908 0.000000 0.854984
endloop
endfacet
facet normal -0.970188 0.000000 -0.242354
outer loop
vertex 0.000000 -0.119758 0.898651
vertex 0.010908 0.000000 0.854984
vertex 0.010908 -0.107782 0.854984
endloop
endfacet
facet normal -0.815700 0.115882 0.566750
outer loop
vertex -0.118974 0.082003 1.837799
vertex -0.128921 0.011674 1.837864
vertex -0.089470 0.012165 1.894543
endloop
endfacet
facet normal -0.783962 0.156852 0.600668
outer loop
vertex -0.118974 0.082003 1.837799
vertex -0.089470 0.012165 1.894543
vertex -0.085209 0.053267 1.889371
endloop
endfacet
facet normal 0.035885 0.186558 0.981788
outer loop
vertex 0.085209 0.053267 1.889371
vertex 0.000000 0.069657 1.889371
vertex 0.000000 -0.004533 1.903468
endloop
endfacet
facet normal 0.073957 0.132059 0.988479
outer loop
vertex 0.085209 0.053267 1.889371
vertex 0.000000 -0.004533 1.903468
vertex 0.089470 0.012165 1.894543
endloop
endfacet
facet normal -0.024489 0.127319 0.991560
outer loop
vertex 0.000000 0.069657 1.889371
vertex -0.085209 0.053267 1.889371
vertex -0.089470 0.012165 1.894543
endloop
endfacet
facet normal -0.063038 0.186307 0.980467
outer loop
vertex 0.000000 0.069657 1.889371
vertex -0.089470 0.012165 1.894543
vertex 0.000000 -0.004533 1.903468
endloop
endfacet
facet normal -0.991346 0.131271 -0.000677
outer loop
vertex -0.118974 0.086264 1.736495
vertex -0.128921 0.011152 1.736686
vertex -0.128921 0.011674 1.837864
endloop
endfacet
facet normal -0.990129 0.140034 0.005891
outer loop
vertex -0.118974 0.086264 1.736495
vertex -0.128921 0.011674 1.837864
vertex -0.118974 0.082003 1.837799
endloop
endfacet
facet normal 0.958151 -0.286260 0.001477
outer loop
vertex 0.085662 -0.133565 1.751597
vertex 0.128921 0.011152 1.736686
vertex 0.128921 0.011674 1.837864
endloop
endfacet
facet normal 0.948695 -0.312224 0.049933
outer loop
vertex 0.085662 -0.133565 1.751597
vertex 0.128921 0.011674 1.837864
vertex 0.085662 -0.119092 1.842096
endloop
endfacet
facet normal 0.794758 -0.244945 0.555304
outer loop
vertex 0.085662 -0.119092 1.842096
vertex 0.128921 0.011674 1.837864
vertex 0.089470 0.012165 1.894543
endloop
endfacet
facet normal 0.991431 -0.072252 0.108830
outer loop
vertex 0.085662 -0.119092 1.842096
vertex 0.089470 0.012165 1.894543
vertex 0.085209 -0.069150 1.879371
endloop
endfacet
facet normal -0.923653 0.244628 -0.294994
outer loop
vertex -0.079192 0.062945 1.623929
vertex -0.090115 0.011933 1.615829
vertex -0.128921 0.011152 1.736686
endloop
endfacet
facet normal -0.927608 0.121936 -0.353095
outer loop
vertex -0.079192 0.062945 1.623929
vertex -0.128921 0.011152 1.736686
vertex -0.118974 0.086264 1.736495
endloop
endfacet
facet normal 0.933544 -0.194651 -0.301009
outer loop
vertex 0.079192 -0.079270 1.640929
vertex 0.090115 0.011933 1.615829
vertex 0.128921 0.011152 1.736686
endloop
endfacet
facet normal 0.932573 -0.299526 -0.201475
outer loop
vertex 0.079192 -0.079270 1.640929
vertex 0.128921 0.011152 1.736686
vertex 0.085662 -0.133565 1.751597
endloop
endfacet
facet normal -0.951139 0.000000 0.308764
outer loop
vertex -0.090231 0.076499 1.569798
vertex -0.090231 -0.001333 1.569798
vertex -0.076696 -0.002609 1.611491
endloop
endfacet
facet normal -0.951138 0.000000 0.308766
outer loop
vertex -0.090231 0.076499 1.569798
vertex -0.076696 -0.002609 1.611491
vertex -0.076696 0.063548 1.611491
endloop
endfacet
facet normal 0.307623 0.000000 -0.951508
outer loop
vertex 0.076696 -0.068766 1.611491
vertex 0.076696 -0.002609 1.611491
vertex 0.090115 0.011933 1.615829
endloop
endfacet
facet normal 0.978153 -0.155213 -0.138293
outer loop
vertex 0.076696 -0.068766 1.611491
vertex 0.090115 0.011933 1.615829
vertex 0.079192 -0.079270 1.640929
endloop
endfacet
facet normal -0.307598 0.000000 -0.951516
outer loop
vertex -0.076696 0.063548 1.611491
vertex -0.076696 -0.002609 1.611491
vertex -0.090115 0.011933 1.615829
endloop
endfacet
facet normal -0.955539 0.233254 -0.180383
outer loop
vertex -0.076696 0.063548 1.611491
vertex -0.090115 0.011933 1.615829
vertex -0.079192 0.062945 1.623929
endloop
endfacet
facet normal -0.218270 0.081852 0.972450
outer loop
vertex -0.182801 0.121868 1.538651
vertex -0.228502 0.000000 1.538651
vertex -0.090231 -0.001333 1.569798
endloop
endfacet
facet normal -0.318907 0.000000 0.947786
outer loop
vertex -0.182801 0.121868 1.538651
vertex -0.090231 -0.001333 1.569798
vertex -0.090231 0.076499 1.569798
endloop
endfacet
facet normal 0.219768 -0.082413 0.972065
outer loop
vertex 0.182801 -0.121868 1.538651
vertex 0.228502 0.000000 1.538651
vertex 0.090231 -0.001333 1.569798
endloop
endfacet
facet normal 0.318905 0.000000 0.947787
outer loop
vertex 0.182801 -0.121868 1.538651
vertex 0.090231 -0.001333 1.569798
vertex 0.090231 -0.079165 1.569798
endloop
endfacet
facet normal 0.951138 0.000000 0.308766
outer loop
vertex 0.090231 -0.079165 1.569798
vertex 0.090231 -0.001333 1.569798
vertex 0.076696 -0.002609 1.611491
endloop
endfacet
facet normal 0.951138 0.000000 0.308766
outer loop
vertex 0.090231 -0.079165 1.569798
vertex 0.076696 -0.002609 1.611491
vertex 0.076696 -0.068766 1.611491
endloop
endfacet
facet normal -0.817825 0.000000 -0.575467
outer loop
vertex -0.240000 0.160000 1.333196
vertex -0.240000 0.000000 1.333196
vertex -0.264232 0.000000 1.367633
endloop
endfacet
facet normal -0.817825 0.000000 -0.575467
outer loop
vertex -0.240000 0.160000 1.333196
vertex -0.264232 0.000000 1.367633
vertex -0.264232 0.096000 1.367633
endloop
endfacet
facet normal 0.882359 0.000000 -0.470576
outer loop
vertex 0.240000 -0.160000 1.333196
vertex 0.240000 0.000000 1.333196
vertex 0.260848 0.000000 1.372287
endloop
endfacet
facet normal 0.882359 0.000000 -0.470577
outer loop
vertex 0.240000 -0.160000 1.333196
vertex 0.260848 0.000000 1.372287
vertex 0.260848 -0.096000 1.372287
endloop
endfacet
facet normal -0.998155 0.000000 -0.060717
outer loop
vertex -0.216000 -0.118572 0.938650
vertex -0.240000 -0.160000 1.333196
vertex -0.240000 0.000000 1.333196
endloop
endfacet
facet normal -0.998155 0.000000 -0.060717
outer loop
vertex -0.216000 -0.118572 0.938650
vertex -0.240000 0.000000 1.333196
vertex -0.216000 0.000000 0.938650
endloop
endfacet
facet normal 0.998155 0.000000 -0.060717
outer loop
vertex 0.216000 0.118572 0.938650
vertex 0.240000 0.160000 1.333196
vertex 0.240000 0.000000 1.333196
endloop
endfacet
facet normal 0.998155 0.000000 -0.060717
outer loop
vertex 0.216000 0.118572 0.938650
vertex 0.240000 0.000000 1.333196
vertex 0.216000 0.000000 0.938650
endloop
endfacet
facet normal 0.530264 0.198849 0.824184
outer loop
vertex 0.182801 0.121868 1.538651
vertex 0.228502 0.000000 1.538651
vertex 0.355687 0.000000 1.456822
endloop
endfacet
facet normal 0.427811 0.000000 0.903868
outer loop
vertex 0.182801 0.121868 1.538651
vertex 0.355687 0.000000 1.456822
vertex 0.355687 0.080000 1.456822
endloop
endfacet
facet normal -0.518896 -0.194586 0.832396
outer loop
vertex -0.182801 -0.121868 1.538651
vertex -0.228502 0.000000 1.538651
vertex -0.352303 0.000000 1.461476
endloop
endfacet
facet normal -0.414374 0.000000 0.910106
outer loop
vertex -0.182801 -0.121868 1.538651
vertex -0.352303 0.000000 1.461476
vertex -0.352303 -0.080000 1.461476
endloop
endfacet
facet normal -0.993164 0.000000 -0.116728
outer loop
vertex -0.308181 -0.031038 0.685592
vertex -0.308181 0.046919 0.685592
vertex -0.296428 0.038716 0.585592
endloop
endfacet
facet normal -0.993164 0.000000 -0.116728
outer loop
vertex -0.308181 -0.031038 0.685592
vertex -0.296428 0.038716 0.585592
vertex -0.296428 -0.022268 0.585592
endloop
endfacet
facet normal -0.260872 0.947734 -0.183704
outer loop
vertex -0.308181 0.046919 0.685592
vertex -0.268958 0.057314 0.683517
vertex -0.272894 0.036847 0.583517
endloop
endfacet
facet normal 0.072546 0.994684 -0.073075
outer loop
vertex -0.308181 0.046919 0.685592
vertex -0.272894 0.036847 0.583517
vertex -0.296428 0.038716 0.585592
endloop
endfacet
facet normal -0.011601 -0.568820 0.822380
outer loop
vertex -0.266950 -0.020160 0.693697
vertex -0.310170 -0.016800 0.695412
vertex -0.308181 -0.031038 0.685592
endloop
endfacet
facet normal -0.025820 -0.532535 0.846014
outer loop
vertex -0.266950 -0.020160 0.693697
vertex -0.308181 -0.031038 0.685592
vertex -0.268958 -0.036235 0.683517
endloop
endfacet
facet normal 0.980272 0.000000 -0.197653
outer loop
vertex 0.309308 0.033600 0.695352
vertex 0.309308 -0.016800 0.695352
vertex 0.307326 -0.031038 0.685519
endloop
endfacet
facet normal 0.980271 0.000000 -0.197658
outer loop
vertex 0.309308 0.033600 0.695352
vertex 0.307326 -0.031038 0.685519
vertex 0.307326 0.046919 0.685519
endloop
endfacet
facet normal -0.980083 0.000000 -0.198589
outer loop
vertex -0.310170 -0.016800 0.695412
vertex -0.310170 0.033600 0.695412
vertex -0.308181 0.046919 0.685592
endloop
endfacet
facet normal -0.980083 0.000000 -0.198590
outer loop
vertex -0.310170 -0.016800 0.695412
vertex -0.308181 0.046919 0.685592
vertex -0.308181 -0.031038 0.685592
endloop
endfacet
facet normal 0.010416 -0.533607 0.845668
outer loop
vertex 0.309308 -0.016800 0.695352
vertex 0.266640 -0.020160 0.693757
vertex 0.268604 -0.036235 0.683590
endloop
endfacet
facet normal 0.035813 -0.571259 0.819988
outer loop
vertex 0.309308 -0.016800 0.695352
vertex 0.268604 -0.036235 0.683590
vertex 0.307326 -0.031038 0.685519
endloop
endfacet
facet normal 0.981094 0.000000 -0.193532
outer loop
vertex -0.266950 0.040320 0.693697
vertex -0.266950 -0.020160 0.693697
vertex -0.268958 -0.036235 0.683517
endloop
endfacet
facet normal 0.981094 0.000000 -0.193530
outer loop
vertex -0.266950 0.040320 0.693697
vertex -0.268958 -0.036235 0.683517
vertex -0.268958 0.057314 0.683517
endloop
endfacet
facet normal -0.045120 0.509440 0.859322
outer loop
vertex -0.310170 0.033600 0.695412
vertex -0.266950 0.040320 0.693697
vertex -0.268958 0.057314 0.683517
endloop
endfacet
facet normal -0.117343 0.600619 0.790878
outer loop
vertex -0.310170 0.033600 0.695412
vertex -0.268958 0.057314 0.683517
vertex -0.308181 0.046919 0.685592
endloop
endfacet
facet normal -0.087804 0.000000 -0.996138
outer loop
vertex -0.272894 -0.026334 0.583517
vertex -0.296428 -0.022268 0.585592
vertex -0.296428 0.038716 0.585592
endloop
endfacet
facet normal -0.087804 0.000000 -0.996138
outer loop
vertex -0.272894 -0.026334 0.583517
vertex -0.296428 0.038716 0.585592
vertex -0.272894 0.036847 0.583517
endloop
endfacet
facet normal 0.082760 0.000000 -0.996570
outer loop
vertex 0.295490 -0.022268 0.585519
vertex 0.272257 -0.026334 0.583590
vertex 0.272257 0.036847 0.583590
endloop
endfacet
facet normal 0.082767 0.000000 -0.996569
outer loop
vertex 0.295490 -0.022268 0.585519
vertex 0.272257 0.036847 0.583590
vertex 0.295490 0.038716 0.585519
endloop
endfacet
facet normal -0.999334 0.000000 -0.036504
outer loop
vertex 0.268604 -0.036235 0.683590
vertex 0.268604 0.057314 0.683590
vertex 0.272257 0.036847 0.583590
endloop
endfacet
facet normal -0.999333 0.000000 -0.036504
outer loop
vertex 0.268604 -0.036235 0.683590
vertex 0.272257 0.036847 0.583590
vertex 0.272257 -0.026334 0.583590
endloop
endfacet
facet normal 0.262791 0.958591 -0.109744
outer loop
vertex 0.268604 0.057314 0.683590
vertex 0.307326 0.046919 0.685519
vertex 0.295490 0.038716 0.585519
endloop
endfacet
facet normal -0.061816 0.977372 -0.202296
outer loop
vertex 0.268604 0.057314 0.683590
vertex 0.295490 0.038716 0.585519
vertex 0.272257 0.036847 0.583590
endloop
endfacet
facet normal -0.135985 -0.985405 -0.102398
outer loop
vertex -0.268958 -0.036235 0.683517
vertex -0.308181 -0.031038 0.685592
vertex -0.296428 -0.022268 0.585592
endloop
endfacet
facet normal -0.177245 -0.980038 -0.090058
outer loop
vertex -0.268958 -0.036235 0.683517
vertex -0.296428 -0.022268 0.585592
vertex -0.272894 -0.026334 0.583517
endloop
endfacet
facet normal 0.993069 0.000000 -0.117537
outer loop
vertex 0.307326 0.046919 0.685519
vertex 0.307326 -0.031038 0.685519
vertex 0.295490 -0.022268 0.585519
endloop
endfacet
facet normal 0.993068 0.000000 -0.117537
outer loop
vertex 0.307326 0.046919 0.685519
vertex 0.295490 -0.022268 0.585519
vertex 0.295490 0.038716 0.585519
endloop
endfacet
facet normal 0.999226 0.000000 -0.039329
outer loop
vertex -0.268958 0.057314 0.683517
vertex -0.268958 -0.036235 0.683517
vertex -0.272894 -0.026334 0.583517
endloop
endfacet
facet normal 0.999226 0.000000 -0.039329
outer loop
vertex -0.268958 0.057314 0.683517
vertex -0.272894 -0.026334 0.583517
vertex -0.272894 0.036847 0.583517
endloop
endfacet
facet normal 0.136988 -0.986231 -0.092644
outer loop
vertex 0.307326 -0.031038 0.685519
vertex 0.268604 -0.036235 0.683590
vertex 0.272257 -0.026334 0.583590
endloop
endfacet
facet normal 0.180003 -0.977823 -0.107056
outer loop
vertex 0.307326 -0.031038 0.685519
vertex 0.272257 -0.026334 0.583590
vertex 0.295490 -0.022268 0.585519
endloop
endfacet
facet normal 0.999990 -0.001077 -0.004345
outer loop
vertex -0.018422 0.080275 0.402527
vertex -0.018422 -0.002225 0.422984
vertex -0.019896 -0.002224 0.083817
endloop
endfacet
facet normal 0.977462 0.203234 -0.057128
outer loop
vertex -0.018422 0.080275 0.402527
vertex -0.019896 -0.002224 0.083817
vertex -0.033160 0.059270 0.075634
endloop
endfacet
facet normal -0.991169 -0.031915 -0.128709
outer loop
vertex -0.175498 -0.084726 0.443441
vertex -0.175498 -0.002225 0.422984
vertex -0.131974 -0.002224 0.087817
endloop
endfacet
facet normal -0.981843 -0.118961 -0.147762
outer loop
vertex -0.175498 -0.084726 0.443441
vertex -0.131974 -0.002224 0.087817
vertex -0.126358 -0.063708 0.100000
endloop
endfacet
facet normal -0.988579 -0.036270 -0.146275
outer loop
vertex -0.175498 -0.002225 0.422984
vertex -0.175498 0.080275 0.402527
vertex -0.126358 0.059270 0.075634
endloop
endfacet
facet normal -0.989582 0.064915 -0.128503
outer loop
vertex -0.175498 -0.002225 0.422984
vertex -0.126358 0.059270 0.075634
vertex -0.131974 -0.002224 0.087817
endloop
endfacet
facet normal 0.000000 -0.998133 -0.061085
outer loop
vertex -0.018422 -0.084726 0.443441
vertex -0.175498 -0.084726 0.443441
vertex -0.126358 -0.063708 0.100000
endloop
endfacet
facet normal 0.000000 -0.998133 -0.061085
outer loop
vertex -0.018422 -0.084726 0.443441
vertex -0.126358 -0.063708 0.100000
vertex -0.039792 -0.063708 0.100000
endloop
endfacet
facet normal 0.000000 0.997942 -0.064127
outer loop
vertex -0.175498 0.080275 0.402527
vertex -0.018422 0.080275 0.402527
vertex -0.033160 0.059270 0.075634
endloop
endfacet
facet normal 0.000000 0.997942 -0.064127
outer loop
vertex -0.175498 0.080275 0.402527
vertex -0.033160 0.059270 0.075634
vertex -0.126358 0.059270 0.075634
endloop
endfacet
facet normal 0.997888 -0.015634 -0.063049
outer loop
vertex -0.018422 -0.002225 0.422984
vertex -0.018422 -0.084726 0.443441
vertex -0.039792 -0.063708 0.100000
endloop
endfacet
facet normal 0.951097 -0.308866 -0.004134
outer loop
vertex -0.018422 -0.002225 0.422984
vertex -0.039792 -0.063708 0.100000
vertex -0.019896 -0.002224 0.083817
endloop
endfacet
facet normal 0.991169 -0.031915 -0.128709
outer loop
vertex 0.175498 0.080275 0.402527
vertex 0.175498 -0.002225 0.422984
vertex 0.131974 -0.002224 0.087817
endloop
endfacet
facet normal 0.986537 0.059952 -0.152151
outer loop
vertex 0.175498 0.080275 0.402527
vertex 0.131974 -0.002224 0.087817
vertex 0.126358 0.059270 0.075634
endloop
endfacet
facet normal -0.999990 -0.001077 -0.004345
outer loop
vertex 0.018422 -0.084726 0.443441
vertex 0.018422 -0.002225 0.422984
vertex 0.019896 -0.002224 0.083817
endloop
endfacet
facet normal -0.942243 -0.325589 -0.078555
outer loop
vertex 0.018422 -0.084726 0.443441
vertex 0.019896 -0.002224 0.083817
vertex 0.039792 -0.063708 0.100000
endloop
endfacet
facet normal 0.000000 -0.998133 -0.061085
outer loop
vertex 0.175498 -0.084726 0.443441
vertex 0.018422 -0.084726 0.443441
vertex 0.039792 -0.063708 0.100000
endloop
endfacet
facet normal 0.000000 -0.998132 -0.061085
outer loop
vertex 0.175498 -0.084726 0.443441
vertex 0.039792 -0.063708 0.100000
vertex 0.126358 -0.063708 0.100000
endloop
endfacet
facet normal -0.998956 -0.010992 -0.044332
outer loop
vertex 0.018422 -0.002225 0.422984
vertex 0.018422 0.080275 0.402527
vertex 0.033160 0.059270 0.075634
endloop
endfacet
facet normal -0.977626 0.210306 -0.004248
outer loop
vertex 0.018422 -0.002225 0.422984
vertex 0.033160 0.059270 0.075634
vertex 0.019896 -0.002224 0.083817
endloop
endfacet
facet normal 0.000000 0.997942 -0.064127
outer loop
vertex 0.018422 0.080275 0.402527
vertex 0.175498 0.080275 0.402527
vertex 0.126358 0.059270 0.075634
endloop
endfacet
facet normal 0.000000 0.997942 -0.064127
outer loop
vertex 0.018422 0.080275 0.402527
vertex 0.126358 0.059270 0.075634
vertex 0.033160 0.059270 0.075634
endloop
endfacet
facet normal 0.988982 -0.035628 -0.143683
outer loop
vertex 0.175498 -0.002225 0.422984
vertex 0.175498 -0.084726 0.443441
vertex 0.126358 -0.063708 0.100000
endloop
endfacet
facet normal 0.985058 -0.115322 -0.127916
outer loop
vertex 0.175498 -0.002225 0.422984
vertex 0.126358 -0.063708 0.100000
vertex 0.131974 -0.002224 0.087817
endloop
endfacet
endsolid Exported from Blender-3.1.0
