solid Exported from Blender-3.2.0
facet normal 1.000000 0.000000 0.000000
outer loop
vertex 1.000000 -1.150000 2.175486
vertex 1.000000 -0.900000 2.175486
vertex 1.000000 -0.918498 2.336332
endloop
endfacet
facet normal 1.000000 0.000000 0.000000
outer loop
vertex 1.000000 -1.150000 2.175486
vertex 1.000000 -0.918498 2.336332
vertex 1.000000 -1.168498 2.336332
endloop
endfacet
facet normal 0.000000 -1.000000 0.000000
outer loop
vertex -0.750000 -1.000000 -0.086332
vertex -0.750000 -1.000000 0.086332
vertex -1.000000 -1.000000 0.086332
endloop
endfacet
facet normal 0.000000 -1.000000 0.000000
outer loop
vertex -0.750000 -1.000000 -0.086332
vertex -1.000000 -1.000000 0.086332
vertex -1.000000 -1.000000 -0.086332
endloop
endfacet
facet normal -1.000000 0.000000 0.000000
outer loop
vertex -1.000000 0.750000 -0.086332
vertex -1.000000 0.750000 0.086332
vertex -1.000000 1.000000 0.086332
endloop
endfacet
facet normal -1.000000 0.000000 0.000000
outer loop
vertex -1.000000 0.750000 -0.086332
vertex -1.000000 1.000000 0.086332
vertex -1.000000 1.000000 -0.086332
endloop
endfacet
facet normal 1.000000 0.000000 0.000000
outer loop
vertex 1.000000 1.000000 -0.086332
vertex 1.000000 0.750000 -0.086332
vertex 1.000000 0.750000 -1.586332
endloop
endfacet
facet normal 1.000000 0.000000 0.000000
outer loop
vertex 1.000000 1.000000 -0.086332
vertex 1.000000 0.750000 -1.586332
vertex 1.000000 1.000000 -1.586332
endloop
endfacet
facet normal 1.000000 0.000000 0.000000
outer loop
vertex 1.000000 -0.750000 -0.086332
vertex 1.000000 -0.750000 0.086332
vertex 1.000000 -1.000000 0.086332
endloop
endfacet
facet normal 1.000000 0.000000 0.000000
outer loop
vertex 1.000000 -0.750000 -0.086332
vertex 1.000000 -1.000000 0.086332
vertex 1.000000 -1.000000 -0.086332
endloop
endfacet
facet normal 0.000000 1.000000 0.000000
outer loop
vertex 0.750000 1.000000 -0.086332
vertex 0.750000 1.000000 0.086332
vertex 1.000000 1.000000 0.086332
endloop
endfacet
facet normal 0.000000 1.000000 0.000000
outer loop
vertex 0.750000 1.000000 -0.086332
vertex 1.000000 1.000000 0.086332
vertex 1.000000 1.000000 -0.086332
endloop
endfacet
facet normal 1.000000 0.000000 0.000000
outer loop
vertex 1.000000 0.750000 -0.086332
vertex 1.000000 0.750000 0.086332
vertex 1.000000 0.000000 0.086332
endloop
endfacet
facet normal 1.000000 0.000000 0.000000
outer loop
vertex 1.000000 0.750000 -0.086332
vertex 1.000000 0.000000 0.086332
vertex 1.000000 0.000000 -0.086332
endloop
endfacet
facet normal 0.000000 0.000000 -1.000000
outer loop
vertex 0.750000 0.750000 -0.086332
vertex 1.000000 0.750000 -0.086332
vertex 1.000000 0.000000 -0.086332
endloop
endfacet
facet normal 0.000000 0.000000 -1.000000
outer loop
vertex 0.750000 0.750000 -0.086332
vertex 1.000000 0.000000 -0.086332
vertex 0.750000 0.000000 -0.086332
endloop
endfacet
facet normal -1.000000 0.000000 0.000000
outer loop
vertex -1.000000 -0.750000 -0.086332
vertex -1.000000 -0.750000 0.086332
vertex -1.000000 0.000000 0.086332
endloop
endfacet
facet normal -1.000000 0.000000 0.000000
outer loop
vertex -1.000000 -0.750000 -0.086332
vertex -1.000000 0.000000 0.086332
vertex -1.000000 0.000000 -0.086332
endloop
endfacet
facet normal 0.000000 0.000000 1.000000
outer loop
vertex -0.750000 0.750000 0.086332
vertex -1.000000 0.750000 0.086332
vertex -1.000000 0.000000 0.086332
endloop
endfacet
facet normal 0.000000 0.000000 1.000000
outer loop
vertex -0.750000 0.750000 0.086332
vertex -1.000000 0.000000 0.086332
vertex -0.750000 0.000000 0.086332
endloop
endfacet
facet normal 0.000000 0.000000 1.000000
outer loop
vertex 0.750000 0.750000 0.086332
vertex 0.000000 0.750000 0.086332
vertex 0.000000 0.000000 0.086332
endloop
endfacet
facet normal 0.000000 0.000000 1.000000
outer loop
vertex 0.750000 0.750000 0.086332
vertex 0.000000 0.000000 0.086332
vertex 0.750000 0.000000 0.086332
endloop
endfacet
facet normal 0.000000 0.000000 -1.000000
outer loop
vertex -0.750000 0.750000 -0.086332
vertex 0.000000 0.750000 -0.086332
vertex 0.000000 0.000000 -0.086332
endloop
endfacet
facet normal 0.000000 0.000000 -1.000000
outer loop
vertex -0.750000 0.750000 -0.086332
vertex 0.000000 0.000000 -0.086332
vertex -0.750000 0.000000 -0.086332
endloop
endfacet
facet normal 0.000000 1.000000 0.000000
outer loop
vertex -0.750000 1.000000 -0.086332
vertex -0.750000 1.000000 0.086332
vertex 0.000000 1.000000 0.086332
endloop
endfacet
facet normal 0.000000 1.000000 0.000000
outer loop
vertex -0.750000 1.000000 -0.086332
vertex 0.000000 1.000000 0.086332
vertex 0.000000 1.000000 -0.086332
endloop
endfacet
facet normal 0.000000 0.000000 -1.000000
outer loop
vertex -0.750000 -0.750000 -0.086332
vertex 0.000000 -0.750000 -0.086332
vertex 0.000000 -1.000000 -0.086332
endloop
endfacet
facet normal 0.000000 0.000000 -1.000000
outer loop
vertex -0.750000 -0.750000 -0.086332
vertex 0.000000 -1.000000 -0.086332
vertex -0.750000 -1.000000 -0.086332
endloop
endfacet
facet normal 0.000000 -1.000000 0.000000
outer loop
vertex 0.750000 -1.000000 -0.086332
vertex 0.750000 -1.000000 0.086332
vertex 0.000000 -1.000000 0.086332
endloop
endfacet
facet normal 0.000000 -1.000000 0.000000
outer loop
vertex 0.750000 -1.000000 -0.086332
vertex 0.000000 -1.000000 0.086332
vertex 0.000000 -1.000000 -0.086332
endloop
endfacet
facet normal 0.000000 0.000000 1.000000
outer loop
vertex 0.750000 -0.750000 0.086332
vertex 0.000000 -0.750000 0.086332
vertex 0.000000 -1.000000 0.086332
endloop
endfacet
facet normal 0.000000 0.000000 1.000000
outer loop
vertex 0.750000 -0.750000 0.086332
vertex 0.000000 -1.000000 0.086332
vertex 0.750000 -1.000000 0.086332
endloop
endfacet
facet normal -1.000000 0.000000 0.000000
outer loop
vertex 0.750000 0.750000 -0.086332
vertex 0.750000 1.000000 -0.086332
vertex 0.750000 1.000000 -1.586332
endloop
endfacet
facet normal -1.000000 0.000000 0.000000
outer loop
vertex 0.750000 0.750000 -0.086332
vertex 0.750000 1.000000 -1.586332
vertex 0.750000 0.750000 -1.586332
endloop
endfacet
facet normal 0.000000 1.000000 0.000000
outer loop
vertex -1.000000 1.000000 -0.086332
vertex -1.000000 1.000000 0.086332
vertex -0.750000 1.000000 0.086332
endloop
endfacet
facet normal 0.000000 1.000000 0.000000
outer loop
vertex -1.000000 1.000000 -0.086332
vertex -0.750000 1.000000 0.086332
vertex -0.750000 1.000000 -0.086332
endloop
endfacet
facet normal 0.000000 0.000000 -1.000000
outer loop
vertex -1.000000 0.750000 -0.086332
vertex -0.750000 0.750000 -0.086332
vertex -0.750000 0.000000 -0.086332
endloop
endfacet
facet normal 0.000000 0.000000 -1.000000
outer loop
vertex -1.000000 0.750000 -0.086332
vertex -0.750000 0.000000 -0.086332
vertex -1.000000 0.000000 -0.086332
endloop
endfacet
facet normal 0.000000 0.000000 1.000000
outer loop
vertex 0.000000 0.750000 0.086332
vertex -0.750000 0.750000 0.086332
vertex -0.750000 0.000000 0.086332
endloop
endfacet
facet normal 0.000000 0.000000 1.000000
outer loop
vertex 0.000000 0.750000 0.086332
vertex -0.750000 0.000000 0.086332
vertex 0.000000 0.000000 0.086332
endloop
endfacet
facet normal 0.000000 -1.000000 0.000000
outer loop
vertex 0.000000 -1.000000 -0.086332
vertex 0.000000 -1.000000 0.086332
vertex -0.750000 -1.000000 0.086332
endloop
endfacet
facet normal 0.000000 -1.000000 0.000000
outer loop
vertex 0.000000 -1.000000 -0.086332
vertex -0.750000 -1.000000 0.086332
vertex -0.750000 -1.000000 -0.086332
endloop
endfacet
facet normal 0.000000 0.000000 1.000000
outer loop
vertex 0.000000 -0.750000 0.086332
vertex -0.750000 -0.750000 0.086332
vertex -0.750000 -1.000000 0.086332
endloop
endfacet
facet normal 0.000000 0.000000 1.000000
outer loop
vertex 0.000000 -0.750000 0.086332
vertex -0.750000 -1.000000 0.086332
vertex 0.000000 -1.000000 0.086332
endloop
endfacet
facet normal 0.000000 0.993452 0.114250
outer loop
vertex -0.750000 -0.900000 2.175486
vertex -1.000000 -0.900000 2.175486
vertex -1.000000 -0.918498 2.336332
endloop
endfacet
facet normal 0.000000 0.993452 0.114250
outer loop
vertex -0.750000 -0.900000 2.175486
vertex -1.000000 -0.918498 2.336332
vertex -0.750000 -0.918498 2.336332
endloop
endfacet
facet normal 0.000000 -1.000000 0.000000
outer loop
vertex 1.000000 -1.000000 -0.086332
vertex 1.000000 -1.000000 0.086332
vertex 0.750000 -1.000000 0.086332
endloop
endfacet
facet normal 0.000000 -1.000000 0.000000
outer loop
vertex 1.000000 -1.000000 -0.086332
vertex 0.750000 -1.000000 0.086332
vertex 0.750000 -1.000000 -0.086332
endloop
endfacet
facet normal 0.000000 0.000000 1.000000
outer loop
vertex 1.000000 0.750000 0.086332
vertex 0.750000 0.750000 0.086332
vertex 0.750000 0.000000 0.086332
endloop
endfacet
facet normal 0.000000 0.000000 1.000000
outer loop
vertex 1.000000 0.750000 0.086332
vertex 0.750000 0.000000 0.086332
vertex 1.000000 0.000000 0.086332
endloop
endfacet
facet normal 0.000000 0.000000 -1.000000
outer loop
vertex 0.000000 0.750000 -0.086332
vertex 0.750000 0.750000 -0.086332
vertex 0.750000 0.000000 -0.086332
endloop
endfacet
facet normal 0.000000 0.000000 -1.000000
outer loop
vertex 0.000000 0.750000 -0.086332
vertex 0.750000 0.000000 -0.086332
vertex 0.000000 0.000000 -0.086332
endloop
endfacet
facet normal 0.000000 1.000000 0.000000
outer loop
vertex 0.000000 1.000000 -0.086332
vertex 0.000000 1.000000 0.086332
vertex 0.750000 1.000000 0.086332
endloop
endfacet
facet normal 0.000000 1.000000 0.000000
outer loop
vertex 0.000000 1.000000 -0.086332
vertex 0.750000 1.000000 0.086332
vertex 0.750000 1.000000 -0.086332
endloop
endfacet
facet normal 0.000000 0.000000 -1.000000
outer loop
vertex 0.000000 -0.750000 -0.086332
vertex 0.750000 -0.750000 -0.086332
vertex 0.750000 -1.000000 -0.086332
endloop
endfacet
facet normal 0.000000 0.000000 -1.000000
outer loop
vertex 0.000000 -0.750000 -0.086332
vertex 0.750000 -1.000000 -0.086332
vertex 0.000000 -1.000000 -0.086332
endloop
endfacet
facet normal 0.000000 0.000000 -1.000000
outer loop
vertex 0.000000 0.000000 -0.086332
vertex 0.750000 0.000000 -0.086332
vertex 0.750000 -0.750000 -0.086332
endloop
endfacet
facet normal 0.000000 0.000000 -1.000000
outer loop
vertex 0.000000 0.000000 -0.086332
vertex 0.750000 -0.750000 -0.086332
vertex 0.000000 -0.750000 -0.086332
endloop
endfacet
facet normal 0.000000 0.000000 1.000000
outer loop
vertex 1.000000 0.000000 0.086332
vertex 0.750000 0.000000 0.086332
vertex 0.750000 -0.750000 0.086332
endloop
endfacet
facet normal 0.000000 0.000000 1.000000
outer loop
vertex 1.000000 0.000000 0.086332
vertex 0.750000 -0.750000 0.086332
vertex 1.000000 -0.750000 0.086332
endloop
endfacet
facet normal 0.000000 0.000000 1.000000
outer loop
vertex 0.000000 0.000000 0.086332
vertex -0.750000 0.000000 0.086332
vertex -0.750000 -0.750000 0.086332
endloop
endfacet
facet normal 0.000000 0.000000 1.000000
outer loop
vertex 0.000000 0.000000 0.086332
vertex -0.750000 -0.750000 0.086332
vertex 0.000000 -0.750000 0.086332
endloop
endfacet
facet normal 0.000000 0.000000 -1.000000
outer loop
vertex -1.000000 0.000000 -0.086332
vertex -0.750000 0.000000 -0.086332
vertex -0.750000 -0.750000 -0.086332
endloop
endfacet
facet normal 0.000000 0.000000 -1.000000
outer loop
vertex -1.000000 0.000000 -0.086332
vertex -0.750000 -0.750000 -0.086332
vertex -1.000000 -0.750000 -0.086332
endloop
endfacet
facet normal 0.000000 0.000000 1.000000
outer loop
vertex 0.750000 0.000000 0.086332
vertex 0.000000 0.000000 0.086332
vertex 0.000000 -0.750000 0.086332
endloop
endfacet
facet normal 0.000000 0.000000 1.000000
outer loop
vertex 0.750000 0.000000 0.086332
vertex 0.000000 -0.750000 0.086332
vertex 0.750000 -0.750000 0.086332
endloop
endfacet
facet normal 0.000000 0.000000 -1.000000
outer loop
vertex -0.750000 0.000000 -0.086332
vertex 0.000000 0.000000 -0.086332
vertex 0.000000 -0.750000 -0.086332
endloop
endfacet
facet normal 0.000000 0.000000 -1.000000
outer loop
vertex -0.750000 0.000000 -0.086332
vertex 0.000000 -0.750000 -0.086332
vertex -0.750000 -0.750000 -0.086332
endloop
endfacet
facet normal -1.000000 0.000000 0.000000
outer loop
vertex -1.000000 -1.000000 -0.086332
vertex -1.000000 -1.000000 0.086332
vertex -1.000000 -0.750000 0.086332
endloop
endfacet
facet normal -1.000000 0.000000 0.000000
outer loop
vertex -1.000000 -1.000000 -0.086332
vertex -1.000000 -0.750000 0.086332
vertex -1.000000 -0.750000 -0.086332
endloop
endfacet
facet normal 1.000000 0.000000 0.000000
outer loop
vertex 1.000000 0.000000 -0.086332
vertex 1.000000 0.000000 0.086332
vertex 1.000000 -0.750000 0.086332
endloop
endfacet
facet normal 1.000000 0.000000 0.000000
outer loop
vertex 1.000000 0.000000 -0.086332
vertex 1.000000 -0.750000 0.086332
vertex 1.000000 -0.750000 -0.086332
endloop
endfacet
facet normal 0.000000 0.000000 -1.000000
outer loop
vertex 0.750000 0.000000 -0.086332
vertex 1.000000 0.000000 -0.086332
vertex 1.000000 -0.750000 -0.086332
endloop
endfacet
facet normal 0.000000 0.000000 -1.000000
outer loop
vertex 0.750000 0.000000 -0.086332
vertex 1.000000 -0.750000 -0.086332
vertex 0.750000 -0.750000 -0.086332
endloop
endfacet
facet normal 0.000000 0.000000 1.000000
outer loop
vertex -0.750000 0.000000 0.086332
vertex -1.000000 0.000000 0.086332
vertex -1.000000 -0.750000 0.086332
endloop
endfacet
facet normal 0.000000 0.000000 1.000000
outer loop
vertex -0.750000 0.000000 0.086332
vertex -1.000000 -0.750000 0.086332
vertex -0.750000 -0.750000 0.086332
endloop
endfacet
facet normal 0.000000 0.000000 -1.000000
outer loop
vertex 0.000000 1.000000 -0.086332
vertex 0.750000 1.000000 -0.086332
vertex 0.750000 0.750000 -0.086332
endloop
endfacet
facet normal 0.000000 0.000000 -1.000000
outer loop
vertex 0.000000 1.000000 -0.086332
vertex 0.750000 0.750000 -0.086332
vertex 0.000000 0.750000 -0.086332
endloop
endfacet
facet normal 0.000000 0.000000 1.000000
outer loop
vertex 1.000000 1.000000 0.086332
vertex 0.750000 1.000000 0.086332
vertex 0.750000 0.750000 0.086332
endloop
endfacet
facet normal 0.000000 0.000000 1.000000
outer loop
vertex 1.000000 1.000000 0.086332
vertex 0.750000 0.750000 0.086332
vertex 1.000000 0.750000 0.086332
endloop
endfacet
facet normal 0.000000 0.000000 1.000000
outer loop
vertex 0.000000 1.000000 0.086332
vertex -0.750000 1.000000 0.086332
vertex -0.750000 0.750000 0.086332
endloop
endfacet
facet normal 0.000000 0.000000 1.000000
outer loop
vertex 0.000000 1.000000 0.086332
vertex -0.750000 0.750000 0.086332
vertex 0.000000 0.750000 0.086332
endloop
endfacet
facet normal -1.000000 0.000000 0.000000
outer loop
vertex 0.750000 -1.000000 -0.086332
vertex 0.750000 -0.750000 -0.086332
vertex 0.750000 -0.750000 -1.586332
endloop
endfacet
facet normal -1.000000 0.000000 0.000000
outer loop
vertex 0.750000 -1.000000 -0.086332
vertex 0.750000 -0.750000 -1.586332
vertex 0.750000 -1.000000 -1.586332
endloop
endfacet
facet normal 0.000000 0.000000 -1.000000
outer loop
vertex -0.750000 1.000000 -0.086332
vertex 0.000000 1.000000 -0.086332
vertex 0.000000 0.750000 -0.086332
endloop
endfacet
facet normal 0.000000 0.000000 -1.000000
outer loop
vertex -0.750000 1.000000 -0.086332
vertex 0.000000 0.750000 -0.086332
vertex -0.750000 0.750000 -0.086332
endloop
endfacet
facet normal 0.000000 0.000000 1.000000
outer loop
vertex 0.750000 1.000000 0.086332
vertex 0.000000 1.000000 0.086332
vertex 0.000000 0.750000 0.086332
endloop
endfacet
facet normal 0.000000 0.000000 1.000000
outer loop
vertex 0.750000 1.000000 0.086332
vertex 0.000000 0.750000 0.086332
vertex 0.750000 0.750000 0.086332
endloop
endfacet
facet normal 0.000000 0.000000 1.000000
outer loop
vertex -0.750000 1.000000 0.086332
vertex -1.000000 1.000000 0.086332
vertex -1.000000 0.750000 0.086332
endloop
endfacet
facet normal 0.000000 0.000000 1.000000
outer loop
vertex -0.750000 1.000000 0.086332
vertex -1.000000 0.750000 0.086332
vertex -0.750000 0.750000 0.086332
endloop
endfacet
facet normal 0.000000 1.000000 0.000000
outer loop
vertex 0.750000 1.000000 -0.086332
vertex 1.000000 1.000000 -0.086332
vertex 1.000000 1.000000 -1.586332
endloop
endfacet
facet normal 0.000000 1.000000 0.000000
outer loop
vertex 0.750000 1.000000 -0.086332
vertex 1.000000 1.000000 -1.586332
vertex 0.750000 1.000000 -1.586332
endloop
endfacet
facet normal 1.000000 0.000000 0.000000
outer loop
vertex 1.000000 1.000000 -0.086332
vertex 1.000000 1.000000 0.086332
vertex 1.000000 0.750000 0.086332
endloop
endfacet
facet normal 1.000000 0.000000 0.000000
outer loop
vertex 1.000000 1.000000 -0.086332
vertex 1.000000 0.750000 0.086332
vertex 1.000000 0.750000 -0.086332
endloop
endfacet
facet normal -1.000000 0.000000 0.000000
outer loop
vertex -1.000000 0.000000 -0.086332
vertex -1.000000 0.000000 0.086332
vertex -1.000000 0.750000 0.086332
endloop
endfacet
facet normal -1.000000 0.000000 0.000000
outer loop
vertex -1.000000 0.000000 -0.086332
vertex -1.000000 0.750000 0.086332
vertex -1.000000 0.750000 -0.086332
endloop
endfacet
facet normal 0.000000 0.000000 -1.000000
outer loop
vertex 0.750000 -0.750000 -1.586332
vertex 1.000000 -0.750000 -1.586332
vertex 1.000000 -1.000000 -1.586332
endloop
endfacet
facet normal 0.000000 0.000000 -1.000000
outer loop
vertex 0.750000 -0.750000 -1.586332
vertex 1.000000 -1.000000 -1.586332
vertex 0.750000 -1.000000 -1.586332
endloop
endfacet
facet normal 0.000000 0.000000 -1.000000
outer loop
vertex -1.000000 -0.750000 -1.586332
vertex -0.750000 -0.750000 -1.586332
vertex -0.750000 -1.000000 -1.586332
endloop
endfacet
facet normal 0.000000 0.000000 -1.000000
outer loop
vertex -1.000000 -0.750000 -1.586332
vertex -0.750000 -1.000000 -1.586332
vertex -1.000000 -1.000000 -1.586332
endloop
endfacet
facet normal 0.000000 0.000000 -1.000000
outer loop
vertex -1.000000 1.000000 -1.586332
vertex -0.750000 1.000000 -1.586332
vertex -0.750000 0.750000 -1.586332
endloop
endfacet
facet normal 0.000000 0.000000 -1.000000
outer loop
vertex -1.000000 1.000000 -1.586332
vertex -0.750000 0.750000 -1.586332
vertex -1.000000 0.750000 -1.586332
endloop
endfacet
facet normal 0.000000 0.000000 -1.000000
outer loop
vertex 0.750000 1.000000 -1.586332
vertex 1.000000 1.000000 -1.586332
vertex 1.000000 0.750000 -1.586332
endloop
endfacet
facet normal 0.000000 0.000000 -1.000000
outer loop
vertex 0.750000 1.000000 -1.586332
vertex 1.000000 0.750000 -1.586332
vertex 0.750000 0.750000 -1.586332
endloop
endfacet
facet normal -1.000000 0.000000 0.000000
outer loop
vertex -1.000000 0.750000 -0.086332
vertex -1.000000 1.000000 -0.086332
vertex -1.000000 1.000000 -1.586332
endloop
endfacet
facet normal -1.000000 0.000000 0.000000
outer loop
vertex -1.000000 0.750000 -0.086332
vertex -1.000000 1.000000 -1.586332
vertex -1.000000 0.750000 -1.586332
endloop
endfacet
facet normal 0.000000 -1.000000 0.000000
outer loop
vertex 1.000000 0.750000 -0.086332
vertex 0.750000 0.750000 -0.086332
vertex 0.750000 0.750000 -1.586332
endloop
endfacet
facet normal 0.000000 -1.000000 0.000000
outer loop
vertex 1.000000 0.750000 -0.086332
vertex 0.750000 0.750000 -1.586332
vertex 1.000000 0.750000 -1.586332
endloop
endfacet
facet normal 0.000000 -1.000000 0.000000
outer loop
vertex -0.750000 -1.000000 -0.086332
vertex -1.000000 -1.000000 -0.086332
vertex -1.000000 -1.000000 -1.586332
endloop
endfacet
facet normal 0.000000 -1.000000 0.000000
outer loop
vertex -0.750000 -1.000000 -0.086332
vertex -1.000000 -1.000000 -1.586332
vertex -0.750000 -1.000000 -1.586332
endloop
endfacet
facet normal 1.000000 0.000000 0.000000
outer loop
vertex 1.000000 -0.750000 -0.086332
vertex 1.000000 -1.000000 -0.086332
vertex 1.000000 -1.000000 -1.586332
endloop
endfacet
facet normal 1.000000 0.000000 0.000000
outer loop
vertex 1.000000 -0.750000 -0.086332
vertex 1.000000 -1.000000 -1.586332
vertex 1.000000 -0.750000 -1.586332
endloop
endfacet
facet normal 0.000000 1.000000 0.000000
outer loop
vertex 0.750000 -0.750000 -0.086332
vertex 1.000000 -0.750000 -0.086332
vertex 1.000000 -0.750000 -1.586332
endloop
endfacet
facet normal 0.000000 1.000000 0.000000
outer loop
vertex 0.750000 -0.750000 -0.086332
vertex 1.000000 -0.750000 -1.586332
vertex 0.750000 -0.750000 -1.586332
endloop
endfacet
facet normal -1.000000 0.000000 0.000000
outer loop
vertex -1.000000 -1.000000 -0.086332
vertex -1.000000 -0.750000 -0.086332
vertex -1.000000 -0.750000 -1.586332
endloop
endfacet
facet normal -1.000000 0.000000 0.000000
outer loop
vertex -1.000000 -1.000000 -0.086332
vertex -1.000000 -0.750000 -1.586332
vertex -1.000000 -1.000000 -1.586332
endloop
endfacet
facet normal 0.000000 -1.000000 0.000000
outer loop
vertex -0.750000 0.750000 -0.086332
vertex -1.000000 0.750000 -0.086332
vertex -1.000000 0.750000 -1.586332
endloop
endfacet
facet normal 0.000000 -1.000000 0.000000
outer loop
vertex -0.750000 0.750000 -0.086332
vertex -1.000000 0.750000 -1.586332
vertex -0.750000 0.750000 -1.586332
endloop
endfacet
facet normal 0.000000 -1.000000 0.000000
outer loop
vertex 1.000000 -1.000000 -0.086332
vertex 0.750000 -1.000000 -0.086332
vertex 0.750000 -1.000000 -1.586332
endloop
endfacet
facet normal 0.000000 -1.000000 0.000000
outer loop
vertex 1.000000 -1.000000 -0.086332
vertex 0.750000 -1.000000 -1.586332
vertex 1.000000 -1.000000 -1.586332
endloop
endfacet
facet normal 1.000000 0.000000 0.000000
outer loop
vertex -0.750000 1.000000 -0.086332
vertex -0.750000 0.750000 -0.086332
vertex -0.750000 0.750000 -1.586332
endloop
endfacet
facet normal 1.000000 0.000000 0.000000
outer loop
vertex -0.750000 1.000000 -0.086332
vertex -0.750000 0.750000 -1.586332
vertex -0.750000 1.000000 -1.586332
endloop
endfacet
facet normal 0.000000 1.000000 0.000000
outer loop
vertex -1.000000 1.000000 -0.086332
vertex -0.750000 1.000000 -0.086332
vertex -0.750000 1.000000 -1.586332
endloop
endfacet
facet normal 0.000000 1.000000 0.000000
outer loop
vertex -1.000000 1.000000 -0.086332
vertex -0.750000 1.000000 -1.586332
vertex -1.000000 1.000000 -1.586332
endloop
endfacet
facet normal 1.000000 0.000000 0.000000
outer loop
vertex -0.750000 -0.750000 -0.086332
vertex -0.750000 -1.000000 -0.086332
vertex -0.750000 -1.000000 -1.586332
endloop
endfacet
facet normal 1.000000 0.000000 0.000000
outer loop
vertex -0.750000 -0.750000 -0.086332
vertex -0.750000 -1.000000 -1.586332
vertex -0.750000 -0.750000 -1.586332
endloop
endfacet
facet normal 0.000000 1.000000 0.000000
outer loop
vertex -1.000000 -0.750000 -0.086332
vertex -0.750000 -0.750000 -0.086332
vertex -0.750000 -0.750000 -1.586332
endloop
endfacet
facet normal 0.000000 1.000000 0.000000
outer loop
vertex -1.000000 -0.750000 -0.086332
vertex -0.750000 -0.750000 -1.586332
vertex -1.000000 -0.750000 -1.586332
endloop
endfacet
facet normal 0.000000 0.000000 1.000000
outer loop
vertex -0.750000 -0.918498 2.336332
vertex -1.000000 -0.918498 2.336332
vertex -1.000000 -1.168498 2.336332
endloop
endfacet
facet normal 0.000000 0.000000 1.000000
outer loop
vertex -0.750000 -0.918498 2.336332
vertex -1.000000 -1.168498 2.336332
vertex -0.750000 -1.168498 2.336332
endloop
endfacet
facet normal 0.000000 0.000000 1.000000
outer loop
vertex 1.000000 -0.918498 2.336332
vertex 0.750000 -0.918498 2.336332
vertex 0.750000 -1.168498 2.336332
endloop
endfacet
facet normal 0.000000 0.000000 1.000000
outer loop
vertex 1.000000 -0.918498 2.336332
vertex 0.750000 -1.168498 2.336332
vertex 1.000000 -1.168498 2.336332
endloop
endfacet
facet normal -1.000000 0.000000 0.000000
outer loop
vertex -1.000000 -0.900000 2.175486
vertex -1.000000 -1.150000 2.175486
vertex -1.000000 -1.168498 2.336332
endloop
endfacet
facet normal -1.000000 0.000000 0.000000
outer loop
vertex -1.000000 -0.900000 2.175486
vertex -1.000000 -1.168498 2.336332
vertex -1.000000 -0.918498 2.336332
endloop
endfacet
facet normal 0.000000 0.993452 0.114250
outer loop
vertex 1.000000 -0.900000 2.175486
vertex 0.750000 -0.900000 2.175486
vertex 0.750000 -0.918498 2.336332
endloop
endfacet
facet normal 0.000000 0.993452 0.114250
outer loop
vertex 1.000000 -0.900000 2.175486
vertex 0.750000 -0.918498 2.336332
vertex 1.000000 -0.918498 2.336332
endloop
endfacet
facet normal 1.000000 0.000000 0.000000
outer loop
vertex -0.750000 -1.150000 2.175486
vertex -0.750000 -0.900000 2.175486
vertex -0.750000 -0.918498 2.336332
endloop
endfacet
facet normal 1.000000 0.000000 0.000000
outer loop
vertex -0.750000 -1.150000 2.175486
vertex -0.750000 -0.918498 2.336332
vertex -0.750000 -1.168498 2.336332
endloop
endfacet
facet normal -1.000000 0.000000 0.000000
outer loop
vertex 0.750000 -0.900000 2.175486
vertex 0.750000 -1.150000 2.175486
vertex 0.750000 -1.168498 2.336332
endloop
endfacet
facet normal -1.000000 0.000000 0.000000
outer loop
vertex 0.750000 -0.900000 2.175486
vertex 0.750000 -1.168498 2.336332
vertex 0.750000 -0.918498 2.336332
endloop
endfacet
facet normal 0.000000 -0.993452 -0.114248
outer loop
vertex -1.000000 -1.150000 2.175486
vertex -0.750000 -1.150000 2.175486
vertex -0.750000 -1.168498 2.336332
endloop
endfacet
facet normal 0.000000 -0.993452 -0.114250
outer loop
vertex -1.000000 -1.150000 2.175486
vertex -0.750000 -1.168498 2.336332
vertex -1.000000 -1.168498 2.336332
endloop
endfacet
facet normal 0.000000 -0.993452 -0.114248
outer loop
vertex 0.750000 -1.150000 2.175486
vertex 1.000000 -1.150000 2.175486
vertex 1.000000 -1.168498 2.336332
endloop
endfacet
facet normal 0.000000 -0.993452 -0.114250
outer loop
vertex 0.750000 -1.150000 2.175486
vertex 1.000000 -1.168498 2.336332
vertex 0.750000 -1.168498 2.336332
endloop
endfacet
facet normal 0.000000 -0.997862 -0.065363
outer loop
vertex 0.750000 -1.000000 0.086332
vertex 1.000000 -1.000000 0.086332
vertex 1.000000 -1.100000 1.612986
endloop
endfacet
facet normal 0.000000 -0.997862 -0.065363
outer loop
vertex 0.750000 -1.000000 0.086332
vertex 1.000000 -1.100000 1.612986
vertex 0.750000 -1.100000 1.612986
endloop
endfacet
facet normal -1.000000 0.000000 0.000000
outer loop
vertex 0.750000 -0.750000 0.086332
vertex 0.750000 -1.000000 0.086332
vertex 0.750000 -1.100000 1.612986
endloop
endfacet
facet normal -1.000000 0.000000 0.000000
outer loop
vertex 0.750000 -0.750000 0.086332
vertex 0.750000 -1.100000 1.612986
vertex 0.750000 -0.850000 1.612986
endloop
endfacet
facet normal 0.000000 0.997862 0.065363
outer loop
vertex 1.000000 -0.750000 0.086332
vertex 0.750000 -0.750000 0.086332
vertex 0.750000 -0.850000 1.612986
endloop
endfacet
facet normal 0.000000 0.997862 0.065363
outer loop
vertex 1.000000 -0.750000 0.086332
vertex 0.750000 -0.850000 1.612986
vertex 1.000000 -0.850000 1.612986
endloop
endfacet
facet normal 1.000000 0.000000 0.000000
outer loop
vertex 1.000000 -1.000000 0.086332
vertex 1.000000 -0.750000 0.086332
vertex 1.000000 -0.850000 1.612986
endloop
endfacet
facet normal 1.000000 0.000000 0.000000
outer loop
vertex 1.000000 -1.000000 0.086332
vertex 1.000000 -0.850000 1.612986
vertex 1.000000 -1.100000 1.612986
endloop
endfacet
facet normal 0.000000 -0.997862 -0.065363
outer loop
vertex -1.000000 -1.000000 0.086332
vertex -0.750000 -1.000000 0.086332
vertex -0.750000 -1.100000 1.612986
endloop
endfacet
facet normal 0.000000 -0.997862 -0.065363
outer loop
vertex -1.000000 -1.000000 0.086332
vertex -0.750000 -1.100000 1.612986
vertex -1.000000 -1.100000 1.612986
endloop
endfacet
facet normal 1.000000 0.000000 0.000000
outer loop
vertex -0.750000 -1.000000 0.086332
vertex -0.750000 -0.750000 0.086332
vertex -0.750000 -0.850000 1.612986
endloop
endfacet
facet normal 1.000000 0.000000 0.000000
outer loop
vertex -0.750000 -1.000000 0.086332
vertex -0.750000 -0.850000 1.612986
vertex -0.750000 -1.100000 1.612986
endloop
endfacet
facet normal -1.000000 0.000000 0.000000
outer loop
vertex -1.000000 -0.750000 0.086332
vertex -1.000000 -1.000000 0.086332
vertex -1.000000 -1.100000 1.612986
endloop
endfacet
facet normal -1.000000 0.000000 0.000000
outer loop
vertex -1.000000 -0.750000 0.086332
vertex -1.000000 -1.100000 1.612986
vertex -1.000000 -0.850000 1.612986
endloop
endfacet
facet normal 0.000000 0.997862 0.065363
outer loop
vertex -0.750000 -0.750000 0.086332
vertex -1.000000 -0.750000 0.086332
vertex -1.000000 -0.850000 1.612986
endloop
endfacet
facet normal 0.000000 0.997862 0.065363
outer loop
vertex -0.750000 -0.750000 0.086332
vertex -1.000000 -0.850000 1.612986
vertex -0.750000 -0.850000 1.612986
endloop
endfacet
facet normal 0.000000 -0.996073 -0.088540
outer loop
vertex 0.750000 -1.100000 1.612986
vertex 1.000000 -1.100000 1.612986
vertex 1.000000 -1.150000 2.175486
endloop
endfacet
facet normal 0.000000 -0.996073 -0.088540
outer loop
vertex 0.750000 -1.100000 1.612986
vertex 1.000000 -1.150000 2.175486
vertex 0.750000 -1.150000 2.175486
endloop
endfacet
facet normal -1.000000 0.000000 0.000000
outer loop
vertex 0.750000 -1.150000 2.175486
vertex 0.750000 -0.900000 2.175486
vertex 0.750000 -1.044333 2.170938
endloop
endfacet
facet normal -1.000000 0.000000 0.000000
outer loop
vertex 0.750000 -1.150000 2.175486
vertex 0.750000 -1.044333 2.170938
vertex 0.750000 -1.121786 2.168233
endloop
endfacet
facet normal 0.000000 0.996073 0.088540
outer loop
vertex 1.000000 -0.850000 1.612986
vertex 0.750000 -0.850000 1.612986
vertex 0.750000 -0.900000 2.175486
endloop
endfacet
facet normal 0.000000 0.996073 0.088540
outer loop
vertex 1.000000 -0.850000 1.612986
vertex 0.750000 -0.900000 2.175486
vertex 1.000000 -0.900000 2.175486
endloop
endfacet
facet normal 1.000000 0.000000 0.000000
outer loop
vertex 1.000000 -1.100000 1.612986
vertex 1.000000 -0.850000 1.612986
vertex 1.000000 -0.900000 2.175486
endloop
endfacet
facet normal 1.000000 0.000000 0.000000
outer loop
vertex 1.000000 -1.100000 1.612986
vertex 1.000000 -0.900000 2.175486
vertex 1.000000 -1.150000 2.175486
endloop
endfacet
facet normal 0.000000 -0.996073 -0.088540
outer loop
vertex -1.000000 -1.100000 1.612986
vertex -0.750000 -1.100000 1.612986
vertex -0.750000 -1.150000 2.175486
endloop
endfacet
facet normal 0.000000 -0.996073 -0.088540
outer loop
vertex -1.000000 -1.100000 1.612986
vertex -0.750000 -1.150000 2.175486
vertex -1.000000 -1.150000 2.175486
endloop
endfacet
facet normal 1.000000 0.000000 0.000000
outer loop
vertex 0.750000 -0.850000 1.612986
vertex 0.750000 -1.100000 1.612986
vertex 0.750000 -1.009212 1.609321
endloop
endfacet
facet normal 1.000000 0.000000 0.000000
outer loop
vertex 0.750000 -1.100000 1.612986
vertex 0.750000 -1.086664 1.606617
vertex 0.750000 -1.009212 1.609321
endloop
endfacet
facet normal -1.000000 0.000000 0.000000
outer loop
vertex -1.000000 -0.850000 1.612986
vertex -1.000000 -1.100000 1.612986
vertex -1.000000 -1.150000 2.175486
endloop
endfacet
facet normal -1.000000 0.000000 0.000000
outer loop
vertex -1.000000 -0.850000 1.612986
vertex -1.000000 -1.150000 2.175486
vertex -1.000000 -0.900000 2.175486
endloop
endfacet
facet normal 0.000000 0.996073 0.088540
outer loop
vertex -0.750000 -0.850000 1.612986
vertex -1.000000 -0.850000 1.612986
vertex -1.000000 -0.900000 2.175486
endloop
endfacet
facet normal 0.000000 0.996073 0.088540
outer loop
vertex -0.750000 -0.850000 1.612986
vertex -1.000000 -0.900000 2.175486
vertex -0.750000 -0.900000 2.175486
endloop
endfacet
facet normal 0.000000 -0.034901 0.999391
outer loop
vertex 0.750000 -1.121786 2.168233
vertex 0.750000 -1.044333 2.170938
vertex -0.750000 -1.044333 2.170938
endloop
endfacet
facet normal 0.000000 -0.034901 0.999391
outer loop
vertex 0.750000 -1.121786 2.168233
vertex -0.750000 -1.044333 2.170938
vertex -0.750000 -1.121786 2.168233
endloop
endfacet
facet normal 0.000000 0.034900 -0.999391
outer loop
vertex 0.750000 -1.086664 1.606617
vertex -0.750000 -1.086664 1.606617
vertex -0.750000 -1.009212 1.609321
endloop
endfacet
facet normal 0.000000 0.034900 -0.999391
outer loop
vertex 0.750000 -1.086664 1.606617
vertex -0.750000 -1.009212 1.609321
vertex 0.750000 -1.009212 1.609321
endloop
endfacet
facet normal -1.000000 0.000000 0.000000
outer loop
vertex 0.750000 -0.900000 2.175486
vertex 0.750000 -0.850000 1.612986
vertex 0.750000 -1.009212 1.609321
endloop
endfacet
facet normal -1.000000 0.000000 0.000000
outer loop
vertex 0.750000 -0.900000 2.175486
vertex 0.750000 -1.009212 1.609321
vertex 0.750000 -1.044333 2.170938
endloop
endfacet
facet normal -1.000000 0.000000 0.000000
outer loop
vertex -0.750000 -1.100000 1.612986
vertex -0.750000 -0.850000 1.612986
vertex -0.750000 -1.009212 1.609321
endloop
endfacet
facet normal -1.000000 0.000000 0.000000
outer loop
vertex -0.750000 -1.100000 1.612986
vertex -0.750000 -1.009212 1.609321
vertex -0.750000 -1.086664 1.606617
endloop
endfacet
facet normal 1.000000 0.000000 0.000000
outer loop
vertex -0.750000 -1.150000 2.175486
vertex -0.750000 -1.100000 1.612986
vertex -0.750000 -1.086664 1.606617
endloop
endfacet
facet normal 1.000000 0.000000 0.000000
outer loop
vertex -0.750000 -1.150000 2.175486
vertex -0.750000 -1.086664 1.606617
vertex -0.750000 -1.121786 2.168233
endloop
endfacet
facet normal 1.000000 0.000000 0.000000
outer loop
vertex -0.750000 -0.850000 1.612986
vertex -0.750000 -0.900000 2.175486
vertex -0.750000 -1.044333 2.170938
endloop
endfacet
facet normal 1.000000 0.000000 0.000000
outer loop
vertex -0.750000 -0.850000 1.612986
vertex -0.750000 -1.044333 2.170938
vertex -0.750000 -1.009212 1.609321
endloop
endfacet
facet normal 1.000000 0.000000 0.000000
outer loop
vertex -0.750000 -0.900000 2.175486
vertex -0.750000 -1.150000 2.175486
vertex -0.750000 -1.044333 2.170938
endloop
endfacet
facet normal 1.000000 0.000000 0.000000
outer loop
vertex -0.750000 -1.150000 2.175486
vertex -0.750000 -1.121786 2.168233
vertex -0.750000 -1.044333 2.170938
endloop
endfacet
facet normal -1.000000 0.000000 0.000000
outer loop
vertex 0.750000 -1.100000 1.612986
vertex 0.750000 -1.150000 2.175486
vertex 0.750000 -1.121786 2.168233
endloop
endfacet
facet normal -1.000000 0.000000 0.000000
outer loop
vertex 0.750000 -1.100000 1.612986
vertex 0.750000 -1.121786 2.168233
vertex 0.750000 -1.086664 1.606617
endloop
endfacet
facet normal 0.000000 0.998050 0.062414
outer loop
vertex 0.750000 -1.044333 2.170938
vertex 0.750000 -1.009212 1.609321
vertex -0.750000 -1.009212 1.609321
endloop
endfacet
facet normal 0.000000 0.998050 0.062415
outer loop
vertex 0.750000 -1.044333 2.170938
vertex -0.750000 -1.009212 1.609321
vertex -0.750000 -1.044333 2.170938
endloop
endfacet
facet normal 0.000000 -0.998050 -0.062414
outer loop
vertex 0.750000 -1.121786 2.168233
vertex -0.750000 -1.121786 2.168233
vertex -0.750000 -1.086664 1.606617
endloop
endfacet
facet normal 0.000000 -0.998050 -0.062414
outer loop
vertex 0.750000 -1.121786 2.168233
vertex -0.750000 -1.086664 1.606617
vertex 0.750000 -1.086664 1.606617
endloop
endfacet
endsolid Exported from Blender-3.2.0
