solid Exported from Blender-3.1.0
facet normal 0.385293 0.782577 0.489002
outer loop
vertex 2.726881 4.633024 -4.260923
vertex -4.001060 2.043900 5.183652
vertex -2.256582 1.616176 4.493659
endloop
endfacet
facet normal 0.385293 0.782577 0.489002
outer loop
vertex 2.726881 4.633024 -4.260923
vertex -2.256582 1.616176 4.493659
vertex 2.837042 3.576362 -2.656687
endloop
endfacet
facet normal 0.185747 -0.973347 -0.134513
outer loop
vertex 2.837042 3.576362 -2.656687
vertex -2.256582 1.616176 4.493659
vertex -3.801703 1.478637 3.355272
endloop
endfacet
facet normal 0.185747 -0.973347 -0.134513
outer loop
vertex 2.837042 3.576362 -2.656687
vertex -3.801703 1.478637 3.355272
vertex 1.291920 3.438823 -3.795075
endloop
endfacet
facet normal -0.666116 0.688986 -0.285637
outer loop
vertex 1.291920 3.438823 -3.795075
vertex -3.801703 1.478637 3.355272
vertex -4.001060 2.043900 5.183652
endloop
endfacet
facet normal -0.666116 0.688986 -0.285637
outer loop
vertex 1.291920 3.438823 -3.795075
vertex -4.001060 2.043900 5.183652
vertex 2.726881 4.633024 -4.260923
endloop
endfacet
facet normal 0.225209 -0.463753 0.856863
outer loop
vertex -4.001060 2.043900 5.183652
vertex 1.274180 -6.676923 -0.922731
vertex 1.737223 -4.986229 -0.129392
endloop
endfacet
facet normal 0.225208 -0.463753 0.856863
outer loop
vertex -4.001060 2.043900 5.183652
vertex 1.737223 -4.986229 -0.129392
vertex -2.256582 1.616176 4.493659
endloop
endfacet
facet normal 0.397519 0.675392 -0.621148
outer loop
vertex -2.256582 1.616176 4.493659
vertex 1.737223 -4.986229 -0.129392
vertex 0.192102 -5.123768 -1.267780
endloop
endfacet
facet normal 0.397519 0.675392 -0.621148
outer loop
vertex -2.256582 1.616176 4.493659
vertex 0.192102 -5.123768 -1.267780
vertex -3.801703 1.478637 3.355272
endloop
endfacet
facet normal -0.826200 -0.557344 0.082224
outer loop
vertex -3.801703 1.478637 3.355272
vertex 0.192102 -5.123768 -1.267780
vertex 1.274180 -6.676923 -0.922731
endloop
endfacet
facet normal -0.826200 -0.557344 0.082224
outer loop
vertex -3.801703 1.478637 3.355272
vertex 1.274180 -6.676923 -0.922731
vertex -4.001060 2.043900 5.183652
endloop
endfacet
facet normal 0.966612 -0.178437 -0.183907
outer loop
vertex 1.274180 -6.676923 -0.922731
vertex 2.726881 4.633024 -4.260923
vertex 2.837042 3.576362 -2.656687
endloop
endfacet
facet normal 0.966612 -0.178437 -0.183907
outer loop
vertex 1.274180 -6.676923 -0.922731
vertex 2.837042 3.576362 -2.656687
vertex 1.737223 -4.986229 -0.129392
endloop
endfacet
facet normal -0.583266 0.297955 0.755661
outer loop
vertex 1.737223 -4.986229 -0.129392
vertex 2.837042 3.576362 -2.656687
vertex 1.291920 3.438823 -3.795075
endloop
endfacet
facet normal -0.583266 0.297955 0.755661
outer loop
vertex 1.737223 -4.986229 -0.129392
vertex 1.291920 3.438823 -3.795075
vertex 0.192102 -5.123768 -1.267780
endloop
endfacet
facet normal -0.084797 -0.272028 -0.958546
outer loop
vertex 0.192102 -5.123768 -1.267780
vertex 1.291920 3.438823 -3.795075
vertex 2.726881 4.633024 -4.260923
endloop
endfacet
facet normal -0.084797 -0.272028 -0.958546
outer loop
vertex 0.192102 -5.123768 -1.267780
vertex 2.726881 4.633024 -4.260923
vertex 1.274180 -6.676923 -0.922731
endloop
endfacet
endsolid Exported from Blender-3.1.0
